SplineFontDB: 3.0
FontName: Anton
FullName: Anton
FamilyName: Anton
Weight: Normal
Copyright: Copyright (c) 2011 by vernon adams. All rights reserved.
Version: 1.000
FONDName: Anton
ItalicAngle: 0
UnderlinePosition: -307
UnderlineWidth: 102
Ascent: 1638
Descent: 410
UFOAscent: 1769
UFODescent: -186
LayerCount: 2
Layer: 0 0 "Back"  1
Layer: 1 0 "Fore"  0
NeedsXUIDChange: 1
FSType: 1
OS2Version: 0
OS2_WeightWidthSlopeOnly: 0
OS2_UseTypoMetrics: 0
CreationTime: 1330030714
ModificationTime: 1330031241
PfmFamily: 0
TTFWeight: 400
TTFWidth: 1
LineGap: 65
VLineGap: 0
Panose: 2 0 5 3 0 0 0 0 0 0
OS2TypoAscent: 1769
OS2TypoAOffset: 0
OS2TypoDescent: -186
OS2TypoDOffset: 0
OS2TypoLinegap: 127
OS2WinAscent: 2331
OS2WinAOffset: 0
OS2WinDescent: -631
OS2WinDOffset: 0
HheadAscent: 2331
HheadAOffset: 0
HheadDescent: -631
HheadDOffset: 0
OS2SubXSize: 1434
OS2SubYSize: 1331
OS2SubXOff: 0
OS2SubYOff: 287
OS2SupXSize: 1434
OS2SupYSize: 1331
OS2SupXOff: 0
OS2SupYOff: 977
OS2StrikeYSize: 102
OS2StrikeYPos: 512
OS2Vendor: 'newt'
OS2CodePages: 20000001.00000000
OS2UnicodeRanges: 800000ef.5000204b.00000000.00000000
Lookup: 258 0 0 "'kern' Horizontal Kerning lookup 0"  {"'kern' Horizontal Kerning lookup 0 subtable"  } ['kern' ('DFLT' <'dflt' > ) ]
Lookup: 258 0 0 "'kern' Horizontal Kerning in Latin lookup 0"  {"'kern' Horizontal Kerning in Latin lookup 0 subtable"  } ['kern' ('latn' <'dflt' > ) ]
MarkAttachClasses: 1
DEI: 91125
LangName: 1033 "" "" "" "vernonadams: Anton: 2011" "" "Version 1.000" "" "Anton is a trademark of vernon adams." "vernon adams" "" "Copyright (c) 2011 by vernon adams. All rights reserved." "" "" "" "" "" "" "" "Anton" 
PickledData: "(dp1
S'org.robofab.glyphOrder'
p2
(S'.notdef'
S'space'
S'exclam'
S'quotedbl'
S'numbersign'
S'dollar'
S'percent'
S'ampersand'
S'quotesingle'
S'parenleft'
S'parenright'
S'asterisk'
S'plus'
S'comma'
S'hyphen'
S'period'
S'slash'
S'zero'
S'one'
S'two'
S'three'
S'four'
S'five'
S'six'
S'seven'
S'eight'
S'nine'
S'colon'
S'semicolon'
S'less'

StartChar: A
Encoding: 65 65 1
Width: 947
VWidth: 0
Flags: HW
LayerCount: 2
Fore
SplineSet
750 1761 m 5
 926 0 l 1
 586 0 l 1
 561 265 l 1
 383 265 l 1
 361 0 l 1
 19 0 l 1
 199 1761 l 5
 750 1761 l 5
487 1431 m 5
 455 1431 l 5
 408 585 l 1
 534 585 l 1
 487 1431 l 5
EndSplineSet
EndChar

StartChar: AE
Encoding: 198 198 2
Width: 1294
VWidth: 0
Flags: HW
LayerCount: 2
Fore
SplineSet
579 0 m 1
 578 120 l 1
 578 240 l 1
 370 240 l 1
 331 0 l 1
 -10 0 l 1
 311 1593 l 1
 1223 1593 l 1
 1223 1284 l 1
 937 1284 l 1
 937 973 l 1
 1209 973 l 1
 1209 674 l 1
 937 674 l 1
 937 311 l 1
 1246 311 l 1
 1246 0 l 1
 579 0 l 1
574 1294 m 1
 546 1294 l 1
 416 530 l 1
 574 530 l 1
 574 1294 l 1
EndSplineSet
EndChar

StartChar: Aacute
Encoding: 193 193 3
Width: 947
VWidth: 0
Flags: HW
LayerCount: 2
Fore
SplineSet
750 1593 m 1
 926 0 l 1
 586 0 l 1
 561 240 l 1
 383 240 l 1
 361 0 l 1
 19 0 l 1
 199 1593 l 1
 750 1593 l 1
487 1294 m 1
 455 1294 l 1
 408 530 l 1
 534 530 l 1
 487 1294 l 1
210 1645 m 1
 210 1868 l 1
 685 2086 l 1
 685 1739 l 1
 210 1645 l 1
EndSplineSet
EndChar

StartChar: Acircumflex
Encoding: 194 194 4
Width: 947
VWidth: 0
Flags: HW
LayerCount: 2
Fore
SplineSet
750 1593 m 1
 926 0 l 1
 586 0 l 1
 561 240 l 1
 383 240 l 1
 361 0 l 1
 19 0 l 1
 199 1593 l 1
 750 1593 l 1
487 1294 m 1
 455 1294 l 1
 408 530 l 1
 534 530 l 1
 487 1294 l 1
678 2086 m 1
 919 1683 l 1
 560 1683 l 1
 474 1968 l 1
 388 1683 l 1
 29 1683 l 1
 270 2086 l 1
 678 2086 l 1
EndSplineSet
EndChar

StartChar: Adieresis
Encoding: 196 196 5
Width: 947
VWidth: 0
Flags: HW
LayerCount: 2
Fore
SplineSet
750 1593 m 1
 926 0 l 1
 586 0 l 1
 561 240 l 1
 383 240 l 1
 361 0 l 1
 19 0 l 1
 199 1593 l 1
 750 1593 l 1
487 1294 m 1
 455 1294 l 1
 408 530 l 1
 534 530 l 1
 487 1294 l 1
53 1683 m 1
 53 1981 l 1
 411 1981 l 1
 411 1683 l 1
 53 1683 l 1
537 1683 m 1
 537 1981 l 1
 895 1981 l 1
 895 1683 l 1
 537 1683 l 1
EndSplineSet
EndChar

StartChar: Agrave
Encoding: 192 192 6
Width: 947
VWidth: 0
Flags: HW
LayerCount: 2
Fore
SplineSet
750 1593 m 1
 926 0 l 1
 586 0 l 1
 561 240 l 1
 383 240 l 1
 361 0 l 1
 19 0 l 1
 199 1593 l 1
 750 1593 l 1
487 1294 m 1
 455 1294 l 1
 408 530 l 1
 534 530 l 1
 487 1294 l 1
695 1645 m 1
 220 1739 l 1
 220 2086 l 1
 695 1868 l 1
 695 1645 l 1
EndSplineSet
EndChar

StartChar: Aring
Encoding: 197 197 7
Width: 947
VWidth: 0
Flags: HW
LayerCount: 2
Fore
SplineSet
750 1593 m 1
 926 0 l 1
 586 0 l 1
 561 240 l 1
 383 240 l 1
 361 0 l 1
 19 0 l 1
 199 1593 l 1
 750 1593 l 1
487 1294 m 1
 455 1294 l 1
 408 530 l 1
 534 530 l 1
 487 1294 l 1
475 1836 m 0
 385.857851475 1836 333 1905.85399184 333 1993 c 0
 333 2079.56690659 386.041494404 2150 475 2150 c 0
 563.970317531 2150 617 2079.57976777 617 1993 c 0
 617 1906.43309341 563.958505596 1836 475 1836 c 0
474 2331 m 0
 260.096421384 2331 121 2204.92650114 121 1993 c 0
 121 1781.59926405 260.245811904 1655 474 1655 c 0
 687.739599654 1655 828 1781.59187469 828 1993 c 0
 828 2204.39483433 687.719510883 2331 474 2331 c 0
EndSplineSet
EndChar

StartChar: Atilde
Encoding: 195 195 8
Width: 947
VWidth: 0
Flags: HW
LayerCount: 2
Fore
SplineSet
750 1593 m 1
 926 0 l 1
 586 0 l 1
 561 240 l 1
 383 240 l 1
 361 0 l 1
 19 0 l 1
 199 1593 l 1
 750 1593 l 1
487 1294 m 1
 455 1294 l 1
 408 530 l 1
 534 530 l 1
 487 1294 l 1
579 1694 m 0
 468.876295358 1694 435.757265106 1804 337 1804 c 0
 315.666666667 1804 296.333333333 1774.33333333 279 1715 c 1
 57 1821 l 1
 110.725658641 1952.77991742 181.273163816 2080 337 2080 c 0
 430.558023557 2080 490.726609408 1972 580 1972 c 0
 602 1972 621.666666667 1998.33333333 639 2051 c 1
 871 1995 l 1
 817.217334334 1848.32000273 743.696462308 1694 579 1694 c 0
EndSplineSet
EndChar

StartChar: B
Encoding: 66 66 9
Width: 988
VWidth: 0
Flags: HW
LayerCount: 2
Fore
SplineSet
951 569 m 0
 951 226 874 0 564 0 c 2
 87 0 l 1
 87 1761 l 5
 564 1761 l 6
 820 1761 931 1646 931 1359 c 6
 931 1281 l 2
 931 1116 872 1011 751 979 c 1
 909 939 951 781 951 569 c 0
603 660 m 2
 603 760 579 822 496 822 c 2
 431 822 l 1
 431 312 l 1
 447 311 459 310 466 310 c 0
 557 310 603 354 603 440 c 2
 603 660 l 2
503 1097 m 2
 568 1097 580 1155 580 1226 c 2
 580 1404 l 6
 580 1461 555 1489 505 1489 c 6
 431 1489 l 5
 431 1097 l 1
 503 1097 l 2
EndSplineSet
EndChar

StartChar: C
Encoding: 67 67 10
Width: 993
VWidth: 0
Flags: HW
LayerCount: 2
Fore
SplineSet
497 321 m 0
 557 321 581 375 581 454 c 2
 581 758 l 1
 937 758 l 1
 937 425 l 2
 937 116 769 -21 489 -21 c 0
 234 -21 65 151 65 436 c 2
 65 1254 l 6
 65 1595 192 1776 497 1776 c 4
 747 1776 929 1645 929 1368 c 6
 929 1058 l 5
 581 1058 l 5
 581 1261 l 6
 581 1366 553 1421 497 1421 c 4
 427 1421 415 1367 415 1289 c 6
 415 454 l 2
 415 390 443 321 497 321 c 0
EndSplineSet
EndChar

StartChar: Ccedilla
Encoding: 199 199 11
Width: 994
VWidth: 0
Flags: HW
LayerCount: 2
Fore
SplineSet
490 -18 m 0
 769.862777672 -18 938 105.396777009 938 385 c 2
 938 686 l 1
 582 686 l 1
 582 412 l 2
 582 340.066630756 558.513951071 291 498 291 c 0
 443.689194102 291 416 354.928561127 416 412 c 2
 416 1165 l 2
 416 1235.81586006 428.469901161 1284 498 1284 c 0
 554 1284 582 1236.33333333 582 1141 c 2
 582 956 l 1
 930 956 l 1
 930 1237 l 2
 930 1487.35978782 747.72129962 1606 498 1606 c 0
 193.495863253 1606 66 1442.57270316 66 1134 c 2
 66 395 l 2
 66 136.528983524 235.244103672 -18 490 -18 c 0
775 -330 m 0
 775 -518.600749006 617.02958224 -631 427 -631 c 0
 359 -631 293 -617.666666667 229 -591 c 1
 229 -368 l 1
 273 -383.333333333 311.666666667 -391 345 -391 c 0
 418.076224213 -391 460 -353.934669603 460 -279 c 0
 460 -188.756004373 382.208115966 -123.537731406 300 -106 c 1
 300 0 l 1
 511 0 l 1
 511 -76 l 1
 653.505966478 -95.0756018121 775 -183.121666156 775 -330 c 0
EndSplineSet
EndChar

StartChar: D
Encoding: 68 68 12
Width: 1020
VWidth: 0
Flags: HW
LayerCount: 2
Fore
SplineSet
955 522 m 1
 955 189 852 0 560 0 c 2
 87 0 l 1
 87 1761 l 5
 572 1761 l 6
 825 1761 950 1617 951 1347 c 6
 955 522 l 1
603 1285 m 6
 603 1402 580 1452 480 1452 c 4
 473 1452 460 1450 441 1449 c 5
 441 321 l 1
 443 322 447 322 453 322 c 0
 462 322 493 320 502 320 c 0
 569 320 603 351 603 414 c 2
 603 1285 l 6
EndSplineSet
EndChar

StartChar: E
Encoding: 69 69 13
Width: 862
VWidth: 0
Flags: HW
LayerCount: 2
Fore
SplineSet
87 0 m 1
 87 1761 l 5
 791 1761 l 5
 791 1421 l 5
 445 1421 l 5
 445 1077 l 5
 777 1077 l 5
 777 746 l 5
 445 746 l 5
 445 343 l 1
 814 343 l 1
 814 0 l 1
 87 0 l 1
EndSplineSet
EndChar

StartChar: Eacute
Encoding: 201 201 14
Width: 862
VWidth: 0
Flags: HW
LayerCount: 2
Fore
SplineSet
87 0 m 1
 87 1593 l 1
 791 1593 l 1
 791 1284 l 1
 445 1284 l 1
 445 973 l 1
 777 973 l 1
 777 674 l 1
 445 674 l 1
 445 311 l 1
 814 311 l 1
 814 0 l 1
 87 0 l 1
187 1645 m 1
 187 1868 l 1
 662 2086 l 1
 662 1739 l 1
 187 1645 l 1
EndSplineSet
EndChar

StartChar: Ecircumflex
Encoding: 202 202 15
Width: 861
VWidth: 0
Flags: HW
LayerCount: 2
Fore
SplineSet
87 0 m 1
 87 1593 l 1
 791 1593 l 1
 791 1284 l 1
 445 1284 l 1
 445 973 l 1
 777 973 l 1
 777 674 l 1
 445 674 l 1
 445 311 l 1
 814 311 l 1
 814 0 l 1
 87 0 l 1
655 2086 m 1
 896 1683 l 1
 537 1683 l 1
 451 1968 l 1
 365 1683 l 1
 6 1683 l 1
 247 2086 l 1
 655 2086 l 1
EndSplineSet
EndChar

StartChar: Edieresis
Encoding: 203 203 16
Width: 862
VWidth: 0
Flags: HW
LayerCount: 2
Fore
SplineSet
87 0 m 1
 87 1593 l 1
 791 1593 l 1
 791 1284 l 1
 445 1284 l 1
 445 973 l 1
 777 973 l 1
 777 674 l 1
 445 674 l 1
 445 311 l 1
 814 311 l 1
 814 0 l 1
 87 0 l 1
30 1683 m 1
 30 1981 l 1
 388 1981 l 1
 388 1683 l 1
 30 1683 l 1
514 1683 m 1
 514 1981 l 1
 872 1981 l 1
 872 1683 l 1
 514 1683 l 1
EndSplineSet
EndChar

StartChar: Egrave
Encoding: 200 200 17
Width: 862
VWidth: 0
Flags: HW
LayerCount: 2
Fore
SplineSet
87 0 m 1
 87 1593 l 1
 791 1593 l 1
 791 1284 l 1
 445 1284 l 1
 445 973 l 1
 777 973 l 1
 777 674 l 1
 445 674 l 1
 445 311 l 1
 814 311 l 1
 814 0 l 1
 87 0 l 1
672 1645 m 1
 197 1739 l 1
 197 2086 l 1
 672 1868 l 1
 672 1645 l 1
EndSplineSet
EndChar

StartChar: Euro
Encoding: 8364 8364 18
Width: 1108
VWidth: 0
Flags: HW
LayerCount: 2
Fore
SplineSet
620 -18 m 0
 322.312497459 -18 154 178.521719439 154 482 c 2
 154 559 l 1
 54 559 l 1
 54 791 l 1
 154 791 l 1
 154 942 l 1
 54 942 l 1
 54 1166 l 1
 154 1166 l 1
 154 1231 l 2
 154 1551.93692751 305.764527873 1729 620 1729 c 0
 917.984147312 1729 1050.97780057 1548.84306529 1056 1245 c 1
 707 1246 l 1
 707 1273 l 2
 707 1352.68476506 699.537960334 1424 620 1424 c 0
 540.464388731 1424 533 1352.6719269 533 1273 c 2
 533 1166 l 1
 848 1166 l 1
 848 942 l 1
 533 942 l 1
 533 791 l 1
 848 791 l 1
 848 559 l 1
 533 559 l 1
 533 447 l 2
 533 386.374642835 566.39621598 330 620 330 c 0
 673.55131456 330 707 386.437689233 707 447 c 2
 707 469 l 1
 1056 475 l 1
 1053.73899478 185.591331835 902.848130147 -18 620 -18 c 0
EndSplineSet
EndChar

StartChar: F
Encoding: 70 70 19
Width: 824
VWidth: 0
Flags: HW
LayerCount: 2
Fore
SplineSet
87 0 m 1
 87 1761 l 5
 791 1761 l 5
 791 1418 l 5
 441 1418 l 5
 441 1137 l 1
 773 1137 l 1
 773 798 l 1
 441 798 l 1
 441 0 l 1
 87 0 l 1
EndSplineSet
EndChar

StartChar: G
Encoding: 71 71 20
Width: 1003
VWidth: 0
Flags: HW
LayerCount: 2
Fore
SplineSet
513 323 m 0
 597 323 601 409 601 517 c 2
 601 721 l 1
 507 721 l 1
 507 1025 l 1
 933 1025 l 1
 933 0 l 1
 796 0 l 1
 736 148 l 1
 673 36 577 -21 446 -21 c 0
 192 -21 65 161 65 524 c 2
 65 1289 l 6
 65 1614 213 1776 501 1776 c 4
 856 1776 937 1561 937 1168 c 5
 601 1168 l 5
 601 1305 l 6
 601 1381 582 1433 517 1433 c 4
 404 1433 417 1319 417 1191 c 6
 417 509 l 2
 417 414 427 323 513 323 c 0
EndSplineSet
EndChar

StartChar: H
Encoding: 72 72 21
Width: 1040
VWidth: 0
Flags: HW
LayerCount: 2
Fore
SplineSet
437 798 m 1
 437 0 l 1
 87 0 l 1
 87 1761 l 5
 437 1761 l 5
 437 1131 l 1
 603 1131 l 1
 603 1761 l 5
 953 1761 l 5
 953 0 l 1
 603 0 l 1
 603 798 l 1
 437 798 l 1
EndSplineSet
EndChar

StartChar: I
Encoding: 73 73 22
Width: 514
VWidth: 0
Flags: HW
LayerCount: 2
Fore
SplineSet
87 0 m 1
 87 1761 l 5
 427 1761 l 5
 427 0 l 1
 87 0 l 1
EndSplineSet
EndChar

StartChar: Iacute
Encoding: 205 205 23
Width: 514
VWidth: 0
Flags: HW
LayerCount: 2
Fore
SplineSet
87 0 m 1
 87 1593 l 1
 427 1593 l 1
 427 0 l 1
 87 0 l 1
-4 1645 m 1
 -4 1868 l 1
 471 2086 l 1
 471 1739 l 1
 -4 1645 l 1
EndSplineSet
EndChar

StartChar: Icircumflex
Encoding: 206 206 24
Width: 514
VWidth: 0
Flags: HW
LayerCount: 2
Fore
SplineSet
87 0 m 1
 87 1593 l 1
 427 1593 l 1
 427 0 l 1
 87 0 l 1
464 2086 m 1
 705 1683 l 1
 346 1683 l 1
 260 1968 l 1
 174 1683 l 1
 -185 1683 l 1
 56 2086 l 1
 464 2086 l 1
EndSplineSet
EndChar

StartChar: Idieresis
Encoding: 207 207 25
Width: 514
VWidth: 0
Flags: HW
LayerCount: 2
Fore
SplineSet
87 0 m 1
 87 1593 l 1
 427 1593 l 1
 427 0 l 1
 87 0 l 1
-161 1683 m 1
 -161 1981 l 1
 197 1981 l 1
 197 1683 l 1
 -161 1683 l 1
323 1683 m 1
 323 1981 l 1
 681 1981 l 1
 681 1683 l 1
 323 1683 l 1
EndSplineSet
EndChar

StartChar: Igrave
Encoding: 204 204 26
Width: 514
VWidth: 0
Flags: HW
LayerCount: 2
Fore
SplineSet
87 0 m 1
 87 1593 l 1
 427 1593 l 1
 427 0 l 1
 87 0 l 1
481 1645 m 1
 6 1739 l 1
 6 2086 l 1
 481 1868 l 1
 481 1645 l 1
EndSplineSet
EndChar

StartChar: J
Encoding: 74 74 27
Width: 965
VWidth: 0
Flags: HW
LayerCount: 2
Fore
SplineSet
884 440 m 2
 884 160 705 -21 454 -21 c 0
 215 -21 24 124 24 389 c 2
 24 830 l 1
 372 830 l 1
 372 444 l 2
 372 382 395 336 450 336 c 0
 503 336 530 388 530 490 c 0
 530 500 529 537 529 547 c 2
 529 1761 l 5
 884 1761 l 5
 884 440 l 2
EndSplineSet
EndChar

StartChar: K
Encoding: 75 75 28
Width: 982
VWidth: 0
Flags: HW
LayerCount: 2
Fore
SplineSet
599 1761 m 5
 953 1761 l 5
 756 954 l 1
 994 0 l 1
 629 0 l 1
 437 852 l 1
 437 0 l 1
 87 0 l 1
 87 1761 l 5
 435 1761 l 5
 435 1055 l 1
 599 1761 l 5
EndSplineSet
EndChar

StartChar: L
Encoding: 76 76 29
Width: 809
VWidth: 0
Flags: HW
LayerCount: 2
Fore
SplineSet
87 0 m 1
 87 1761 l 5
 439 1761 l 5
 439 343 l 1
 801 343 l 1
 801 0 l 1
 87 0 l 1
EndSplineSet
EndChar

StartChar: Lslash
Encoding: 321 321 30
Width: 813
VWidth: 0
Flags: HW
LayerCount: 2
Fore
SplineSet
91 0 m 1
 91 1593 l 1
 443 1593 l 1
 443 311 l 1
 805 311 l 1
 805 0 l 1
 91 0 l 1
21 509 m 1
 21 741 l 1
 708 973 l 1
 708 741 l 1
 21 509 l 1
EndSplineSet
EndChar

StartChar: M
Encoding: 77 77 31
Width: 1546
VWidth: 0
Flags: HW
LayerCount: 2
Fore
SplineSet
935 0 m 1
 619 0 l 1
 425 1268 l 1
 425 0 l 1
 87 0 l 1
 87 1761 l 5
 623 1761 l 5
 771 841 l 1
 918 1761 l 5
 1459 1761 l 5
 1459 0 l 1
 1117 0 l 1
 1117 1268 l 1
 935 0 l 1
EndSplineSet
EndChar

StartChar: N
Encoding: 78 78 32
Width: 1038
VWidth: 0
Flags: HW
LayerCount: 2
Fore
SplineSet
951 1761 m 5
 951 0 l 1
 607 0 l 1
 431 880 l 1
 431 0 l 1
 87 0 l 1
 87 1761 l 5
 449 1761 l 5
 611 917 l 1
 611 1761 l 5
 951 1761 l 5
EndSplineSet
EndChar

StartChar: Ntilde
Encoding: 209 209 33
Width: 1038
VWidth: 0
Flags: HW
LayerCount: 2
Fore
SplineSet
951 1593 m 1
 951 0 l 1
 607 0 l 1
 431 797 l 1
 431 0 l 1
 87 0 l 1
 87 1593 l 1
 449 1593 l 1
 611 831 l 1
 611 1593 l 1
 951 1593 l 1
626 1694 m 0
 515.876295358 1694 482.757265106 1804 384 1804 c 0
 362.666666667 1804 343.333333333 1774.33333333 326 1715 c 1
 104 1821 l 1
 157.725658641 1952.77991742 228.273163816 2080 384 2080 c 0
 477.558023557 2080 537.726609408 1972 627 1972 c 0
 649 1972 668.666666667 1998.33333333 686 2051 c 1
 918 1995 l 1
 864.217334334 1848.32000273 790.696462308 1694 626 1694 c 0
EndSplineSet
EndChar

StartChar: O
Encoding: 79 79 34
Width: 1000
VWidth: 0
Flags: HW
LayerCount: 2
Fore
SplineSet
500 -21 m 0
 212 -21 66 162 66 475 c 2
 66 1316 l 6
 66 1619 218 1777 500 1777 c 4
 782 1777 934 1619 934 1316 c 6
 934 475 l 2
 934 162 788 -21 500 -21 c 0
414 526 m 0
 414 434 418 327 500 327 c 0
 577 327 580 428 580 513 c 2
 580 1230 l 6
 580 1325 587 1432 500 1432 c 4
 432 1432 414 1364 414 1289 c 4
 414 1036.00526316 414 778.994736842 414 526 c 0
EndSplineSet
EndChar

StartChar: OE
Encoding: 338 338 35
Width: 1352
VWidth: 0
Flags: HW
LayerCount: 2
Fore
SplineSet
63 1189 m 2
 63 1498.13479441 285.658297646 1593 611 1593 c 2
 1281 1593 l 1
 1281 1284 l 1
 944 1284 l 1
 944 973 l 1
 1267 973 l 1
 1267 674 l 1
 944 674 l 1
 944 311 l 1
 1304 311 l 1
 1304 0 l 1
 619 0 l 2
 248.333333333 0 63 143.333333333 63 430 c 2
 63 1189 l 2
532 1289 m 0
 453.135777308 1289 411 1232.1962004 411 1147 c 2
 411 477 l 2
 411 383.540307582 443.903227433 308 526 308 c 0
 546 308 566.333333333 312.666666667 587 322 c 1
 587 1280 l 1
 569 1286 550.666666667 1289 532 1289 c 0
EndSplineSet
EndChar

StartChar: Oacute
Encoding: 211 211 36
Width: 1000
VWidth: 0
Flags: HW
LayerCount: 2
Fore
SplineSet
500 -18 m 0
 212.424516916 -18 66 146.151732365 66 430 c 2
 66 1189 l 2
 66 1463.98747485 218.297880356 1607 500 1607 c 0
 781.739452741 1607 934 1464.02073405 934 1189 c 2
 934 430 l 2
 934 146.151559059 787.57600645 -18 500 -18 c 0
414 477 m 0
 414 394.613893568 417.982755651 297 500 297 c 0
 577.025018014 297 580 387.595392996 580 465 c 2
 580 1113 l 2
 580 1197.98282682 586.732135966 1295 500 1295 c 0
 431.837968751 1295 414 1233.21383547 414 1165.5 c 0
 414 936 414 706.5 414 477 c 0
232 1645 m 1
 232 1868 l 1
 707 2086 l 1
 707 1739 l 1
 232 1645 l 1
EndSplineSet
EndChar

StartChar: Ocircumflex
Encoding: 212 212 37
Width: 1000
VWidth: 0
Flags: HW
LayerCount: 2
Fore
SplineSet
500 -18 m 0
 212.424516916 -18 66 146.151732365 66 430 c 2
 66 1189 l 2
 66 1463.98747485 218.297880356 1607 500 1607 c 0
 781.739452741 1607 934 1464.02073405 934 1189 c 2
 934 430 l 2
 934 146.151559059 787.57600645 -18 500 -18 c 0
414 477 m 0
 414 394.613893568 417.982755651 297 500 297 c 0
 577.025018014 297 580 387.595392996 580 465 c 2
 580 1113 l 2
 580 1197.98282682 586.732135966 1295 500 1295 c 0
 431.837968751 1295 414 1233.21383547 414 1165.5 c 0
 414 936 414 706.5 414 477 c 0
700 2086 m 1
 941 1683 l 1
 582 1683 l 1
 496 1968 l 1
 410 1683 l 1
 51 1683 l 1
 292 2086 l 1
 700 2086 l 1
EndSplineSet
EndChar

StartChar: Odieresis
Encoding: 214 214 38
Width: 1000
VWidth: 0
Flags: HW
LayerCount: 2
Fore
SplineSet
500 -18 m 0
 212.424516916 -18 66 146.151732365 66 430 c 2
 66 1189 l 2
 66 1463.98747485 218.297880356 1607 500 1607 c 0
 781.739452741 1607 934 1464.02073405 934 1189 c 2
 934 430 l 2
 934 146.151559059 787.57600645 -18 500 -18 c 0
414 477 m 0
 414 394.613893568 417.982755651 297 500 297 c 0
 577.025018014 297 580 387.595392996 580 465 c 2
 580 1113 l 2
 580 1197.98282682 586.732135966 1295 500 1295 c 0
 431.837968751 1295 414 1233.21383547 414 1165.5 c 0
 414 936 414 706.5 414 477 c 0
75 1683 m 1
 75 1981 l 1
 433 1981 l 1
 433 1683 l 1
 75 1683 l 1
559 1683 m 1
 559 1981 l 1
 917 1981 l 1
 917 1683 l 1
 559 1683 l 1
EndSplineSet
EndChar

StartChar: Ograve
Encoding: 210 210 39
Width: 1000
VWidth: 0
Flags: HW
LayerCount: 2
Fore
SplineSet
500 -18 m 0
 212.424516916 -18 66 146.151732365 66 430 c 2
 66 1189 l 2
 66 1463.98747485 218.297880356 1607 500 1607 c 0
 781.739452741 1607 934 1464.02073405 934 1189 c 2
 934 430 l 2
 934 146.151559059 787.57600645 -18 500 -18 c 0
414 477 m 0
 414 394.613893568 417.982755651 297 500 297 c 0
 577.025018014 297 580 387.595392996 580 465 c 2
 580 1113 l 2
 580 1197.98282682 586.732135966 1295 500 1295 c 0
 431.837968751 1295 414 1233.21383547 414 1165.5 c 0
 414 936 414 706.5 414 477 c 0
717 1645 m 1
 242 1739 l 1
 242 2086 l 1
 717 1868 l 1
 717 1645 l 1
EndSplineSet
EndChar

StartChar: Omega
Encoding: 937 937 40
Width: 1010
VWidth: 0
Flags: HW
LayerCount: 2
Fore
SplineSet
505 1607 m 0
 782.747640434 1607 929 1461.55397883 929 1189 c 2
 929 710 l 2
 929 499.333333333 896.666666667 344.666666667 832 246 c 1
 954 246 l 1
 954 0 l 1
 538 0 l 1
 538 247 l 1
 613.489715393 284.744857696 590 431.178718949 590 581 c 2
 590 1211 l 2
 590 1280.71251267 574.474739559 1335 505 1335 c 0
 435.537288884 1335 420 1280.68824341 420 1211 c 2
 420 581 l 2
 420 440.946863167 407.890400401 281.52055363 472 247 c 1
 472 0 l 1
 56 0 l 1
 56 246 l 1
 178 246 l 1
 113.333333333 344.666666667 81 499.333333333 81 710 c 2
 81 1189 l 2
 81 1461.52859555 227.279316415 1607 505 1607 c 0
EndSplineSet
EndChar

StartChar: Oslash
Encoding: 216 216 41
Width: 1000
VWidth: 0
Flags: HW
LayerCount: 2
Fore
SplineSet
934 430 m 2
 934 146.151559059 787.57600645 -18 500 -18 c 0
 444 -18 392.333333333 -11.6666666667 345 1 c 1
 311 -120 l 1
 211 -92 l 1
 248 42 l 1
 126.666666667 114.666666667 66 244 66 430 c 2
 66 1189 l 2
 66 1463.98747485 218.297880356 1607 500 1607 c 0
 565.333333333 1607 624 1599.33333333 676 1584 c 1
 708 1699 l 1
 809 1671 l 1
 772 1540 l 1
 880 1471.33333333 934 1354.33333333 934 1189 c 2
 934 430 l 2
500 1295 m 0
 431.837968751 1295 414 1233.21383547 414 1165.5 c 0
 414 990 414 814.5 414 639 c 1
 576 1222 l 1
 566.666666667 1270.66666667 541.333333333 1295 500 1295 c 0
500 297 m 0
 577.025018014 297 580 387.595392996 580 465 c 2
 580 846 l 1
 437 333 l 1
 451 309 472 297 500 297 c 0
EndSplineSet
EndChar

StartChar: Otilde
Encoding: 213 213 42
Width: 1000
VWidth: 0
Flags: HW
LayerCount: 2
Fore
SplineSet
500 -18 m 0
 212.424516916 -18 66 146.151732365 66 430 c 2
 66 1189 l 2
 66 1463.98747485 218.297880356 1607 500 1607 c 0
 781.739452741 1607 934 1464.02073405 934 1189 c 2
 934 430 l 2
 934 146.151559059 787.57600645 -18 500 -18 c 0
414 477 m 0
 414 394.613893568 417.982755651 297 500 297 c 0
 577.025018014 297 580 387.595392996 580 465 c 2
 580 1113 l 2
 580 1197.98282682 586.732135966 1295 500 1295 c 0
 431.837968751 1295 414 1233.21383547 414 1165.5 c 0
 414 936 414 706.5 414 477 c 0
601 1694 m 0
 490.876295358 1694 457.757265106 1804 359 1804 c 0
 337.666666667 1804 318.333333333 1774.33333333 301 1715 c 1
 79 1821 l 1
 132.725658641 1952.77991742 203.273163816 2080 359 2080 c 0
 452.558023557 2080 512.726609408 1972 602 1972 c 0
 624 1972 643.666666667 1998.33333333 661 2051 c 1
 893 1995 l 1
 839.217334334 1848.32000273 765.696462308 1694 601 1694 c 0
EndSplineSet
EndChar

StartChar: P
Encoding: 80 80 43
Width: 960
VWidth: 0
Flags: HW
LayerCount: 2
Fore
SplineSet
943 1224 m 0
 943 903 868 697 576 697 c 2
 433 697 l 1
 433 0 l 1
 87 0 l 1
 87 1761 l 5
 552 1761 l 6
 844 1761 943 1556.85955056 943 1224 c 0
595 1230 m 0
 595 1363.91304348 578 1440 472 1440 c 6
 433 1440 l 5
 433 1013 l 1
 453 1013 l 2
 583 1013 595 1087 595 1230 c 0
EndSplineSet
EndChar

StartChar: Q
Encoding: 81 81 44
Width: 1001
VWidth: 0
Flags: HW
LayerCount: 2
Fore
SplineSet
500 1776 m 4
 781 1776 934 1616 934 1313 c 6
 934 462 l 2
 934 318 901 202 836 119 c 1
 987 23 l 1
 868 -187 l 1
 588 -8 l 1
 543 -15 513 -21 500 -21 c 0
 214 -21 66 150 66 462 c 2
 66 1313 l 6
 66 1616 219 1776 500 1776 c 4
414 528 m 0
 414 436 418 330 500 330 c 0
 575 330 580 417 580 524 c 2
 580 1284 l 6
 580 1359 566 1429 498 1429 c 4
 429 1429 414 1361 414 1285 c 4
 414 1034.00530504 414 778.99469496 414 528 c 0
EndSplineSet
EndChar

StartChar: R
Encoding: 82 82 45
Width: 997
VWidth: 0
Flags: HW
LayerCount: 2
Fore
SplineSet
773 918 m 5
 883 895 924 805 924 666 c 4
 924 374.687782805 923 150.678733032 920 0 c 1
 576 0 l 1
 576 689 l 6
 576 792 536 803 443 803 c 5
 443 0 l 1
 87 0 l 1
 87 1761 l 5
 627 1761 l 6
 897 1761 947 1565 947 1268 c 4
 947 1076 907 962 773 918 c 5
603 1268 m 4
 603 1405 583 1435 464 1435 c 6
 445 1435 l 5
 445 1108 l 5
 533 1108 l 6
 580 1108 603 1161 603 1268 c 4
EndSplineSet
EndChar

StartChar: S
Encoding: 83 83 46
Width: 951
VWidth: 0
Flags: HW
LayerCount: 2
Fore
SplineSet
912 513 m 0
 912 182 804 -21 502 -21 c 0
 180 -21 48 136 48 486 c 2
 48 658 l 1
 396 658 l 1
 396 500 l 2
 396 387 424 330 480 330 c 0
 536 330 564 384 564 450 c 0
 564 632 478.37109375 684.349609375 377 783 c 2
 228 928 l 6
 108 1041 48 1172 48 1315 c 4
 48 1615 191 1777 455 1777 c 6
 472 1777 l 6
 776 1777 900 1597 900 1255 c 5
 543 1255 l 5
 541 1361 l 6
 540 1399 505 1437 469 1437 c 4
 423 1437 385 1402 385 1353 c 4
 385 1304 418 1249 484 1189 c 6
 697 1000 l 6
 823 888.311983471 912 757.506198347 912 513 c 0
EndSplineSet
EndChar

StartChar: Scaron
Encoding: 352 352 47
Width: 951
VWidth: 0
Flags: HW
LayerCount: 2
Fore
SplineSet
912 465 m 0
 912 165.222817055 803.821045855 -18 502 -18 c 0
 179.884345717 -18 48 122.090906114 48 440 c 2
 48 596 l 1
 396 596 l 1
 396 453 l 2
 396 350.333333333 424 299 480 299 c 0
 536.459571516 299 564 348.859449683 564 408 c 0
 564 572.775469821 478.813105623 621.013365511 377 709 c 2
 228 838 l 2
 108 941.333333333 48 1058 48 1188 c 0
 48 1459.45508971 191.040416241 1607 455 1607 c 1
 770.642313068 1609.92261401 900 1454.5804171 900 1135 c 1
 543 1135 l 1
 541 1231 l 2
 539.701638223 1266.05576799 505.104175853 1300 469 1300 c 0
 423.251614522 1300 385 1268.60271597 385 1223 c 0
 385 1177.66666667 418 1128.33333333 484 1075 c 2
 697 903 l 2
 822.506577233 801.629303004 912 685.779142088 912 465 c 0
683 1683 m 1
 275 1683 l 1
 34 2086 l 1
 393 2086 l 1
 479 1801 l 1
 565 2086 l 1
 924 2086 l 1
 683 1683 l 1
EndSplineSet
EndChar

StartChar: Scommaaccent
Encoding: 536 536 48
Width: 951
VWidth: 0
Flags: HW
LayerCount: 2
Fore
SplineSet
912 465 m 0
 912 165.222817055 803.821045855 -18 502 -18 c 0
 179.884345717 -18 48 122.090906114 48 440 c 2
 48 596 l 1
 396 596 l 1
 396 453 l 2
 396 350.333333333 424 299 480 299 c 0
 536.459571516 299 564 348.859449683 564 408 c 0
 564 572.775469821 478.813105623 621.013365511 377 709 c 2
 228 838 l 2
 108 941.333333333 48 1058 48 1188 c 0
 48 1459.45508971 191.040416241 1607 455 1607 c 1
 770.642313068 1609.92261401 900 1454.5804171 900 1135 c 1
 543 1135 l 1
 541 1231 l 2
 539.701638223 1266.05576799 505.104175853 1300 469 1300 c 0
 423.251614522 1300 385 1268.60271597 385 1223 c 0
 385 1177.66666667 418 1128.33333333 484 1075 c 2
 697 903 l 2
 822.506577233 801.629303004 912 685.779142088 912 465 c 0
315 -438 m 1
 315 -140 l 1
 689 -140 l 1
 689 -429 l 1
 587 -674 l 1
 376 -674 l 1
 442 -438 l 1
 315 -438 l 1
EndSplineSet
EndChar

StartChar: T
Encoding: 84 84 49
Width: 811
VWidth: 0
Flags: HW
LayerCount: 2
Fore
SplineSet
20 1761 m 5
 790 1761 l 5
 790 1423 l 5
 581 1423 l 5
 581 0 l 1
 229 0 l 1
 229 1423 l 5
 20 1423 l 5
 20 1761 l 5
EndSplineSet
EndChar

StartChar: Tcommaaccent
Encoding: 354 354 50
Width: 811
VWidth: 0
Flags: HW
LayerCount: 2
Fore
SplineSet
20 1593 m 1
 790 1593 l 1
 790 1286 l 1
 581 1286 l 1
 581 0 l 1
 229 0 l 1
 229 1286 l 1
 20 1286 l 1
 20 1593 l 1
218 -420 m 1
 218 -122 l 1
 592 -122 l 1
 592 -411 l 1
 490 -656 l 1
 279 -656 l 1
 345 -420 l 1
 218 -420 l 1
EndSplineSet
EndChar

StartChar: Thorn
Encoding: 222 222 51
Width: 972
VWidth: 0
Flags: HW
LayerCount: 2
Fore
SplineSet
943 875 m 0
 943 568.417420103 881.258305382 336 576 336 c 2
 433 336 l 1
 433 0 l 1
 87 0 l 1
 87 1593 l 1
 432 1593 l 1
 432 1418 l 1
 552 1418 l 2
 860.030687403 1418 943 1192.96283663 943 875 c 0
595 881 m 0
 595 1023.02334135 587.26407538 1128 472 1128 c 2
 433 1128 l 1
 433 623 l 1
 453 623 l 2
 596.692146108 623 595 734.826314981 595 881 c 0
EndSplineSet
EndChar

StartChar: U
Encoding: 85 85 52
Width: 1020
VWidth: 0
Flags: HW
LayerCount: 2
Fore
SplineSet
510 -21 m 0
 217 -21 82 146 82 466 c 2
 82 1761 l 5
 424 1761 l 5
 424 492 l 2
 424 404 430 315 510 315 c 0
 591 315 596 403 596 492 c 2
 596 1761 l 5
 938 1761 l 5
 938 466 l 2
 938 146 803 -21 510 -21 c 0
EndSplineSet
EndChar

StartChar: Uacute
Encoding: 218 218 53
Width: 1020
VWidth: 0
Flags: HW
LayerCount: 2
Fore
SplineSet
510 -18 m 0
 217.469096103 -18 82 131.595372872 82 422 c 2
 82 1593 l 1
 424 1593 l 1
 424 446 l 2
 424 366.042370614 430.091488595 285 510 285 c 0
 590.795196255 285 596 365.350274505 596 446 c 2
 596 1593 l 1
 938 1593 l 1
 938 422 l 2
 938 131.603634782 802.524231863 -18 510 -18 c 0
249 1645 m 1
 249 1868 l 1
 724 2086 l 1
 724 1739 l 1
 249 1645 l 1
EndSplineSet
EndChar

StartChar: Ucircumflex
Encoding: 219 219 54
Width: 1020
VWidth: 0
Flags: HW
LayerCount: 2
Fore
SplineSet
510 -18 m 0
 217.469096103 -18 82 131.595372872 82 422 c 2
 82 1593 l 1
 424 1593 l 1
 424 446 l 2
 424 366.042370614 430.091488595 285 510 285 c 0
 590.795196255 285 596 365.350274505 596 446 c 2
 596 1593 l 1
 938 1593 l 1
 938 422 l 2
 938 131.603634782 802.524231863 -18 510 -18 c 0
717 2086 m 1
 958 1683 l 1
 599 1683 l 1
 513 1968 l 1
 427 1683 l 1
 68 1683 l 1
 309 2086 l 1
 717 2086 l 1
EndSplineSet
EndChar

StartChar: Udieresis
Encoding: 220 220 55
Width: 1020
VWidth: 0
Flags: HW
LayerCount: 2
Fore
SplineSet
510 -18 m 0
 217.469096103 -18 82 131.595372872 82 422 c 2
 82 1593 l 1
 424 1593 l 1
 424 446 l 2
 424 366.042370614 430.091488595 285 510 285 c 0
 590.795196255 285 596 365.350274505 596 446 c 2
 596 1593 l 1
 938 1593 l 1
 938 422 l 2
 938 131.603634782 802.524231863 -18 510 -18 c 0
92 1683 m 1
 92 1981 l 1
 450 1981 l 1
 450 1683 l 1
 92 1683 l 1
576 1683 m 1
 576 1981 l 1
 934 1981 l 1
 934 1683 l 1
 576 1683 l 1
EndSplineSet
EndChar

StartChar: Ugrave
Encoding: 217 217 56
Width: 1020
VWidth: 0
Flags: HW
LayerCount: 2
Fore
SplineSet
510 -18 m 0
 217.469096103 -18 82 131.595372872 82 422 c 2
 82 1593 l 1
 424 1593 l 1
 424 446 l 2
 424 366.042370614 430.091488595 285 510 285 c 0
 590.795196255 285 596 365.350274505 596 446 c 2
 596 1593 l 1
 938 1593 l 1
 938 422 l 2
 938 131.603634782 802.524231863 -18 510 -18 c 0
734 1645 m 1
 259 1739 l 1
 259 2086 l 1
 734 1868 l 1
 734 1645 l 1
EndSplineSet
EndChar

StartChar: V
Encoding: 86 86 57
Width: 932
VWidth: 0
Flags: HW
LayerCount: 2
Fore
SplineSet
706 0 m 1
 226 0 l 1
 9 1761 l 5
 364 1761 l 5
 463 593 l 1
 568 1761 l 5
 923 1761 l 5
 706 0 l 1
EndSplineSet
EndChar

StartChar: W
Encoding: 87 87 58
Width: 1431
VWidth: 0
Flags: HW
LayerCount: 2
Fore
SplineSet
455 649 m 1
 554 1761 l 5
 882 1761 l 5
 976 649 l 1
 1070 1761 l 5
 1418 1761 l 5
 1226 0 l 1
 804 0 l 1
 716 847 l 1
 632 0 l 1
 203 0 l 1
 14 1761 l 5
 358 1761 l 5
 455 649 l 1
EndSplineSet
EndChar

StartChar: X
Encoding: 88 88 59
Width: 952
VWidth: 0
Flags: HW
LayerCount: 2
Fore
SplineSet
477 688 m 1
 363 0 l 1
 6 0 l 1
 195 933 l 1
 45 1761 l 5
 389 1761 l 5
 480 1156 l 1
 561 1761 l 5
 906 1761 l 5
 756 933 l 1
 944 0 l 1
 588 0 l 1
 477 688 l 1
EndSplineSet
EndChar

StartChar: Y
Encoding: 89 89 60
Width: 859
VWidth: 0
Flags: HW
LayerCount: 2
Fore
SplineSet
596 0 m 1
 264 0 l 1
 264 579 l 1
 -17 1761 l 5
 332 1761 l 5
 430 1164 l 1
 528 1761 l 5
 876 1761 l 5
 596 579 l 1
 596 0 l 1
EndSplineSet
EndChar

StartChar: Ydieresis
Encoding: 376 376 61
Width: 859
VWidth: 0
Flags: HW
LayerCount: 2
Fore
SplineSet
596 0 m 1
 264 0 l 1
 264 524 l 1
 -17 1593 l 1
 332 1593 l 1
 430 1053 l 1
 528 1593 l 1
 876 1593 l 1
 596 524 l 1
 596 0 l 1
12 1683 m 1
 12 1981 l 1
 370 1981 l 1
 370 1683 l 1
 12 1683 l 1
496 1683 m 1
 496 1981 l 1
 854 1981 l 1
 854 1683 l 1
 496 1683 l 1
EndSplineSet
EndChar

StartChar: Z
Encoding: 90 90 62
Width: 886
VWidth: 0
Flags: HW
LayerCount: 2
Fore
SplineSet
34 0 m 1
 34 334 l 1
 456 1421 l 5
 73 1421 l 5
 73 1761 l 5
 847 1761 l 5
 847 1433 l 5
 417 338 l 1
 830 338 l 1
 830 0 l 1
 34 0 l 1
EndSplineSet
EndChar

StartChar: Zcaron
Encoding: 381 381 63
Width: 886
VWidth: 0
Flags: HW
LayerCount: 2
Fore
SplineSet
34 0 m 1
 34 303 l 1
 456 1284 l 1
 73 1284 l 1
 73 1593 l 1
 847 1593 l 1
 847 1296 l 1
 417 307 l 1
 830 307 l 1
 830 0 l 1
 34 0 l 1
645 1683 m 1
 237 1683 l 1
 -4 2086 l 1
 355 2086 l 1
 441 1801 l 1
 527 2086 l 1
 886 2086 l 1
 645 1683 l 1
EndSplineSet
EndChar

StartChar: a
Encoding: 97 97 64
Width: 1004
VWidth: 0
Flags: HW
LayerCount: 2
Fore
SplineSet
345 -18 m 0
 95.0181250705 -18 41 173.80155275 41 430 c 0
 41 838.644536466 227.471677623 865.134448195 563 980 c 0
 563 981 563 981 563 983 c 0
 563 1079.10653916 581.478389376 1239 486 1239 c 0
 436.666666667 1239 412 1211.66666667 412 1157 c 2
 412 1056 l 1
 64 1056 l 1
 63.3333333333 1067.33333333 63 1083.66666667 63 1105 c 0
 63 1402.54278657 198.184426651 1518 504 1518 c 0
 743.858361572 1518 924 1387.23993912 924 1143 c 2
 924 0 l 1
 568 0 l 1
 568 156 l 1
 545.581614327 73.7992525308 448.073939163 -18 345 -18 c 0
562 774 m 1
 462.882004008 734.137327699 406 687.237826093 406 570 c 2
 406 395 l 2
 406 306.333333333 432.666666667 262 486 262 c 0
 543.766063976 262 562 321.708075853 562 379 c 2
 562 774 l 1
EndSplineSet
EndChar

StartChar: aacute
Encoding: 225 225 65
Width: 1004
VWidth: 0
Flags: HW
LayerCount: 2
Fore
SplineSet
345 -18 m 0
 95.0181250705 -18 41 173.80155275 41 430 c 0
 41 838.644536466 227.471677623 865.134448195 563 980 c 0
 563 981 563 981 563 983 c 0
 563 1079.10653916 581.478389376 1239 486 1239 c 0
 436.666666667 1239 412 1211.66666667 412 1157 c 2
 412 1056 l 1
 64 1056 l 1
 63.3333333333 1067.33333333 63 1083.66666667 63 1105 c 0
 63 1402.54278657 198.184426651 1518 504 1518 c 0
 743.858361572 1518 924 1387.23993912 924 1143 c 2
 924 0 l 1
 568 0 l 1
 568 156 l 1
 545.581614327 73.7992525308 448.073939163 -18 345 -18 c 0
562 774 m 1
 462.882004008 734.137327699 406 687.237826093 406 570 c 2
 406 395 l 2
 406 306.333333333 432.666666667 262 486 262 c 0
 543.766063976 262 562 321.708075853 562 379 c 2
 562 774 l 1
225 1553 m 1
 225 1776 l 1
 700 1994 l 1
 700 1647 l 1
 225 1553 l 1
EndSplineSet
EndChar

StartChar: acircumflex
Encoding: 226 226 66
Width: 1004
VWidth: 0
Flags: HW
LayerCount: 2
Fore
SplineSet
345 -18 m 0
 95.0181250705 -18 41 173.80155275 41 430 c 0
 41 838.644536466 227.471677623 865.134448195 563 980 c 0
 563 981 563 981 563 983 c 0
 563 1079.10653916 581.478389376 1239 486 1239 c 0
 436.666666667 1239 412 1211.66666667 412 1157 c 2
 412 1056 l 1
 64 1056 l 1
 63.3333333333 1067.33333333 63 1083.66666667 63 1105 c 0
 63 1402.54278657 198.184426651 1518 504 1518 c 0
 743.858361572 1518 924 1387.23993912 924 1143 c 2
 924 0 l 1
 568 0 l 1
 568 156 l 1
 545.581614327 73.7992525308 448.073939163 -18 345 -18 c 0
562 774 m 1
 462.882004008 734.137327699 406 687.237826093 406 570 c 2
 406 395 l 2
 406 306.333333333 432.666666667 262 486 262 c 0
 543.766063976 262 562 321.708075853 562 379 c 2
 562 774 l 1
693 1994 m 1
 934 1591 l 1
 575 1591 l 1
 489 1876 l 1
 403 1591 l 1
 44 1591 l 1
 285 1994 l 1
 693 1994 l 1
EndSplineSet
EndChar

StartChar: acute
Encoding: 180 180 67
Width: 650
VWidth: 0
Flags: HW
LayerCount: 2
Fore
SplineSet
41 1553 m 1
 41 1776 l 1
 516 1994 l 1
 516 1647 l 1
 41 1553 l 1
EndSplineSet
EndChar

StartChar: adieresis
Encoding: 228 228 68
Width: 1004
VWidth: 0
Flags: HW
LayerCount: 2
Fore
SplineSet
345 -18 m 0
 95.0181250705 -18 41 173.80155275 41 430 c 0
 41 838.644536466 227.471677623 865.134448195 563 980 c 0
 563 981 563 981 563 983 c 0
 563 1079.10653916 581.478389376 1239 486 1239 c 0
 436.666666667 1239 412 1211.66666667 412 1157 c 2
 412 1056 l 1
 64 1056 l 1
 63.3333333333 1067.33333333 63 1083.66666667 63 1105 c 0
 63 1402.54278657 198.184426651 1518 504 1518 c 0
 743.858361572 1518 924 1387.23993912 924 1143 c 2
 924 0 l 1
 568 0 l 1
 568 156 l 1
 545.581614327 73.7992525308 448.073939163 -18 345 -18 c 0
562 774 m 1
 462.882004008 734.137327699 406 687.237826093 406 570 c 2
 406 395 l 2
 406 306.333333333 432.666666667 262 486 262 c 0
 543.766063976 262 562 321.708075853 562 379 c 2
 562 774 l 1
68 1591 m 1
 68 1889 l 1
 426 1889 l 1
 426 1591 l 1
 68 1591 l 1
552 1591 m 1
 552 1889 l 1
 910 1889 l 1
 910 1591 l 1
 552 1591 l 1
EndSplineSet
EndChar

StartChar: ae
Encoding: 230 230 69
Width: 1500
VWidth: 0
Flags: HW
LayerCount: 2
Fore
SplineSet
1444 494 m 2
 1444 172.21652752 1356.34227208 -18 1034 -18 c 0
 894.004067834 -18 786.507565579 53.4823469816 746 148 c 1
 700.238651765 50.7571350001 595.508662377 -18 447 -18 c 0
 180.294759681 -18 36 154.450210322 36 430 c 0
 36 839.07804166 222.402477907 865.110758202 558 980 c 0
 558 981 558 981 558 983 c 0
 558 1079.10653916 576.478389376 1239 481 1239 c 0
 431.666666667 1239 407 1211.66666667 407 1157 c 2
 407 1056 l 1
 59 1056 l 1
 58.3333333333 1067.33333333 58 1083.66666667 58 1105 c 0
 58 1402.54278657 193.184426651 1518 499 1518 c 0
 608.333333333 1518 690.333333333 1477.33333333 745 1396 c 1
 798.333333333 1477.33333333 887.333333333 1518 1012 1518 c 0
 1300 1518 1444 1376 1444 1092 c 2
 1444 983 l 2
 1444 847.666666667 1442.66666667 754.666666667 1440 704 c 1
 919 704 l 1
 919 494 l 2
 919 338 948 260 1006 260 c 0
 1092.39244313 260 1090 394.220781 1090 483 c 0
 1090 541.666666667 1089.33333333 573.666666667 1088 579 c 1
 1444 579 l 1
 1444 494 l 2
557 774 m 1
 457.882004008 734.137327699 401 687.237826093 401 570 c 2
 401 395 l 2
 401 306.333333333 427.666666667 262 481 262 c 0
 538.766063976 262 557 321.708075853 557 379 c 2
 557 774 l 1
1008 1249 m 0
 918.952552527 1249 919 1166.60936962 919 1052 c 2
 919 931 l 1
 1088 931 l 1
 1088 1087 l 2
 1088 1195 1061.33333333 1249 1008 1249 c 0
EndSplineSet
EndChar

StartChar: agrave
Encoding: 224 224 70
Width: 1004
VWidth: 0
Flags: HW
LayerCount: 2
Fore
SplineSet
345 -18 m 0
 95.0181250705 -18 41 173.80155275 41 430 c 0
 41 838.644536466 227.471677623 865.134448195 563 980 c 0
 563 981 563 981 563 983 c 0
 563 1079.10653916 581.478389376 1239 486 1239 c 0
 436.666666667 1239 412 1211.66666667 412 1157 c 2
 412 1056 l 1
 64 1056 l 1
 63.3333333333 1067.33333333 63 1083.66666667 63 1105 c 0
 63 1402.54278657 198.184426651 1518 504 1518 c 0
 743.858361572 1518 924 1387.23993912 924 1143 c 2
 924 0 l 1
 568 0 l 1
 568 156 l 1
 545.581614327 73.7992525308 448.073939163 -18 345 -18 c 0
562 774 m 1
 462.882004008 734.137327699 406 687.237826093 406 570 c 2
 406 395 l 2
 406 306.333333333 432.666666667 262 486 262 c 0
 543.766063976 262 562 321.708075853 562 379 c 2
 562 774 l 1
710 1553 m 1
 235 1647 l 1
 235 1994 l 1
 710 1776 l 1
 710 1553 l 1
EndSplineSet
EndChar

StartChar: ampersand
Encoding: 38 38 71
Width: 1010
VWidth: 0
Flags: HW
LayerCount: 2
Fore
SplineSet
351 -21 m 0
 132.00849949 -21 30 158.434972878 30 386 c 0
 30 660.609030115 109.090263446 804.24998947 268 921 c 1
 222.828649084 1010.2922053 168 1143.28305729 168 1262 c 0
 168 1464.05941105 316.702209155 1582 516 1582 c 0
 712.46463823 1582 861 1471.94308051 861 1273 c 0
 861 1133 782.666666667 1000.33333333 626 875 c 1
 689 726 l 1
 728.333333333 827.333333333 785.666666667 905.666666667 861 961 c 1
 1000 744 l 1
 922 682 856.333333333 578 803 432 c 1
 982 0 l 1
 642 0 l 1
 605 97 l 1
 552.670995738 31.8794613624 461.014642629 -21 351 -21 c 0
336 413 m 0
 336 341.098186548 335.684992053 235 407 235 c 0
 464.460153069 235 496.76609176 289.06436704 508 334 c 1
 386 625 l 1
 374 606 l 1
 349.685306652 572.333501519 336 488.460507687 336 423 c 0
 336 420 336 420 336 413 c 0
546 1336 m 0
 512.290370784 1336 492 1306.80410292 492 1273 c 0
 492 1237 506.333333333 1182.66666667 535 1110 c 1
 552 1128 l 2
 577.152741077 1154.55011558 605 1219.02009154 605 1273 c 0
 605 1315 585.333333333 1336 546 1336 c 0
EndSplineSet
EndChar

StartChar: approxequal
Encoding: 8776 8776 72
Width: 1015
VWidth: 0
Flags: HW
LayerCount: 2
Fore
SplineSet
642 776 m 0
 517.323681597 776 472.582708773 886 360 886 c 0
 330.666666667 886 304.666666667 859.666666667 282 807 c 1
 40 923 l 1
 120.666666667 1122.33333333 230.666666667 1222 370 1222 c 0
 477.659586457 1222 550.989559609 1114 653 1114 c 0
 682.333333333 1114 708.666666667 1140.33333333 732 1193 c 1
 974 1077 l 1
 892 876.333333333 781.333333333 776 642 776 c 0
EndSplineSet
EndChar

StartChar: aring
Encoding: 229 229 73
Width: 1004
VWidth: 0
Flags: HW
LayerCount: 2
Fore
SplineSet
345 -18 m 0
 95.0181250705 -18 41 173.80155275 41 430 c 0
 41 838.644536466 227.471677623 865.134448195 563 980 c 0
 563 981 563 981 563 983 c 0
 563 1079.10653916 581.478389376 1239 486 1239 c 0
 436.666666667 1239 412 1211.66666667 412 1157 c 2
 412 1056 l 1
 64 1056 l 1
 63.3333333333 1067.33333333 63 1083.66666667 63 1105 c 0
 63 1402.54278657 198.184426651 1518 504 1518 c 0
 743.858361572 1518 924 1387.23993912 924 1143 c 2
 924 0 l 1
 568 0 l 1
 568 156 l 1
 545.581614327 73.7992525308 448.073939163 -18 345 -18 c 0
562 774 m 1
 462.882004008 734.137327699 406 687.237826093 406 570 c 2
 406 395 l 2
 406 306.333333333 432.666666667 262 486 262 c 0
 543.766063976 262 562 321.708075853 562 379 c 2
 562 774 l 1
505 2135 m 0
 416.071138466 2135 362 2064.56844656 362 1978 c 0
 362 1891.44436569 416.083271137 1821 505 1821 c 0
 594.011877048 1821 646 1891.4088349 646 1978 c 0
 646 2064.57825469 594.000387451 2135 505 2135 c 0
504 1640 m 0
 290.260400346 1640 150 1766.59187469 150 1978 c 0
 150 2189.39483433 290.280489117 2316 504 2316 c 0
 718.060397293 2316 856.823229913 2189.15226712 857.5 1978 c 0
 858.177832904 1766.51613404 717.6101904 1640 504 1640 c 0
EndSplineSet
EndChar

StartChar: asciicircum
Encoding: 94 94 74
Width: 970
VWidth: 0
Flags: HW
LayerCount: 2
Fore
SplineSet
689 1355 m 1
 930 432 l 1
 571 432 l 1
 485 1027 l 1
 399 432 l 1
 40 432 l 1
 281 1355 l 1
 689 1355 l 1
EndSplineSet
EndChar

StartChar: asciitilde
Encoding: 126 126 75
Width: 959
VWidth: 0
Flags: HW
LayerCount: 2
Fore
SplineSet
614 776 m 0
 489.323681597 776 444.582708773 886 332 886 c 0
 302.666666667 886 276.666666667 859.666666667 254 807 c 1
 12 923 l 1
 92.6666666667 1122.33333333 202.666666667 1222 342 1222 c 0
 449.659586457 1222 522.989559609 1114 625 1114 c 0
 654.333333333 1114 680.666666667 1140.33333333 704 1193 c 1
 946 1077 l 1
 864 876.333333333 753.333333333 776 614 776 c 0
EndSplineSet
EndChar

StartChar: asterisk
Encoding: 42 42 76
Width: 946
VWidth: 0
Flags: HW
LayerCount: 2
Fore
SplineSet
162 1480 m 1
 400 1301 l 1
 357 1593 l 1
 589 1593 l 1
 554 1307 l 1
 784 1480 l 1
 900 1280 l 1
 625 1171 l 1
 900 1054 l 1
 784 854 l 1
 553 1036 l 1
 589 741 l 1
 357 741 l 1
 401 1043 l 1
 162 854 l 1
 46 1054 l 1
 320 1171 l 1
 46 1280 l 1
 162 1480 l 1
EndSplineSet
EndChar

StartChar: at
Encoding: 64 64 77
Width: 1842
VWidth: 0
Flags: HW
LayerCount: 2
Fore
SplineSet
990 972 m 1
 838.021596561 972 834 869.423139209 834 718 c 0
 834 644.209235823 850.757637703 570 914 570 c 0
 971.766063976 570 990 629.708075853 990 687 c 2
 990 972 l 1
370 723 m 0
 370 350.706521461 518.871500149 206 887 206 c 0
 961 206 1053 212 1163 224 c 1
 1207 -37 l 1
 1082.33333333 -55 974 -64 882 -64 c 0
 332.278399754 -64 53 186.527829147 53 726 c 0
 53 1377.35345965 373.939846038 1630 1024 1630 c 0
 1507.69928157 1630 1793 1342.76524348 1793 867 c 0
 1793 535.197969801 1681.21393334 268 1377 268 c 0
 1172.82624647 268 1063.89806832 337.000776059 1016 494 c 1
 976 382 890.666666667 326 760 326 c 0
 564.916875595 326 499 512.042399346 499 718 c 0
 499 978.313506727 571.286860117 1209 798 1209 c 0
 868 1209 939 1177.33333333 1011 1114 c 1
 1051 1226 l 1
 1312 1226 l 1
 1312 621 l 2
 1312 562.969211921 1341.56229377 497 1393 497 c 0
 1486.69730748 497 1507 762.967679952 1507 888 c 0
 1507 1193.05211918 1337.69072031 1365 1027 1365 c 0
 562.359914001 1365 370 1191.08959571 370 723 c 0
EndSplineSet
EndChar

StartChar: atilde
Encoding: 227 227 78
Width: 1004
VWidth: 0
Flags: HW
LayerCount: 2
Fore
SplineSet
345 -18 m 0
 95.0181250705 -18 41 173.80155275 41 430 c 0
 41 838.644536466 227.471677623 865.134448195 563 980 c 0
 563 981 563 981 563 983 c 0
 563 1079.10653916 581.478389376 1239 486 1239 c 0
 436.666666667 1239 412 1211.66666667 412 1157 c 2
 412 1056 l 1
 64 1056 l 1
 63.3333333333 1067.33333333 63 1083.66666667 63 1105 c 0
 63 1402.54278657 198.184426651 1518 504 1518 c 0
 743.858361572 1518 924 1387.23993912 924 1143 c 2
 924 0 l 1
 568 0 l 1
 568 156 l 1
 545.581614327 73.7992525308 448.073939163 -18 345 -18 c 0
562 774 m 1
 462.882004008 734.137327699 406 687.237826093 406 570 c 2
 406 395 l 2
 406 306.333333333 432.666666667 262 486 262 c 0
 543.766063976 262 562 321.708075853 562 379 c 2
 562 774 l 1
594 1602 m 0
 483.876295358 1602 450.757265106 1712 352 1712 c 0
 330.666666667 1712 311.333333333 1682.33333333 294 1623 c 1
 72 1729 l 1
 125.725658641 1860.77991742 196.273163816 1988 352 1988 c 0
 445.558023557 1988 505.726609408 1880 595 1880 c 0
 617 1880 636.666666667 1906.33333333 654 1959 c 1
 886 1903 l 1
 832.217334334 1756.32000273 758.696462308 1602 594 1602 c 0
EndSplineSet
EndChar

StartChar: b
Encoding: 98 98 79
Width: 1044
VWidth: 0
Flags: HW
LayerCount: 2
Fore
SplineSet
979 391 m 2
 979 159.806120441 886.987752579 -18 663 -18 c 0
 566.333333333 -18 496 41.3333333333 452 160 c 1
 452 0 l 1
 84 0 l 1
 84 1769 l 1
 452 1769 l 1
 452 1427 l 1
 512 1488.33333333 578.666666667 1519 652 1519 c 0
 896.459574479 1519 979 1360.08706218 979 1114 c 2
 979 391 l 2
540 1239 m 0
 468.055383228 1239 452 1175.20641741 452 1085 c 2
 452 457 l 2
 452 348.82910265 459.221301032 263 542 263 c 0
 621.082701099 263 616 347.375035543 616 457 c 2
 616 1081 l 2
 616 1171.16953576 609.537538283 1239 540 1239 c 0
EndSplineSet
EndChar

StartChar: backslash
Encoding: 92 92 80
Width: 851
VWidth: 0
Flags: HW
LayerCount: 2
Fore
SplineSet
440 0 m 1
 29 1767 l 1
 393 1767 l 1
 803 0 l 1
 440 0 l 1
EndSplineSet
EndChar

StartChar: bar
Encoding: 124 124 81
Width: 509
VWidth: 0
Flags: HW
LayerCount: 2
Fore
SplineSet
414 -84 m 1
 95 -84 l 1
 95 1683 l 1
 414 1683 l 1
 414 -84 l 1
EndSplineSet
EndChar

StartChar: braceleft
Encoding: 123 123 82
Width: 698
VWidth: 0
Flags: HW
LayerCount: 2
Fore
SplineSet
22 936 m 1
 133.928824846 956.727560157 161 1007.18593281 161 1139.5 c 2
 161 1225 l 2
 161 1504.25331781 364.651813759 1614.58394434 652 1623 c 1
 652 1356 l 1
 579.592650689 1351.47454067 513 1342.76919395 513 1272 c 0
 513 1027.39243014 469.669999216 913.590237405 343 802 c 1
 467.226865214 692.922752495 513 582.355289869 513 338 c 1
 507.966984919 262.50477379 581.628677152 254.149121184 652 249 c 1
 652 -18 l 1
 367.120431493 -9.6562469475 161 94.5741187222 161 370 c 2
 161 444.5 l 2
 161 585.141039364 140.212778931 646.483280204 22 669 c 1
 22 936 l 1
EndSplineSet
EndChar

StartChar: braceright
Encoding: 125 125 83
Width: 699
VWidth: 0
Flags: HW
LayerCount: 2
Fore
SplineSet
47 1623 m 1
 334.462718975 1614.58058982 538 1504.33792359 538 1225 c 2
 538 1139.5 l 2
 538 1007.19886694 565.072047176 956.727398671 677 936 c 1
 677 669 l 1
 558.787450535 646.483323911 538 585.147771298 538 444.5 c 2
 538 370 l 2
 538 94.6601886521 331.753443938 -9.65994097253 47 -18 c 1
 47 249 l 1
 120.634500517 254.387890282 186 261.879695153 186 338 c 0
 186 581.606788531 229.743704517 691.140813722 356 802 c 1
 230.96184747 912.152658181 186 1026.10930529 186 1272 c 0
 186 1342.7893966 119.398596013 1351.47508775 47 1356 c 1
 47 1623 l 1
EndSplineSet
EndChar

StartChar: bracketleft
Encoding: 91 91 84
Width: 699
VWidth: 0
Flags: HW
LayerCount: 2
Fore
SplineSet
448 1312 m 1
 448 281 l 1
 650 281 l 1
 650 0 l 1
 96 0 l 1
 96 1593 l 1
 650 1593 l 1
 650 1312 l 1
 448 1312 l 1
EndSplineSet
EndChar

StartChar: bracketright
Encoding: 93 93 85
Width: 699
VWidth: 0
Flags: HW
LayerCount: 2
Fore
SplineSet
251 1312 m 1
 49 1312 l 1
 49 1593 l 1
 603 1593 l 1
 603 0 l 1
 49 0 l 1
 49 281 l 1
 251 281 l 1
 251 1312 l 1
EndSplineSet
EndChar

StartChar: breve
Encoding: 728 728 86
Width: 1015
VWidth: 0
Flags: HW
LayerCount: 2
Fore
SplineSet
503 1832 m 0
 576.076224213 1832 618 1869.0653304 618 1944 c 0
 618 1944.66666667 723.333333333 1945 934 1945 c 1
 935.333333333 1929 936 1917.33333333 936 1910 c 0
 936 1687.287587 740.732348197 1592 501 1592 c 0
 266.919519457 1592 69 1685.74161635 69 1903 c 0
 69 1917 70 1931 72 1945 c 1
 388 1944 l 1
 388 1869.05725992 429.914792678 1832 503 1832 c 0
EndSplineSet
EndChar

StartChar: brokenbar
Encoding: 166 166 87
Width: 513
VWidth: 0
Flags: HW
LayerCount: 2
Fore
SplineSet
416 -84 m 1
 97 -84 l 1
 97 676 l 1
 416 676 l 1
 416 -84 l 1
416 923 m 1
 97 923 l 1
 97 1683 l 1
 416 1683 l 1
 416 923 l 1
EndSplineSet
EndChar

StartChar: bullet
Encoding: 8226 8226 88
Width: 709
VWidth: 0
Flags: HW
LayerCount: 2
Fore
SplineSet
354 403 m 0
 154.718466891 403 41 538.555131799 41 741 c 0
 41 942.929337189 154.861747022 1079 354 1079 c 0
 553.107125673 1079 668 942.912305578 668 741 c 0
 668 539.062405822 553.123859275 403 354 403 c 0
EndSplineSet
EndChar

StartChar: c
Encoding: 99 99 89
Width: 1004
VWidth: 0
Flags: HW
LayerCount: 2
Fore
SplineSet
522 -18 m 0
 186.06817747 -18 59 157.91566287 59 492 c 2
 59 954 l 2
 59 1330.03901941 160.132525622 1518 517 1518 c 0
 765.261930373 1518 952 1379.85643747 952 1135 c 2
 952 879 l 1
 587 879 l 1
 587 1116 l 2
 587 1184.71810133 573.546100092 1239 507 1239 c 0
 448.333333333 1239 419 1197.33333333 419 1114 c 2
 419 387 l 2
 419 326.474288976 443.509802536 264 505 264 c 0
 566.934869778 264 589 321.946991633 589 389 c 2
 587 614 l 1
 952 614 l 1
 952 379 l 2
 952 130.042637441 772.128117488 -18 522 -18 c 0
EndSplineSet
EndChar

StartChar: caron
Encoding: 711 711 90
Width: 970
VWidth: 0
Flags: HW
LayerCount: 2
Fore
SplineSet
689 1591 m 1
 281 1591 l 1
 40 1994 l 1
 399 1994 l 1
 485 1709 l 1
 571 1994 l 1
 930 1994 l 1
 689 1591 l 1
EndSplineSet
EndChar

StartChar: ccedilla
Encoding: 231 231 91
Width: 1005
VWidth: 0
Flags: HW
LayerCount: 2
Fore
SplineSet
518 1518 m 0
 161.197799983 1518 60 1329.96068022 60 954 c 2
 60 492 l 2
 60 157.911808898 187.065076264 -18 523 -18 c 0
 773.146945934 -18 953 130.033615057 953 379 c 2
 953 614 l 1
 588 614 l 1
 590 389 l 2
 590 321.939370386 567.937516128 264 506 264 c 0
 444.510352671 264 420 326.47713134 420 387 c 2
 420 1114 l 2
 420 1197.33333333 449.333333333 1239 508 1239 c 0
 574.540016092 1239 588 1184.68975213 588 1116 c 2
 588 879 l 1
 953 879 l 1
 953 1135 l 2
 953 1379.83366257 766.221753793 1518 518 1518 c 0
779 -330 m 0
 779 -518.600749006 621.02958224 -631 431 -631 c 0
 363 -631 297 -617.666666667 233 -591 c 1
 233 -368 l 1
 277 -383.333333333 315.666666667 -391 349 -391 c 0
 422.076224213 -391 464 -353.934669603 464 -279 c 0
 464 -188.756004373 386.208115966 -123.537731406 304 -106 c 1
 304 0 l 1
 515 0 l 1
 515 -76 l 1
 657.505966478 -95.0756018121 779 -183.121666156 779 -330 c 0
EndSplineSet
EndChar

StartChar: cedilla
Encoding: 184 184 92
Width: 1015
VWidth: 0
Flags: HW
LayerCount: 2
Fore
SplineSet
852 -330 m 0
 852 -518.600749006 694.02958224 -631 504 -631 c 0
 436 -631 370 -617.666666667 306 -591 c 1
 306 -368 l 1
 350 -383.333333333 388.666666667 -391 422 -391 c 0
 495.076224213 -391 537 -353.934669603 537 -279 c 0
 537 -188.756004373 459.208115966 -123.537731406 377 -106 c 1
 377 0 l 1
 588 0 l 1
 588 -76 l 1
 730.505966478 -95.0756018121 852 -183.121666156 852 -330 c 0
EndSplineSet
EndChar

StartChar: cent
Encoding: 162 162 93
Width: 1014
VWidth: 0
Flags: HW
LayerCount: 2
Fore
SplineSet
953 379 m 2
 953 154.5355988 807.473905146 16.0918847975 607 -12 c 1
 607 -113 l 1
 434 -113 l 1
 434 -13 l 1
 160.728894067 17.7911105276 60 189.655432942 60 492 c 2
 60 954 l 2
 60 1294.15857652 141.918323574 1484.93714662 434 1514 c 1
 434 1607 l 1
 607 1607 l 1
 607 1511 l 1
 804.38621697 1483.34078488 953 1354.25123732 953 1135 c 2
 953 879 l 1
 588 879 l 1
 588 1116 l 2
 588 1184.71810133 574.546100092 1239 508 1239 c 0
 449.333333333 1239 420 1197.33333333 420 1114 c 2
 420 387 l 2
 420 326.474288976 444.509802536 264 506 264 c 0
 567.934869778 264 590 321.946991633 590 389 c 2
 588 614 l 1
 953 614 l 1
 953 379 l 2
EndSplineSet
EndChar

StartChar: circumflex
Encoding: 710 710 94
Width: 970
VWidth: 0
Flags: HW
LayerCount: 2
Fore
SplineSet
689 1994 m 1
 930 1591 l 1
 571 1591 l 1
 485 1876 l 1
 399 1591 l 1
 40 1591 l 1
 281 1994 l 1
 689 1994 l 1
EndSplineSet
EndChar

StartChar: colon
Encoding: 58 58 95
Width: 531
VWidth: 0
Flags: HW
LayerCount: 2
Fore
SplineSet
86 237 m 1
 86 535 l 1
 444 535 l 1
 444 237 l 1
 86 237 l 1
86 976 m 1
 86 1274 l 1
 444 1274 l 1
 444 976 l 1
 86 976 l 1
EndSplineSet
EndChar

StartChar: comma
Encoding: 44 44 96
Width: 493
VWidth: 0
Flags: HW
LayerCount: 2
Fore
SplineSet
58 1 m 1
 58 299 l 1
 432 299 l 1
 432 10 l 1
 330 -235 l 1
 119 -235 l 1
 185 1 l 1
 58 1 l 1
EndSplineSet
EndChar

StartChar: copyright
Encoding: 169 169 97
Width: 1410
VWidth: 0
Flags: HW
LayerCount: 2
Fore
SplineSet
705 1390 m 0
 416.221802899 1390 207 1152.9421477 207 862 c 0
 207 571.013634936 416.026676144 334 705 334 c 0
 993.971501548 334 1203 571.02605743 1203 862 c 0
 1203 1152.98636506 993.973323856 1390 705 1390 c 0
705 205 m 0
 331.659732985 205 48 488.665521464 48 862 c 0
 48 1235.34026702 331.665521464 1519 705 1519 c 0
 1078.34026702 1519 1362 1235.33447854 1362 862 c 0
 1362 488.659732985 1078.33447854 205 705 205 c 0
659 657 m 2
 659 627.124831317 674.747835088 592 703 592 c 0
 733.666666667 592 749 613.666666667 749 657 c 2
 749 806 l 1
 942 806 l 1
 942 643 l 2
 942 497 861 424 699 424 c 0
 560.483473917 424 469 507.268105987 469 648 c 2
 469 1049 l 2
 469 1216.7945794 537.560911962 1305 703 1305 c 0
 837.307858797 1305 938 1238.84140222 938 1105 c 2
 938 952 l 1
 749 952 l 1
 749 1053 l 2
 749 1104.33333333 733.666666667 1130 703 1130 c 0
 665.548655029 1130 659 1104.04953766 659 1066 c 2
 659 657 l 2
EndSplineSet
EndChar

StartChar: currency
Encoding: 164 164 98
Width: 1015
VWidth: 0
Flags: HW
LayerCount: 2
Fore
SplineSet
507 545 m 0
 424.333333333 545 352.333333333 562.666666667 291 598 c 1
 202 509 l 1
 53 659 l 1
 144 750 l 1
 108.666666667 815.333333333 91 886.666666667 91 964 c 0
 91 1042 108.333333333 1113.33333333 143 1178 c 1
 53 1268 l 1
 202 1418 l 1
 289 1330 l 1
 353.666666667 1366.66666667 426.333333333 1385 507 1385 c 0
 587 1385 659.666666667 1367 725 1331 c 1
 812 1418 l 1
 962 1269 l 1
 872 1179 l 1
 908 1114.33333333 926 1042.66666667 926 964 c 0
 926 885.333333333 908 813.333333333 872 748 c 1
 962 658 l 1
 812 509 l 1
 723 597 l 1
 661 562.333333333 589 545 507 545 c 0
716 966 m 0
 716 1092.37719638 635.680096085 1186 507 1186 c 0
 380.646633781 1186 299 1087.33767188 299 964 c 0
 299 839.868437486 380.15486464 741 507 741 c 0
 633.838360918 741 716 841.892609329 716 966 c 0
EndSplineSet
EndChar

StartChar: d
Encoding: 100 100 99
Width: 1036
VWidth: 0
Flags: HW
LayerCount: 2
Fore
SplineSet
371 -18 m 0
 93.8109048351 -18 64 200.556927896 64 477 c 1
 68 1153 l 1
 68 1357.20356003 171.716090919 1518 377 1518 c 0
 472.333333333 1518 544.666666667 1485 594 1419 c 1
 594 1767 l 1
 952 1767 l 1
 952 0 l 1
 594 0 l 1
 594 159 l 1
 553.537998744 51.4562598199 496.215527814 -18 371 -18 c 0
510 1239 m 0
 432.905997458 1239 422 1159.55883945 422 1083 c 2
 422 452 l 2
 422 326.666666667 450.666666667 264 508 264 c 0
 605.553809514 264 594 422.441413857 594 520 c 2
 594 1083 l 2
 594 1152.61254715 580.393245946 1239 510 1239 c 0
EndSplineSet
EndChar

StartChar: dagger
Encoding: 8224 8224 100
Width: 822
VWidth: 0
Flags: HW
LayerCount: 2
Fore
SplineSet
594 0 m 1
 230 0 l 1
 230 996 l 1
 47 996 l 1
 47 1292 l 1
 230 1292 l 1
 230 1592 l 1
 594 1592 l 1
 594 1292 l 1
 774 1292 l 1
 774 996 l 1
 594 996 l 1
 594 0 l 1
EndSplineSet
EndChar

StartChar: daggerdbl
Encoding: 8225 8225 101
Width: 843
VWidth: 0
Flags: HW
LayerCount: 2
Fore
SplineSet
605 1592 m 1
 605 1236 l 1
 785 1236 l 1
 785 940 l 1
 605 940 l 1
 605 646 l 1
 785 646 l 1
 785 350 l 1
 605 350 l 1
 605 0 l 1
 241 0 l 1
 241 350 l 1
 58 350 l 1
 58 646 l 1
 241 646 l 1
 241 940 l 1
 58 940 l 1
 58 1236 l 1
 241 1236 l 1
 241 1592 l 1
 605 1592 l 1
EndSplineSet
EndChar

StartChar: degree
Encoding: 176 176 102
Width: 782
VWidth: 0
Flags: HW
LayerCount: 2
Fore
SplineSet
391 1426 m 0
 301.857851475 1426 249 1356.14600816 249 1269 c 0
 249 1182.43309341 302.041494404 1112 391 1112 c 0
 479.970317531 1112 533 1182.42023223 533 1269 c 0
 533 1355.56690659 479.958505596 1426 391 1426 c 0
390 931 m 0
 176.096421384 931 37 1057.07349886 37 1269 c 0
 37 1480.40073595 176.245811904 1607 390 1607 c 0
 603.739599654 1607 744 1480.40812531 744 1269 c 0
 744 1057.60516567 603.719510883 931 390 931 c 0
EndSplineSet
EndChar

StartChar: dieresis
Encoding: 168 168 103
Width: 976
VWidth: 0
Flags: HW
LayerCount: 2
Fore
SplineSet
67 1591 m 1
 67 1889 l 1
 425 1889 l 1
 425 1591 l 1
 67 1591 l 1
551 1591 m 1
 551 1889 l 1
 909 1889 l 1
 909 1591 l 1
 551 1591 l 1
EndSplineSet
EndChar

StartChar: divide
Encoding: 247 247 104
Width: 721
VWidth: 0
Flags: HW
LayerCount: 2
Fore
SplineSet
52 638 m 1
 52 870 l 1
 668 870 l 1
 668 638 l 1
 52 638 l 1
211 237 m 1
 211 535 l 1
 509 535 l 1
 509 237 l 1
 211 237 l 1
211 976 m 1
 211 1274 l 1
 509 1274 l 1
 509 976 l 1
 211 976 l 1
EndSplineSet
EndChar

StartChar: dollar
Encoding: 36 36 105
Width: 982
VWidth: 0
Flags: HW
LayerCount: 2
Fore
SplineSet
929 413 m 0
 929 192.649606922 778.480403442 57.4092499535 575 34 c 1
 575 -113 l 1
 402 -113 l 1
 402 36 l 1
 151.047158494 65.3668218783 52 208.482920323 52 488 c 2
 52 543 l 1
 400 543 l 1
 400 501 l 2
 400 398.333333333 431.333333333 347 494 347 c 0
 550.459571516 347 578 396.859449683 578 456 c 0
 578 479.333333333 557.333333333 514 516 560 c 1
 228 849 l 2
 122.666666667 954.333333333 70 1068.66666667 70 1192 c 0
 70 1392.47364766 221.242715264 1526.10165563 402 1558 c 1
 402 1679 l 1
 575 1679 l 1
 575 1561 l 1
 802.619267151 1532.2047915 924 1366.09854687 924 1105 c 1
 567 1105 l 1
 565 1190 l 1
 562.326117715 1227.43435198 523.343441238 1259 483 1259 c 0
 437.251614522 1259 399 1227.60271597 399 1182 c 0
 399 1148.66666667 432 1099.33333333 498 1034 c 2
 778 758 l 2
 859.760934592 677.343942902 929 559.279898522 929 413 c 0
EndSplineSet
EndChar

StartChar: dotaccent
Encoding: 729 729 106
Width: 491
VWidth: 0
Flags: HW
LayerCount: 2
Fore
SplineSet
67 1592 m 1
 67 1890 l 1
 425 1890 l 1
 425 1592 l 1
 67 1592 l 1
EndSplineSet
EndChar

StartChar: dotlessi
Encoding: 305 305 107
Width: 526
VWidth: 0
Flags: HW
LayerCount: 2
Fore
SplineSet
84 0 m 1
 84 1500 l 1
 442 1500 l 1
 442 0 l 1
 84 0 l 1
EndSplineSet
EndChar

StartChar: e
Encoding: 101 101 108
Width: 1000
VWidth: 0
Flags: HW
LayerCount: 2
Fore
SplineSet
944 494 m 2
 944 156.698523562 834.19412604 -18 494 -18 c 0
 173.235005052 -18 62 170.048886662 62 489 c 2
 62 1092 l 2
 62 1370.69324078 231.827819015 1518 512 1518 c 0
 800 1518 944 1376 944 1092 c 2
 944 983 l 2
 944 847.666666667 942.666666667 754.666666667 940 704 c 1
 420 704 l 1
 420 494 l 2
 420 481.923052404 419 439.369844814 419 427 c 0
 419 346.371918509 425.573518707 260 506 260 c 0
 591.611777606 260 590 395.268187157 590 483 c 0
 590 541.666666667 589.333333333 573.666666667 588 579 c 1
 944 579 l 1
 944 494 l 2
418 1057 m 0
 418 1033.4356763 420 954.541644887 420 931 c 1
 588 931 l 1
 588 1087 l 2
 588 1195 561.333333333 1249 508 1249 c 0
 421.139242003 1249 418 1145.8303627 418 1057 c 0
EndSplineSet
EndChar

StartChar: eacute
Encoding: 233 233 109
Width: 1000
VWidth: 0
Flags: HW
LayerCount: 2
Fore
SplineSet
944 494 m 2
 944 156.698523562 834.19412604 -18 494 -18 c 0
 173.235005052 -18 62 170.048886662 62 489 c 2
 62 1092 l 2
 62 1370.69324078 231.827819015 1518 512 1518 c 0
 800 1518 944 1376 944 1092 c 2
 944 983 l 2
 944 847.666666667 942.666666667 754.666666667 940 704 c 1
 420 704 l 1
 420 494 l 2
 420 481.923052404 419 439.369844814 419 427 c 0
 419 346.371918509 425.573518707 260 506 260 c 0
 591.611777606 260 590 395.268187157 590 483 c 0
 590 541.666666667 589.333333333 573.666666667 588 579 c 1
 944 579 l 1
 944 494 l 2
418 1057 m 0
 418 1033.4356763 420 954.541644887 420 931 c 1
 588 931 l 1
 588 1087 l 2
 588 1195 561.333333333 1249 508 1249 c 0
 421.139242003 1249 418 1145.8303627 418 1057 c 0
238 1553 m 1
 238 1776 l 1
 713 1994 l 1
 713 1647 l 1
 238 1553 l 1
EndSplineSet
EndChar

StartChar: ecircumflex
Encoding: 234 234 110
Width: 1000
VWidth: 0
Flags: HW
LayerCount: 2
Fore
SplineSet
944 494 m 2
 944 156.698523562 834.19412604 -18 494 -18 c 0
 173.235005052 -18 62 170.048886662 62 489 c 2
 62 1092 l 2
 62 1370.69324078 231.827819015 1518 512 1518 c 0
 800 1518 944 1376 944 1092 c 2
 944 983 l 2
 944 847.666666667 942.666666667 754.666666667 940 704 c 1
 420 704 l 1
 420 494 l 2
 420 481.923052404 419 439.369844814 419 427 c 0
 419 346.371918509 425.573518707 260 506 260 c 0
 591.611777606 260 590 395.268187157 590 483 c 0
 590 541.666666667 589.333333333 573.666666667 588 579 c 1
 944 579 l 1
 944 494 l 2
418 1057 m 0
 418 1033.4356763 420 954.541644887 420 931 c 1
 588 931 l 1
 588 1087 l 2
 588 1195 561.333333333 1249 508 1249 c 0
 421.139242003 1249 418 1145.8303627 418 1057 c 0
706 1994 m 1
 947 1591 l 1
 588 1591 l 1
 502 1876 l 1
 416 1591 l 1
 57 1591 l 1
 298 1994 l 1
 706 1994 l 1
EndSplineSet
EndChar

StartChar: edieresis
Encoding: 235 235 111
Width: 1000
VWidth: 0
Flags: HW
LayerCount: 2
Fore
SplineSet
944 494 m 2
 944 156.698523562 834.19412604 -18 494 -18 c 0
 173.235005052 -18 62 170.048886662 62 489 c 2
 62 1092 l 2
 62 1370.69324078 231.827819015 1518 512 1518 c 0
 800 1518 944 1376 944 1092 c 2
 944 983 l 2
 944 847.666666667 942.666666667 754.666666667 940 704 c 1
 420 704 l 1
 420 494 l 2
 420 481.923052404 419 439.369844814 419 427 c 0
 419 346.371918509 425.573518707 260 506 260 c 0
 591.611777606 260 590 395.268187157 590 483 c 0
 590 541.666666667 589.333333333 573.666666667 588 579 c 1
 944 579 l 1
 944 494 l 2
418 1057 m 0
 418 1033.4356763 420 954.541644887 420 931 c 1
 588 931 l 1
 588 1087 l 2
 588 1195 561.333333333 1249 508 1249 c 0
 421.139242003 1249 418 1145.8303627 418 1057 c 0
81 1591 m 1
 81 1889 l 1
 439 1889 l 1
 439 1591 l 1
 81 1591 l 1
565 1591 m 1
 565 1889 l 1
 923 1889 l 1
 923 1591 l 1
 565 1591 l 1
EndSplineSet
EndChar

StartChar: egrave
Encoding: 232 232 112
Width: 1000
VWidth: 0
Flags: HW
LayerCount: 2
Fore
SplineSet
944 494 m 2
 944 156.698523562 834.19412604 -18 494 -18 c 0
 173.235005052 -18 62 170.048886662 62 489 c 2
 62 1092 l 2
 62 1370.69324078 231.827819015 1518 512 1518 c 0
 800 1518 944 1376 944 1092 c 2
 944 983 l 2
 944 847.666666667 942.666666667 754.666666667 940 704 c 1
 420 704 l 1
 420 494 l 2
 420 481.923052404 419 439.369844814 419 427 c 0
 419 346.371918509 425.573518707 260 506 260 c 0
 591.611777606 260 590 395.268187157 590 483 c 0
 590 541.666666667 589.333333333 573.666666667 588 579 c 1
 944 579 l 1
 944 494 l 2
418 1057 m 0
 418 1033.4356763 420 954.541644887 420 931 c 1
 588 931 l 1
 588 1087 l 2
 588 1195 561.333333333 1249 508 1249 c 0
 421.139242003 1249 418 1145.8303627 418 1057 c 0
723 1553 m 1
 248 1647 l 1
 248 1994 l 1
 723 1776 l 1
 723 1553 l 1
EndSplineSet
EndChar

StartChar: eight
Encoding: 56 56 113
Width: 1056
VWidth: 0
Flags: HW
LayerCount: 2
Fore
SplineSet
623 592 m 0
 623 686 619 815 528 815 c 0
 437 815 426 674 433 575 c 0
 433 565 433 564 433 560 c 0
 433 550 432 514 432 503 c 0
 432 387 464 329 528 329 c 0
 592 329 624 387 624 503 c 0
 624 525 623 571 623 592 c 0
68 1335 m 0
 68 1647 228 1782 528 1782 c 0
 836 1782 988 1644 988 1321 c 0
 988 1152 958 1034 839 984 c 1
 976 918 990 776 990 569 c 0
 990 550 990 535 989 525 c 0
 989 178 859 -19 528 -19 c 0
 197 -19 67 178 67 525 c 2
 67 642 l 2
 67 820 102 927 217 986 c 1
 109 1030 68 1135 68 1289 c 0
 68 1302 68 1302 68 1335 c 0
528 1458 m 0
 456 1458 435 1377 435 1302 c 0
 435 1190 466 1134 528 1134 c 0
 590 1134 621 1190 621 1302 c 0
 621 1377 600 1458 528 1458 c 0
EndSplineSet
EndChar

StartChar: ellipsis
Encoding: 8230 8230 114
Width: 1457
VWidth: 0
Flags: HW
LayerCount: 2
Fore
SplineSet
59 1 m 1
 59 299 l 1
 417 299 l 1
 417 1 l 1
 59 1 l 1
550 1 m 1
 550 299 l 1
 908 299 l 1
 908 1 l 1
 550 1 l 1
1041 1 m 1
 1041 299 l 1
 1399 299 l 1
 1399 1 l 1
 1041 1 l 1
EndSplineSet
EndChar

StartChar: emdash
Encoding: 8212 8212 115
Width: 1162
VWidth: 0
Flags: HW
LayerCount: 2
Fore
SplineSet
65 741 m 1
 1097 741 l 1
 1097 509 l 1
 65 509 l 1
 65 741 l 1
EndSplineSet
EndChar

StartChar: endash
Encoding: 8211 8211 116
Width: 646
VWidth: 0
Flags: HW
LayerCount: 2
Fore
SplineSet
65 509 m 1
 65 741 l 1
 581 741 l 1
 581 509 l 1
 65 509 l 1
EndSplineSet
EndChar

StartChar: equal
Encoding: 61 61 117
Width: 690
VWidth: 0
Flags: HW
LayerCount: 2
Fore
SplineSet
88 509 m 1
 88 741 l 1
 602 741 l 1
 602 509 l 1
 88 509 l 1
88 892 m 1
 88 1116 l 1
 602 1116 l 1
 602 892 l 1
 88 892 l 1
EndSplineSet
EndChar

StartChar: exclam
Encoding: 33 33 118
Width: 508
VWidth: 0
Flags: HW
LayerCount: 2
Fore
SplineSet
75 1593 m 1
 433 1593 l 1
 363 439 l 1
 145 439 l 1
 75 1593 l 1
75 1 m 1
 75 299 l 1
 433 299 l 1
 433 1 l 1
 75 1 l 1
EndSplineSet
EndChar

StartChar: exclamdown
Encoding: 161 161 119
Width: 506
VWidth: 0
Flags: HW
LayerCount: 2
Fore
SplineSet
74 1 m 1
 144 1155 l 1
 362 1155 l 1
 432 1 l 1
 74 1 l 1
74 1593 m 1
 432 1593 l 1
 432 1295 l 1
 74 1295 l 1
 74 1593 l 1
EndSplineSet
EndChar

StartChar: f
Encoding: 102 102 120
Width: 574
VWidth: 0
Flags: HW
LayerCount: 2
Fore
SplineSet
500 1533 m 0
 457.517706352 1533 455 1500.22627812 455 1453 c 2
 455 1434 l 1
 533 1434 l 1
 533 1157 l 1
 462 1157 l 1
 462 0 l 1
 107 0 l 1
 107 1161 l 1
 42 1161 l 1
 42 1192.33333333 43.3333333333 1283.33333333 46 1434 c 1
 107 1434 l 1
 107 1536 l 2
 107 1697.33333333 187.666666667 1778 349 1778 c 0
 425.666666667 1778 487 1768.33333333 533 1749 c 1
 533 1528 l 1
 518.333333333 1531.33333333 507.333333333 1533 500 1533 c 0
EndSplineSet
EndChar

StartChar: five
Encoding: 53 53 121
Width: 1039
VWidth: 0
Flags: HW
LayerCount: 2
Fore
SplineSet
987 668 m 0
 987 245 927 -25 516 -25 c 0
 245 -25 56 107 56 384 c 2
 56 646 l 1
 422 646 l 1
 422 495 l 2
 422 400 429 304 516 304 c 0
 592 304 609 361 609 441 c 2
 609 787 l 2
 609 873 601 970 518 970 c 0
 451 970 418 922 418 825 c 1
 95 825 l 1
 95 1741 l 1
 934 1741 l 1
 934 1411 l 1
 429 1411 l 1
 430 1213 l 1
 466 1247 524 1264 604 1264 c 0
 924 1264 987 999 987 668 c 0
EndSplineSet
EndChar

StartChar: florin
Encoding: 402 402 122
Width: 623
VWidth: 0
Flags: HW
LayerCount: 2
Fore
SplineSet
536 1362 m 0
 487.266014022 1362 481 1332.3119833 481 1281 c 2
 481 1263 l 1
 579 1263 l 1
 579 986 l 1
 488 986 l 1
 488 195 l 2
 488 33.6666666667 407.333333333 -47 246 -47 c 0
 161.333333333 -47 93.3333333333 -37.3333333333 42 -18 c 1
 42 203 l 1
 60.6666666667 199.666666667 75 198 85 198 c 0
 133.733985978 198 140 227.688016704 140 279 c 2
 140 297 l 1
 133 986 l 1
 48 986 l 1
 48 1263 l 1
 133 1263 l 1
 133 1365 l 2
 133 1526.33333333 213.666666667 1607 375 1607 c 0
 459.666666667 1607 527.666666667 1597.33333333 579 1578 c 1
 579 1357 l 1
 560.333333333 1360.33333333 546 1362 536 1362 c 0
EndSplineSet
EndChar

StartChar: four
Encoding: 52 52 123
Width: 1066
VWidth: 0
Flags: HW
LayerCount: 2
Fore
SplineSet
1009 592 m 1
 1009 278 l 1
 939 278 l 1
 939 -1 l 1
 570 -1 l 1
 570 278 l 1
 28 278 l 1
 28 553 l 1
 381 1640 l 1
 939 1640 l 1
 939 592 l 1
 1009 592 l 1
372 592 m 1
 570 592 l 1
 570 1338 l 1
 372 592 l 1
EndSplineSet
EndChar

StartChar: fraction
Encoding: 8260 8260 124
Width: 710
VWidth: 0
Flags: HW
LayerCount: 2
Fore
SplineSet
272 0 m 1
 -11 0 l 1
 479 1767 l 1
 763 1767 l 1
 272 0 l 1
EndSplineSet
EndChar

StartChar: g
Encoding: 103 103 125
Width: 1040
VWidth: 0
Flags: HW
LayerCount: 2
Fore
SplineSet
958 254 m 2
 958 -85.9108771988 806.980613552 -220 470 -220 c 0
 262.004628507 -220 157.492549813 -193.910458178 40 -96 c 1
 161 111 l 1
 248.333333333 59 335.666666667 33 423 33 c 0
 537.916605741 33 593 112.609481926 593 231 c 2
 593 314 l 1
 563.666666667 211.333333333 487.333333333 160 364 160 c 0
 148.950778851 160 65 328.402095752 65 543 c 2
 65 1106 l 2
 65 1348.34892578 129.468055051 1518 364 1518 c 0
 496.053901028 1518 568.357896076 1443.94297632 593 1331 c 1
 593 1500 l 1
 958 1500 l 1
 958 254 l 2
593 1116 m 2
 593 1170.96878328 560.364249181 1243 505 1243 c 0
 436.127264506 1243 427 1183.49330008 427 1116 c 2
 427 582 l 2
 427 509.636937151 435.41204538 430 509 430 c 0
 565 430 593 480.666666667 593 582 c 2
 593 1116 l 2
EndSplineSet
EndChar

StartChar: germandbls
Encoding: 223 223 126
Width: 1027
VWidth: 0
Flags: HW
LayerCount: 2
Fore
SplineSet
496 993 m 1
 566.221129745 993 580 1043.6713902 580 1112 c 2
 580 1270 l 2
 580 1320.66666667 555 1346 505 1346 c 0
 455 1346 430 1320.66666667 430 1270 c 2
 430 0 l 1
 80 0 l 1
 80 1229 l 2
 80 1471.66666667 221.666666667 1593 505 1593 c 0
 763.716522405 1593 931 1489.84605752 931 1229 c 2
 931 1162 l 2
 931 1021.61597149 888.598579077 921.709219057 781 887 c 1
 949.828967784 846.802626718 991 684.298808945 991 476 c 0
 991 177.105631011 903.754970311 0 604 0 c 2
 500 0 l 1
 500 281 l 1
 595.333333333 281 643 320.333333333 643 399 c 2
 643 598 l 2
 643 705.634291711 605.177839973 745 496 745 c 1
 496 993 l 1
EndSplineSet
EndChar

StartChar: grave
Encoding: 96 96 127
Width: 650
VWidth: 0
Flags: HW
LayerCount: 2
Fore
SplineSet
526 1553 m 1
 51 1647 l 1
 51 1994 l 1
 526 1776 l 1
 526 1553 l 1
EndSplineSet
EndChar

StartChar: greater
Encoding: 62 62 128
Width: 711
VWidth: 0
Flags: HW
LayerCount: 2
Fore
SplineSet
658 545 m 1
 88 200 l 1
 88 558 l 1
 430 749 l 1
 88 941 l 1
 88 1300 l 1
 658 959 l 1
 658 545 l 1
EndSplineSet
EndChar

StartChar: greaterequal
Encoding: 8805 8805 129
Width: 707
VWidth: 0
Flags: HW
LayerCount: 2
Fore
SplineSet
650 637 m 1
 80 292 l 1
 80 650 l 1
 422 841 l 1
 80 1033 l 1
 80 1392 l 1
 650 1051 l 1
 650 637 l 1
107 0 m 1
 107 232 l 1
 623 232 l 1
 623 0 l 1
 107 0 l 1
EndSplineSet
EndChar

StartChar: guillemotleft
Encoding: 171 171 130
Width: 1218
VWidth: 0
Flags: HW
LayerCount: 2
Fore
SplineSet
624 545 m 1
 624 959 l 1
 1134 1230 l 1
 1134 871 l 1
 822 749 l 1
 1134 618 l 1
 1134 260 l 1
 624 545 l 1
46 545 m 1
 46 959 l 1
 556 1230 l 1
 556 871 l 1
 244 749 l 1
 556 618 l 1
 556 260 l 1
 46 545 l 1
EndSplineSet
EndChar

StartChar: guillemotright
Encoding: 187 187 131
Width: 1216
VWidth: 0
Flags: HW
LayerCount: 2
Fore
SplineSet
593 545 m 1
 83 260 l 1
 83 618 l 1
 395 749 l 1
 83 871 l 1
 83 1230 l 1
 593 959 l 1
 593 545 l 1
1170 545 m 1
 660 260 l 1
 660 618 l 1
 972 749 l 1
 660 871 l 1
 660 1230 l 1
 1170 959 l 1
 1170 545 l 1
EndSplineSet
EndChar

StartChar: guilsinglleft
Encoding: 8249 8249 132
Width: 640
VWidth: 0
Flags: HW
LayerCount: 2
Fore
SplineSet
46 545 m 1
 46 959 l 1
 556 1230 l 1
 556 871 l 1
 244 749 l 1
 556 618 l 1
 556 260 l 1
 46 545 l 1
EndSplineSet
EndChar

StartChar: guilsinglright
Encoding: 8250 8250 133
Width: 639
VWidth: 0
Flags: HW
LayerCount: 2
Fore
SplineSet
593 545 m 1
 83 260 l 1
 83 618 l 1
 395 749 l 1
 83 871 l 1
 83 1230 l 1
 593 959 l 1
 593 545 l 1
EndSplineSet
EndChar

StartChar: h
Encoding: 104 104 134
Width: 1059
VWidth: 0
Flags: HW
LayerCount: 2
Fore
SplineSet
532 1243 m 0
 482.592678699 1243 452 1193.8196574 452 1135 c 2
 452 0 l 1
 84 0 l 1
 84 1767 l 1
 452 1767 l 1
 452 1351 l 1
 490.666666667 1463 563.666666667 1519 671 1519 c 0
 878.702974477 1519 979 1374.86582857 979 1155 c 2
 979 0 l 1
 620 0 l 1
 620 1034 l 2
 620 1042.50866867 621 1075.95183192 621 1085 c 0
 621 1190.33333333 591.333333333 1243 532 1243 c 0
EndSplineSet
EndChar

StartChar: hungarumlaut
Encoding: 733 733 135
Width: 1300
VWidth: 0
Flags: HW
LayerCount: 2
Fore
SplineSet
423 1236 m 1
 257 1294 l 1
 441 1773 l 1
 671 1665 l 1
 423 1236 l 1
725 1236 m 1
 559 1294 l 1
 780 1773 l 1
 1014 1665 l 1
 725 1236 l 1
EndSplineSet
EndChar

StartChar: hyphen
Encoding: 45 45 136
Width: 646
VWidth: 0
Flags: HW
LayerCount: 2
Fore
SplineSet
65 509 m 1
 65 741 l 1
 581 741 l 1
 581 509 l 1
 65 509 l 1
EndSplineSet
EndChar

StartChar: i
Encoding: 105 105 137
Width: 526
VWidth: 0
Flags: HW
LayerCount: 2
Fore
SplineSet
84 0 m 1
 84 1500 l 1
 442 1500 l 1
 442 0 l 1
 84 0 l 1
84 1567 m 1
 84 1769 l 1
 442 1769 l 1
 442 1567 l 1
 84 1567 l 1
EndSplineSet
EndChar

StartChar: iacute
Encoding: 237 237 138
Width: 526
VWidth: 0
Flags: HW
LayerCount: 2
Fore
SplineSet
84 0 m 1
 84 1500 l 1
 442 1500 l 1
 442 0 l 1
 84 0 l 1
-1 1553 m 1
 -1 1776 l 1
 474 1994 l 1
 474 1647 l 1
 -1 1553 l 1
EndSplineSet
EndChar

StartChar: icircumflex
Encoding: 238 238 139
Width: 526
VWidth: 0
Flags: HW
LayerCount: 2
Fore
SplineSet
84 0 m 1
 84 1500 l 1
 442 1500 l 1
 442 0 l 1
 84 0 l 1
467 1994 m 1
 708 1591 l 1
 349 1591 l 1
 263 1876 l 1
 177 1591 l 1
 -182 1591 l 1
 59 1994 l 1
 467 1994 l 1
EndSplineSet
EndChar

StartChar: idieresis
Encoding: 239 239 140
Width: 526
VWidth: 0
Flags: HW
LayerCount: 2
Fore
SplineSet
84 0 m 1
 84 1500 l 1
 442 1500 l 1
 442 0 l 1
 84 0 l 1
-158 1591 m 1
 -158 1889 l 1
 200 1889 l 1
 200 1591 l 1
 -158 1591 l 1
326 1591 m 1
 326 1889 l 1
 684 1889 l 1
 684 1591 l 1
 326 1591 l 1
EndSplineSet
EndChar

StartChar: igrave
Encoding: 236 236 141
Width: 526
VWidth: 0
Flags: HW
LayerCount: 2
Fore
SplineSet
84 0 m 1
 84 1500 l 1
 442 1500 l 1
 442 0 l 1
 84 0 l 1
484 1553 m 1
 9 1647 l 1
 9 1994 l 1
 484 1776 l 1
 484 1553 l 1
EndSplineSet
EndChar

StartChar: infinity
Encoding: 8734 8734 142
Width: 1181
VWidth: 0
Flags: HW
LayerCount: 2
Fore
SplineSet
53 744 m 0
 53 920.143836513 144.546254772 1028 315 1028 c 0
 409.666666667 1028 499.333333333 980.333333333 584 885 c 1
 668 989 759 1041 857 1041 c 0
 1033.4306836 1041 1127 926.591056038 1127 744 c 0
 1127 558.87748502 1035.47384594 439 857 439 c 0
 732.227232915 439 641.437526694 512.006476493 584 585 c 1
 528.33251964 522.374084595 427.395395805 452 315 452 c 0
 140.806919854 452 53 563.698721335 53 744 c 0
798 669 m 0
 861.333333333 669 893 692.666666667 893 740 c 0
 893 787.333333333 861.333333333 811 798 811 c 0
 747.333333333 811 696.666666667 787.333333333 646 740 c 1
 693.333333333 692.666666667 744 669 798 669 c 0
522 740 m 1
 474 786.666666667 426 810 378 810 c 0
 318.666666667 810 289 786.666666667 289 740 c 0
 289 692.666666667 318.666666667 669 378 669 c 0
 424.666666667 669 472.666666667 692.666666667 522 740 c 1
EndSplineSet
EndChar

StartChar: integral
Encoding: 8747 8747 143
Width: 605
VWidth: 0
Flags: HW
LayerCount: 2
Fore
SplineSet
529 1362 m 0
 480.266014022 1362 474 1332.3119833 474 1281 c 2
 474 195 l 2
 474 35.220392181 403.158619513 -47 239 -47 c 0
 154.333333333 -47 86.3333333333 -37.3333333333 35 -18 c 1
 35 203 l 1
 53.6666666667 199.666666667 68 198 78 198 c 0
 126.067581675 198 126 230.840243958 126 279 c 2
 126 1365 l 2
 126 1527.90514845 200.940708005 1607 368 1607 c 0
 452.666666667 1607 520.666666667 1597.33333333 572 1578 c 1
 572 1357 l 1
 553.333333333 1360.33333333 539 1362 529 1362 c 0
EndSplineSet
EndChar

StartChar: j
Encoding: 106 106 144
Width: 550
VWidth: 0
Flags: HW
LayerCount: 2
Fore
SplineSet
70 85 m 0
 107.606852655 85 113 114.843008493 113 156 c 2
 113 1500 l 1
 471 1500 l 1
 471 166 l 2
 471 -46.9203653226 395.46037749 -176 189 -176 c 0
 112.333333333 -176 61.6666666667 -167.333333333 37 -150 c 1
 37 90 l 1
 47.6666666667 86.6666666667 58.6666666667 85 70 85 c 0
113 1567 m 1
 113 1769 l 1
 471 1769 l 1
 471 1567 l 1
 113 1567 l 1
EndSplineSet
EndChar

StartChar: k
Encoding: 107 107 145
Width: 1017
VWidth: 0
Flags: HW
LayerCount: 2
Fore
SplineSet
84 0 m 1
 84 1769 l 1
 438 1769 l 1
 438 983 l 1
 610 1500 l 1
 981 1500 l 1
 756 848 l 1
 1042 0 l 1
 661 0 l 1
 438 707 l 1
 438 0 l 1
 84 0 l 1
EndSplineSet
EndChar

StartChar: l
Encoding: 108 108 146
Width: 532
VWidth: 0
Flags: HW
LayerCount: 2
Fore
SplineSet
448 0 m 1
 84 0 l 1
 84 1767 l 1
 448 1767 l 1
 448 0 l 1
EndSplineSet
EndChar

StartChar: less
Encoding: 60 60 147
Width: 710
VWidth: 0
Flags: HW
LayerCount: 2
Fore
SplineSet
53 545 m 1
 53 959 l 1
 623 1300 l 1
 623 941 l 1
 281 749 l 1
 623 558 l 1
 623 200 l 1
 53 545 l 1
EndSplineSet
EndChar

StartChar: lessequal
Encoding: 8804 8804 148
Width: 707
VWidth: 0
Flags: HW
LayerCount: 2
Fore
SplineSet
57 637 m 1
 57 1051 l 1
 627 1392 l 1
 627 1033 l 1
 285 841 l 1
 627 650 l 1
 627 292 l 1
 57 637 l 1
84 0 m 1
 84 232 l 1
 600 232 l 1
 600 0 l 1
 84 0 l 1
EndSplineSet
EndChar

StartChar: logicalnot
Encoding: 172 172 149
Width: 868
VWidth: 0
Flags: HW
LayerCount: 2
Fore
SplineSet
52 979 m 1
 781 979 l 1
 781 439 l 1
 470 439 l 1
 470 801 l 1
 52 801 l 1
 52 979 l 1
EndSplineSet
EndChar

StartChar: lozenge
Encoding: 9674 9674 150
Width: 945
VWidth: 0
Flags: HW
LayerCount: 2
Fore
SplineSet
320 713 m 1
 454 179 l 1
 486 179 l 1
 620 713 l 1
 486 1247 l 1
 454 1247 l 1
 320 713 l 1
45 713 m 1
 228 1436 l 1
 719 1436 l 1
 898 713 l 1
 719 0 l 1
 228 0 l 1
 45 713 l 1
EndSplineSet
EndChar

StartChar: lslash
Encoding: 322 322 151
Width: 547
VWidth: 0
Flags: HW
LayerCount: 2
Fore
SplineSet
455 0 m 1
 91 0 l 1
 91 1767 l 1
 455 1767 l 1
 455 0 l 1
16 509 m 1
 16 741 l 1
 532 973 l 1
 532 741 l 1
 16 509 l 1
EndSplineSet
EndChar

StartChar: m
Encoding: 109 109 152
Width: 1575
VWidth: 0
Flags: HW
LayerCount: 2
Fore
SplineSet
534 1243 m 0
 453.229506101 1243 434 1139.83820274 434 1059 c 2
 434 0 l 1
 84 0 l 1
 84 1501 l 1
 434 1501 l 1
 434 1326 l 1
 465.71227155 1447.97027519 536.012606935 1519 686 1519 c 0
 805.777062452 1519 894.154341695 1456.26243842 929 1365 c 1
 983.581595537 1463.71139618 1045.60312964 1519 1184 1519 c 0
 1432.70156054 1519 1497 1343.23031597 1497 1096 c 2
 1493 0 l 1
 1132 0 l 1
 1132 1102 l 2
 1132 1198.66666667 1107.66666667 1247 1059 1247 c 0
 982.196014185 1247 962 1153.51584913 962 1077 c 2
 962 0 l 1
 604 0 l 1
 604 1101.5 l 2
 604 1165.19919227 596.931583501 1243 534 1243 c 0
EndSplineSet
EndChar

StartChar: minus
Encoding: 8722 8722 154
Width: 654
VWidth: 0
Flags: HW
LayerCount: 2
Fore
SplineSet
69 509 m 1
 69 741 l 1
 585 741 l 1
 585 509 l 1
 69 509 l 1
EndSplineSet
EndChar

StartChar: mu
Encoding: 181 181 155
Width: 1070
VWidth: 0
Flags: HW
LayerCount: 2
Fore
SplineSet
533 264 m 0
 615.713838842 264 617 359.958492363 617 443 c 0
 617 451 617 451 617 455 c 2
 619 1500 l 1
 975 1500 l 1
 975 0 l 1
 617 0 l 1
 617 160 l 1
 582.781435026 72.3149272549 540.420785156 6.14133042269 453 -11 c 1
 453 -186 l 1
 93 -186 l 1
 93 1500 l 1
 453 1500 l 1
 453 455 l 2
 453 341.941026033 444.643744952 264 533 264 c 0
EndSplineSet
EndChar

StartChar: multiply
Encoding: 215 215 156
Width: 720
VWidth: 0
Flags: HW
LayerCount: 2
Fore
SplineSet
213 314 m 1
 49 478 l 1
 196 625 l 1
 49 772 l 1
 213 936 l 1
 360 789 l 1
 507 936 l 1
 671 772 l 1
 524 625 l 1
 671 478 l 1
 507 314 l 1
 360 461 l 1
 213 314 l 1
EndSplineSet
EndChar

StartChar: n
Encoding: 110 110 157
Width: 1045
VWidth: 0
Flags: HW
LayerCount: 2
Fore
SplineSet
532 1239 m 0
 448.860200245 1239 442 1138.47278331 442 1055 c 2
 442 0 l 1
 84 0 l 1
 84 1501 l 1
 442 1501 l 1
 442 1329 l 1
 467.829598433 1442.88504764 538.768326883 1518 668 1518 c 0
 876.039460292 1518 965 1378.80493288 965 1157 c 2
 965 0 l 1
 612 0 l 1
 612 1120 l 2
 612 1178.81861039 590.149496031 1239 532 1239 c 0
EndSplineSet
EndChar

StartChar: nine
Encoding: 57 57 158
Width: 1065
VWidth: 0
Flags: HW
LayerCount: 2
Fore
SplineSet
992 625 m 0
 992 240 895 -19 520 -19 c 0
 271 -19 58 102 58 356 c 2
 58 511 l 1
 430 511 l 1
 429 430 l 2
 429 428 429 427 429 426 c 0
 429 372 471 330 518 330 c 0
 574 330 610 379 610 444 c 2
 610 696 l 1
 569 650 496 616 415 616 c 0
 105 616 61 875 61 1199 c 0
 61 1556 184 1777 533 1777 c 0
 888 1777 996 1552 996 1187 c 1
 993 749 l 2
 992 695 992 653 992 625 c 0
533 1453 m 0
 428 1453 441 1319 441 1190 c 0
 441 1078 425 935 531 935 c 0
 591 935 621 994 621 1111 c 2
 621 1277 l 2
 621 1367 611 1453 533 1453 c 0
EndSplineSet
EndChar

StartChar: notequal
Encoding: 8800 8800 159
Width: 690
VWidth: 0
Flags: HW
LayerCount: 2
Fore
SplineSet
88 509 m 1
 88 741 l 1
 602 741 l 1
 602 509 l 1
 88 509 l 1
88 892 m 1
 88 1116 l 1
 602 1116 l 1
 602 892 l 1
 88 892 l 1
EndSplineSet
EndChar

StartChar: ntilde
Encoding: 241 241 160
Width: 1045
VWidth: 0
Flags: HW
LayerCount: 2
Fore
SplineSet
532 1239 m 0
 448.860200245 1239 442 1138.47278331 442 1055 c 2
 442 0 l 1
 84 0 l 1
 84 1501 l 1
 442 1501 l 1
 442 1329 l 1
 467.829598433 1442.88504764 538.768326883 1518 668 1518 c 0
 876.039460292 1518 965 1378.80493288 965 1157 c 2
 965 0 l 1
 612 0 l 1
 612 1120 l 2
 612 1178.81861039 590.149496031 1239 532 1239 c 0
628 1602 m 0
 517.876295358 1602 484.757265106 1712 386 1712 c 0
 364.666666667 1712 345.333333333 1682.33333333 328 1623 c 1
 106 1729 l 1
 159.725658641 1860.77991742 230.273163816 1988 386 1988 c 0
 479.558023557 1988 539.726609408 1880 629 1880 c 0
 651 1880 670.666666667 1906.33333333 688 1959 c 1
 920 1903 l 1
 866.217334334 1756.32000273 792.696462308 1602 628 1602 c 0
EndSplineSet
EndChar

StartChar: numbersign
Encoding: 35 35 161
Width: 1150
VWidth: 0
Flags: HW
LayerCount: 2
Fore
SplineSet
115 886 m 1
 115 1118 l 1
 270 1118 l 1
 363 1593 l 1
 647 1593 l 1
 554 1118 l 1
 720 1118 l 1
 813 1593 l 1
 1097 1593 l 1
 1004 1118 l 1
 1097 1118 l 1
 1097 886 l 1
 959 886 l 1
 931 741 l 1
 1039 741 l 1
 1039 509 l 1
 885 509 l 1
 786 0 l 1
 503 0 l 1
 602 509 l 1
 435 509 l 1
 336 0 l 1
 53 0 l 1
 152 509 l 1
 57 509 l 1
 57 741 l 1
 197 741 l 1
 225 886 l 1
 115 886 l 1
509 886 m 1
 481 741 l 1
 647 741 l 1
 675 886 l 1
 509 886 l 1
EndSplineSet
EndChar

StartChar: o
Encoding: 111 111 162
Width: 1018
VWidth: 0
Flags: HW
LayerCount: 2
Fore
SplineSet
958 449 m 2
 958 143.380941179 809.693376041 -18 509 -18 c 0
 210.333333333 -18 61 137.666666667 61 449 c 2
 61 1051 l 2
 61 1332.98621431 228.923843399 1518 509 1518 c 0
 789.916752658 1518 958 1333.5036464 958 1051 c 2
 958 449 l 2
509 260 m 0
 568.533177076 260 593 308.057259226 593 375 c 2
 593 1108 l 2
 593 1195.33333333 565 1239 509 1239 c 0
 453 1239 425 1195.33333333 425 1108 c 2
 425 375 l 2
 425 308.008322919 449.430406565 260 509 260 c 0
EndSplineSet
EndChar

StartChar: oacute
Encoding: 243 243 163
Width: 1018
VWidth: 0
Flags: HW
LayerCount: 2
Fore
SplineSet
958 449 m 2
 958 143.380941179 809.693376041 -18 509 -18 c 0
 210.333333333 -18 61 137.666666667 61 449 c 2
 61 1051 l 2
 61 1332.98621431 228.923843399 1518 509 1518 c 0
 789.916752658 1518 958 1333.5036464 958 1051 c 2
 958 449 l 2
509 260 m 0
 568.533177076 260 593 308.057259226 593 375 c 2
 593 1108 l 2
 593 1195.33333333 565 1239 509 1239 c 0
 453 1239 425 1195.33333333 425 1108 c 2
 425 375 l 2
 425 308.008322919 449.430406565 260 509 260 c 0
243 1553 m 1
 243 1776 l 1
 718 1994 l 1
 718 1647 l 1
 243 1553 l 1
EndSplineSet
EndChar

StartChar: ocircumflex
Encoding: 244 244 164
Width: 1018
VWidth: 0
Flags: HW
LayerCount: 2
Fore
SplineSet
958 449 m 2
 958 143.380941179 809.693376041 -18 509 -18 c 0
 210.333333333 -18 61 137.666666667 61 449 c 2
 61 1051 l 2
 61 1332.98621431 228.923843399 1518 509 1518 c 0
 789.916752658 1518 958 1333.5036464 958 1051 c 2
 958 449 l 2
509 260 m 0
 568.533177076 260 593 308.057259226 593 375 c 2
 593 1108 l 2
 593 1195.33333333 565 1239 509 1239 c 0
 453 1239 425 1195.33333333 425 1108 c 2
 425 375 l 2
 425 308.008322919 449.430406565 260 509 260 c 0
711 1994 m 1
 952 1591 l 1
 593 1591 l 1
 507 1876 l 1
 421 1591 l 1
 62 1591 l 1
 303 1994 l 1
 711 1994 l 1
EndSplineSet
EndChar

StartChar: odieresis
Encoding: 246 246 165
Width: 1018
VWidth: 0
Flags: HW
LayerCount: 2
Fore
SplineSet
958 449 m 2
 958 143.380941179 809.693376041 -18 509 -18 c 0
 210.333333333 -18 61 137.666666667 61 449 c 2
 61 1051 l 2
 61 1332.98621431 228.923843399 1518 509 1518 c 0
 789.916752658 1518 958 1333.5036464 958 1051 c 2
 958 449 l 2
509 260 m 0
 568.533177076 260 593 308.057259226 593 375 c 2
 593 1108 l 2
 593 1195.33333333 565 1239 509 1239 c 0
 453 1239 425 1195.33333333 425 1108 c 2
 425 375 l 2
 425 308.008322919 449.430406565 260 509 260 c 0
86 1591 m 1
 86 1889 l 1
 444 1889 l 1
 444 1591 l 1
 86 1591 l 1
570 1591 m 1
 570 1889 l 1
 928 1889 l 1
 928 1591 l 1
 570 1591 l 1
EndSplineSet
EndChar

StartChar: oe
Encoding: 339 339 166
Width: 1531
VWidth: 0
Flags: HW
LayerCount: 2
Fore
SplineSet
1475 494 m 2
 1475 156.698523562 1365.19412604 -18 1025 -18 c 0
 924.333333333 -18 842.333333333 11 779 69 c 1
 709 11 619 -18 509 -18 c 0
 210.333333333 -18 61 137.666666667 61 449 c 2
 61 1051 l 2
 61 1332.98621431 228.923843399 1518 509 1518 c 0
 611 1518 699.333333333 1486 774 1422 c 1
 842 1486 931.666666667 1518 1043 1518 c 0
 1331 1518 1475 1376 1475 1092 c 2
 1475 983 l 2
 1475 847.666666667 1473.66666667 754.666666667 1471 704 c 1
 951 704 l 1
 951 494 l 2
 951 481.923052404 950 439.369844814 950 427 c 0
 950 346.371918509 956.573518707 260 1037 260 c 0
 1122.61177761 260 1121 395.268187157 1121 483 c 0
 1121 541.666666667 1120.33333333 573.666666667 1119 579 c 1
 1475 579 l 1
 1475 494 l 2
509 260 m 0
 568.533177076 260 593 308.057259226 593 375 c 2
 593 1108 l 2
 593 1195.33333333 565 1239 509 1239 c 0
 453 1239 425 1195.33333333 425 1108 c 2
 425 375 l 2
 425 308.008322919 449.430406565 260 509 260 c 0
949 1057 m 0
 949 1033.4356763 951 954.541644887 951 931 c 1
 1119 931 l 1
 1119 1087 l 2
 1119 1195 1092.33333333 1249 1039 1249 c 0
 952.139242003 1249 949 1145.8303627 949 1057 c 0
EndSplineSet
EndChar

StartChar: ogonek
Encoding: 731 731 167
Width: 1015
VWidth: 0
Flags: HW
LayerCount: 2
Fore
SplineSet
621 -279 m 0
 621 -353.942740083 662.914792678 -391 736 -391 c 0
 769.333333333 -391 808 -383.333333333 852 -368 c 1
 852 -591 l 1
 788 -617.666666667 722 -631 654 -631 c 0
 463.943481876 -631 306 -518.613464933 306 -330 c 0
 306 -209.333333333 394 -99.3333333333 570 0 c 1
 781 0 l 1
 706.88880782 -89.9921619333 621 -168.688928861 621 -279 c 0
EndSplineSet
EndChar

StartChar: ograve
Encoding: 242 242 168
Width: 1018
VWidth: 0
Flags: HW
LayerCount: 2
Fore
SplineSet
958 449 m 2
 958 143.380941179 809.693376041 -18 509 -18 c 0
 210.333333333 -18 61 137.666666667 61 449 c 2
 61 1051 l 2
 61 1332.98621431 228.923843399 1518 509 1518 c 0
 789.916752658 1518 958 1333.5036464 958 1051 c 2
 958 449 l 2
509 260 m 0
 568.533177076 260 593 308.057259226 593 375 c 2
 593 1108 l 2
 593 1195.33333333 565 1239 509 1239 c 0
 453 1239 425 1195.33333333 425 1108 c 2
 425 375 l 2
 425 308.008322919 449.430406565 260 509 260 c 0
728 1553 m 1
 253 1647 l 1
 253 1994 l 1
 728 1776 l 1
 728 1553 l 1
EndSplineSet
EndChar

StartChar: one
Encoding: 49 49 169
Width: 710
VWidth: 0
Flags: HW
LayerCount: 2
Fore
SplineSet
22 1420 m 1
 140 1420 330 1516 330 1640 c 1
 613 1640 l 1
 613 0 l 1
 240 0 l 1
 240 1195 l 1
 196 1172 96 1139 22 1139 c 1
 22 1233 22 1326 22 1420 c 1
EndSplineSet
EndChar

StartChar: onehalf
Encoding: 189 189 170
Width: 1601
VWidth: 0
Flags: HW
LayerCount: 2
Fore
SplineSet
41 1487 m 1
 99.3999934199 1487 215 1545.2948624 215 1607 c 1
 374 1607 l 1
 374 656 l 1
 164 656 l 1
 164 1364 l 1
 124.666666667 1344 83.6666666667 1334 41 1334 c 1
 42.3333333333 1376.66666667 43 1413.33333333 43 1444 c 0
 43 1468.66666667 42.3333333333 1483 41 1487 c 1
673 0 m 1
 390 0 l 1
 880 1767 l 1
 1164 1767 l 1
 673 0 l 1
1545 712 m 0
 1545 452.738889963 1355.19075026 354.538826588 1265 182 c 1
 1538 182 l 1
 1538 -1 l 1
 1019 -1 l 1
 1019 46 l 2
 1019 257.947873344 1146.78679549 382.850182993 1282 546 c 0
 1316 586 1333 640.333333333 1333 709 c 0
 1333 764.333333333 1315.33333333 792 1280 792 c 0
 1246 792 1229 763 1229 705 c 2
 1229 586 l 1
 1019 586 l 1
 1017 646 l 1
 1017 863.506555167 1071.2578786 974 1282 974 c 0
 1447.30074145 974 1545 879.424581024 1545 712 c 0
EndSplineSet
EndChar

StartChar: onequarter
Encoding: 188 188 171
Width: 1435
VWidth: 0
Flags: HW
LayerCount: 2
Fore
SplineSet
42 1487 m 1
 100.39999342 1487 216 1545.2948624 216 1607 c 1
 375 1607 l 1
 375 656 l 1
 165 656 l 1
 165 1364 l 1
 125.666666667 1344 84.6666666667 1334 42 1334 c 1
 43.3333333333 1376.66666667 44 1413.33333333 44 1444 c 0
 44 1468.66666667 43.3333333333 1483 42 1487 c 1
616 0 m 1
 333 0 l 1
 823 1767 l 1
 1107 1767 l 1
 616 0 l 1
1379 322 m 1
 1379 151 l 1
 1340 151 l 1
 1340 -1 l 1
 1133 -1 l 1
 1133 151 l 1
 830 151 l 1
 830 300 l 1
 1017 941 l 1
 1340 941 l 1
 1340 322 l 1
 1379 322 l 1
1023 322 m 1
 1133 322 l 1
 1133 727 l 1
 1023 322 l 1
EndSplineSet
EndChar

StartChar: onesuperior
Encoding: 185 185 172
Width: 441
VWidth: 0
Flags: HW
LayerCount: 2
Fore
SplineSet
26 1487 m 1
 84.3999934199 1487 200 1545.2948624 200 1607 c 1
 359 1607 l 1
 359 656 l 1
 149 656 l 1
 149 1364 l 1
 109.666666667 1344 68.6666666667 1334 26 1334 c 1
 27.3333333333 1376.66666667 28 1413.33333333 28 1444 c 0
 28 1468.66666667 27.3333333333 1483 26 1487 c 1
EndSplineSet
EndChar

StartChar: ordfeminine
Encoding: 170 170 173
Width: 828
VWidth: 0
Flags: HW
LayerCount: 2
Fore
SplineSet
285 389 m 0
 87.0780598842 389 43 541.302384005 43 744 c 0
 43 1068.41360452 191.501249982 1090.1481534 458 1181 c 0
 458 1182 458 1182 458 1183 c 0
 458 1258.72495642 472.518820129 1386 397 1386 c 0
 357.666666667 1386 338 1364.33333333 338 1321 c 2
 338 1241 l 1
 62 1241 l 1
 61.3333333333 1250.33333333 61 1263.33333333 61 1280 c 0
 61 1516.34301164 168.120412878 1607 411 1607 c 0
 414 1607 414 1607 418 1607 c 0
 605.036896433 1607 744 1500.73576439 744 1310 c 2
 744 403 l 1
 462 403 l 1
 462 527 l 1
 444.516769011 460.813482685 367.421844258 389 285 389 c 0
457 1017 m 1
 378.251280074 985.716261947 333 947.995993327 333 855 c 2
 333 716 l 2
 333 646 354.333333333 611 397 611 c 0
 442.827314734 611 457 658.589434814 457 704 c 2
 457 1017 l 1
EndSplineSet
EndChar

StartChar: ordmasculine
Encoding: 186 186 174
Width: 844
VWidth: 0
Flags: HW
LayerCount: 2
Fore
SplineSet
778 757 m 2
 778 514.662547288 660.743498869 387 422 387 c 0
 184.666666667 387 66 510.333333333 66 757 c 2
 66 1235 l 2
 66 1456.34926389 198.087554412 1605 419 1605 c 0
 420 1605 420 1605 422 1605 c 0
 645.256298133 1605 778 1459.60815576 778 1235 c 2
 778 757 l 2
355 699 m 2
 355 585.977894552 488 569.470146066 488 699 c 2
 488 1280 l 2
 488 1349.33333333 465.833333333 1384 421.5 1384 c 0
 377.166666667 1384 355 1349.33333333 355 1280 c 2
 355 699 l 2
EndSplineSet
EndChar

StartChar: oslash
Encoding: 248 248 175
Width: 1018
VWidth: 0
Flags: HW
LayerCount: 2
Fore
SplineSet
958 449 m 2
 958 143.380941179 809.693376041 -18 509 -18 c 0
 449 -18 393.333333333 -11.3333333333 342 2 c 1
 293 -173 l 1
 193 -145 l 1
 245 42 l 1
 122.333333333 114.666666667 61 250.333333333 61 449 c 2
 61 1051 l 2
 61 1332.98621431 228.923843399 1518 509 1518 c 0
 558.333333333 1518 606.333333333 1511.66666667 653 1499 c 1
 702 1672 l 1
 803 1644 l 1
 751 1459 l 1
 878.712396354 1386.20393408 958 1247.36687782 958 1051 c 2
 958 449 l 2
509 260 m 0
 568.533177076 260 593 308.057259226 593 375 c 2
 593 895 l 1
 432 321 l 1
 444 280.333333333 469.666666667 260 509 260 c 0
509 1239 m 0
 453 1239 425 1195.33333333 425 1108 c 2
 425 683 l 1
 571 1206 l 1
 557 1228 536.333333333 1239 509 1239 c 0
EndSplineSet
EndChar

StartChar: otilde
Encoding: 245 245 176
Width: 1018
VWidth: 0
Flags: HW
LayerCount: 2
Fore
SplineSet
958 449 m 2
 958 143.380941179 809.693376041 -18 509 -18 c 0
 210.333333333 -18 61 137.666666667 61 449 c 2
 61 1051 l 2
 61 1332.98621431 228.923843399 1518 509 1518 c 0
 789.916752658 1518 958 1333.5036464 958 1051 c 2
 958 449 l 2
509 260 m 0
 568.533177076 260 593 308.057259226 593 375 c 2
 593 1108 l 2
 593 1195.33333333 565 1239 509 1239 c 0
 453 1239 425 1195.33333333 425 1108 c 2
 425 375 l 2
 425 308.008322919 449.430406565 260 509 260 c 0
612 1602 m 0
 501.876295358 1602 468.757265106 1712 370 1712 c 0
 348.666666667 1712 329.333333333 1682.33333333 312 1623 c 1
 90 1729 l 1
 143.725658641 1860.77991742 214.273163816 1988 370 1988 c 0
 463.558023557 1988 523.726609408 1880 613 1880 c 0
 635 1880 654.666666667 1906.33333333 672 1959 c 1
 904 1903 l 1
 850.217334334 1756.32000273 776.696462308 1602 612 1602 c 0
EndSplineSet
EndChar

StartChar: p
Encoding: 112 112 177
Width: 1037
VWidth: 0
Flags: HW
LayerCount: 2
Fore
SplineSet
973 521 m 2
 973 224.846926846 947.329769321 -18 651 -18 c 0
 561 -18 492.666666667 7.66666666667 446 59 c 1
 446 -186 l 1
 82 -186 l 1
 82 1500 l 1
 446 1500 l 1
 446 1419 l 1
 500 1485 571.666666667 1518 661 1518 c 0
 908.771646674 1518 973 1322.97877867 973 1075 c 2
 973 521 l 2
610 1075 m 2
 610 1152.22883303 607.183923592 1235 530 1235 c 0
 474 1235 446 1183 446 1079 c 2
 446 422 l 2
 446 335.91244969 457.021580281 262 532 262 c 0
 604.841404275 262 610 346.26668109 610 438 c 2
 610 1075 l 2
EndSplineSet
EndChar

StartChar: paragraph
Encoding: 182 182 178
Width: 1080
VWidth: 0
Flags: HW
LayerCount: 2
Fore
SplineSet
44 1210 m 0
 44 1516.08460437 287.21001954 1593 595 1593 c 2
 970 1593 l 1
 970 0 l 1
 731 0 l 1
 731 1287 l 1
 637 1287 l 1
 637 0 l 1
 391 0 l 1
 391 797 l 1
 151.951135239 823.035024875 44 949.028968089 44 1210 c 0
EndSplineSet
EndChar

StartChar: parenleft
Encoding: 40 40 179
Width: 619
VWidth: 0
Flags: HW
LayerCount: 2
Fore
SplineSet
436 450 m 2
 436 349.629784344 495.941968463 289.082141743 575 268 c 1
 575 -17 l 1
 259.492537729 -3.66869877728 64 226.528368975 64 562 c 2
 64 1151 l 2
 64 1514.13612369 230.201665329 1719.30687413 575 1729 c 1
 575 1462 l 1
 473.785839931 1444.39753738 436 1382.71994073 436 1264.5 c 2
 436 450 l 2
EndSplineSet
EndChar

StartChar: parenright
Encoding: 41 41 180
Width: 620
VWidth: 0
Flags: HW
LayerCount: 2
Fore
SplineSet
45 1729 m 1
 389.755713057 1719.30807232 556 1514.08250127 556 1151 c 2
 556 562 l 2
 556 225.215022274 361.206141297 -3.63917712829 45 -17 c 1
 45 268 l 1
 124.062187453 289.083249987 184 349.628506171 184 450 c 2
 184 1264.5 l 2
 184 1382.70590004 146.213465042 1444.39765825 45 1462 c 1
 45 1729 l 1
EndSplineSet
EndChar

StartChar: partialdiff
Encoding: 8706 8706 181
Width: 1102
VWidth: 0
Flags: HW
LayerCount: 2
Fore
SplineSet
519 1415 m 0
 443.554769537 1415 345.979215865 1396.39168635 295 1376 c 1
 241 1607 l 1
 395 1656.33333333 525 1681 631 1681 c 0
 940.219898685 1681 1042 1478.8270309 1042 1159 c 0
 1042 1073.80979622 989.236054106 354.268960349 901.5 196 c 0
 822.814812498 54.0580931334 681.212810272 -21 458 -21 c 0
 170.223744981 -21 49 127.368041022 49 413 c 0
 49 735.385333772 134.815792407 1086 457 1086 c 0
 519.666666667 1086 589.333333333 1073 666 1047 c 1
 673.333333333 1093 677 1132 677 1164 c 0
 677 1306.01429144 637.590117033 1415 519 1415 c 0
429 391 m 0
 429 332.193486046 444.016812037 293 502 293 c 0
 568.357335651 293 596.569987687 349.341533273 603 419 c 2
 634 759 l 1
 601.333333333 782.333333333 572 794 546 794 c 0
 493.333333333 794 462 744.333333333 452 645 c 2
 435 475 l 2
 431 439 429 411 429 391 c 0
EndSplineSet
EndChar

StartChar: percent
Encoding: 37 37 182
Width: 2186
VWidth: 0
Flags: HW
LayerCount: 2
Fore
SplineSet
2133 402 m 2
 2133 146.652738675 1989.59847129 -18 1741 -18 c 0
 1493.18378176 -18 1350 147.268681815 1350 402 c 2
 1350 765 l 2
 1350 1034.18295058 1477.56918157 1183 1741 1183 c 0
 2004.39310443 1183 2133 1034.1595805 2133 765 c 2
 2133 402 l 2
1741 244 m 0
 1792.79765385 244 1834 287.33996523 1834 343 c 2
 1834 829 l 2
 1834 906.671321488 1819.38714815 956 1741 956 c 0
 1663.29057038 956 1648 906.425317237 1648 829 c 2
 1648 343 l 2
 1648 287.313009179 1689.16371121 244 1741 244 c 0
994 0 m 1
 671 0 l 1
 1211 1767 l 1
 1535 1767 l 1
 994 0 l 1
836 948 m 2
 836 692.652738675 692.59847129 528 444 528 c 0
 196.183781764 528 53 693.268681815 53 948 c 2
 53 1311 l 2
 53 1580.18295058 180.569181566 1729 444 1729 c 0
 707.393104432 1729 836 1580.1595805 836 1311 c 2
 836 948 l 2
444 790 m 0
 495.797653853 790 537 833.33996523 537 889 c 2
 537 1375 l 2
 537 1452.67132149 522.387148146 1502 444 1502 c 0
 366.290570382 1502 351 1452.42531724 351 1375 c 2
 351 889 l 2
 351 833.313009179 392.163711206 790 444 790 c 0
EndSplineSet
EndChar

StartChar: period
Encoding: 46 46 183
Width: 475
VWidth: 0
Flags: HW
LayerCount: 2
Fore
SplineSet
59 1 m 1
 59 299 l 1
 417 299 l 1
 417 1 l 1
 59 1 l 1
EndSplineSet
EndChar

StartChar: periodcentered
Encoding: 183 183 184
Width: 491
VWidth: 0
Flags: HW
LayerCount: 2
Fore
SplineSet
67 723 m 1
 67 1021 l 1
 425 1021 l 1
 425 723 l 1
 67 723 l 1
EndSplineSet
EndChar

StartChar: perthousand
Encoding: 8240 8240 185
Width: 3053
VWidth: 0
Flags: HW
LayerCount: 2
Fore
SplineSet
3000 402 m 2
 3000 146.652738675 2856.59847129 -18 2608 -18 c 0
 2360.18378176 -18 2217 147.268681815 2217 402 c 2
 2217 765 l 2
 2217 1034.18295058 2344.56918157 1183 2608 1183 c 0
 2871.39310443 1183 3000 1034.1595805 3000 765 c 2
 3000 402 l 2
2608 244 m 0
 2659.79765385 244 2701 287.33996523 2701 343 c 2
 2701 829 l 2
 2701 906.671321488 2686.38714815 956 2608 956 c 0
 2530.29057038 956 2515 906.425317237 2515 829 c 2
 2515 343 l 2
 2515 287.313009179 2556.16371121 244 2608 244 c 0
994 0 m 1
 671 0 l 1
 1211 1767 l 1
 1535 1767 l 1
 994 0 l 1
836 948 m 2
 836 692.652738675 692.59847129 528 444 528 c 0
 196.183781764 528 53 693.268681815 53 948 c 2
 53 1311 l 2
 53 1580.18295058 180.569181566 1729 444 1729 c 0
 707.393104432 1729 836 1580.1595805 836 1311 c 2
 836 948 l 2
444 790 m 0
 495.797653853 790 537 833.33996523 537 889 c 2
 537 1375 l 2
 537 1452.67132149 522.387148146 1502 444 1502 c 0
 366.290570382 1502 351 1452.42531724 351 1375 c 2
 351 889 l 2
 351 833.313009179 392.163711206 790 444 790 c 0
2133 402 m 2
 2133 146.652738675 1989.59847129 -18 1741 -18 c 0
 1493.18378176 -18 1350 147.268681815 1350 402 c 2
 1350 765 l 2
 1350 1034.18295058 1477.56918157 1183 1741 1183 c 0
 2004.39310443 1183 2133 1034.1595805 2133 765 c 2
 2133 402 l 2
1741 244 m 0
 1792.79765385 244 1834 287.33996523 1834 343 c 2
 1834 829 l 2
 1834 906.671321488 1819.38714815 956 1741 956 c 0
 1663.29057038 956 1648 906.425317237 1648 829 c 2
 1648 343 l 2
 1648 287.313009179 1689.16371121 244 1741 244 c 0
EndSplineSet
EndChar

StartChar: pi
Encoding: 960 960 186
Width: 546
VWidth: 0
Flags: HW
LayerCount: 2
Fore
SplineSet
94 0 m 1
 94 1500 l 1
 452 1500 l 1
 452 0 l 1
 94 0 l 1
EndSplineSet
EndChar

StartChar: plus
Encoding: 43 43 187
Width: 752
VWidth: 0
Flags: HW
LayerCount: 2
Fore
SplineSet
52 509 m 1
 52 741 l 1
 260 741 l 1
 260 949 l 1
 492 949 l 1
 492 741 l 1
 700 741 l 1
 700 509 l 1
 492 509 l 1
 492 301 l 1
 260 301 l 1
 260 509 l 1
 52 509 l 1
EndSplineSet
EndChar

StartChar: plusminus
Encoding: 177 177 188
Width: 761
VWidth: 0
Flags: HW
LayerCount: 2
Fore
SplineSet
60 622 m 1
 60 854 l 1
 268 854 l 1
 268 1062 l 1
 500 1062 l 1
 500 854 l 1
 708 854 l 1
 708 622 l 1
 500 622 l 1
 500 414 l 1
 268 414 l 1
 268 622 l 1
 60 622 l 1
101 -1 m 1
 101 231 l 1
 617 231 l 1
 617 -1 l 1
 101 -1 l 1
EndSplineSet
EndChar

StartChar: product
Encoding: 8719 8719 189
Width: 1060
VWidth: 0
Flags: HW
LayerCount: 2
Fore
SplineSet
963 1593 m 1
 963 0 l 1
 613 0 l 1
 613 1292 l 1
 447 1292 l 1
 447 0 l 1
 97 0 l 1
 97 1593 l 1
 963 1593 l 1
EndSplineSet
EndChar

StartChar: q
Encoding: 113 113 190
Width: 1039
VWidth: 0
Flags: HW
LayerCount: 2
Fore
SplineSet
65 1075 m 2
 65 1322.32054042 128.950669212 1518 376 1518 c 0
 466 1518 537.666666667 1485 591 1419 c 1
 591 1500 l 1
 956 1500 l 1
 956 -186 l 1
 591 -186 l 1
 591 90 l 1
 547.986034734 31.5451241254 477.522740565 -18 386 -18 c 0
 94.3260405102 -18 65 191.297840298 65 482 c 2
 65 1075 l 2
505 262 m 0
 580.902690549 262 591 335.370477385 591 422 c 2
 591 1079 l 2
 591 1183 563 1235 507 1235 c 0
 429.816001527 1235 427 1152.21415358 427 1075 c 2
 427 438 l 2
 427 346.13373761 432.143659125 262 505 262 c 0
EndSplineSet
EndChar

StartChar: question
Encoding: 63 63 191
Width: 1041
VWidth: 0
Flags: HW
LayerCount: 2
Fore
SplineSet
63 1293 m 2
 63 1562.19719514 251.613118086 1690 523 1690 c 0
 877.52154084 1690 993 1492.84518254 993 1140 c 0
 993 793.56009514 825.108884811 579 475 579 c 1
 475 409 l 1
 142 409 l 1
 142 825 l 1
 475.469047106 825 616 866.48244153 616 1208 c 0
 616 1294.71831928 603.262622705 1371 523 1371 c 0
 436.162739753 1371 429 1276.79402262 429 1185 c 2
 429 1039 l 1
 63 1039 l 1
 63 1293 l 2
131 1 m 1
 131 299 l 1
 489 299 l 1
 489 1 l 1
 131 1 l 1
EndSplineSet
EndChar

StartChar: questiondown
Encoding: 191 191 192
Width: 1041
VWidth: 0
Flags: HW
LayerCount: 2
Fore
SplineSet
979 380 m 2
 979 110.802804856 790.386881914 -17 519 -17 c 0
 164.47845916 -17 49 180.154817462 49 533 c 0
 49 879.43990486 216.891115189 1094 567 1094 c 1
 567 1264 l 1
 900 1264 l 1
 900 848 l 1
 566.530952894 848 426 806.51755847 426 465 c 0
 426 378.281680718 438.737377295 302 519 302 c 0
 605.837260247 302 613 396.205977383 613 488 c 2
 613 634 l 1
 979 634 l 1
 979 380 l 2
911 1672 m 1
 911 1374 l 1
 553 1374 l 1
 553 1672 l 1
 911 1672 l 1
EndSplineSet
EndChar

StartChar: quotedbl
Encoding: 34 34 193
Width: 863
VWidth: 0
Flags: HW
LayerCount: 2
Fore
SplineSet
307 957 m 1
 131 957 l 1
 31 1593 l 1
 383 1593 l 1
 307 957 l 1
747 957 m 1
 571 957 l 1
 471 1593 l 1
 823 1593 l 1
 747 957 l 1
EndSplineSet
EndChar

StartChar: quotedblbase
Encoding: 8222 8222 194
Width: 967
VWidth: 0
Flags: HW
LayerCount: 2
Fore
SplineSet
533 0 m 1
 533 298 l 1
 907 298 l 1
 907 9 l 1
 805 -236 l 1
 594 -236 l 1
 660 0 l 1
 533 0 l 1
60 0 m 1
 60 298 l 1
 434 298 l 1
 434 9 l 1
 332 -236 l 1
 121 -236 l 1
 187 0 l 1
 60 0 l 1
EndSplineSet
EndChar

StartChar: quotedblleft
Encoding: 8220 8220 195
Width: 956
VWidth: 0
Flags: HW
LayerCount: 2
Fore
SplineSet
900 1356 m 1
 900 1058 l 1
 526 1058 l 1
 526 1347 l 1
 628 1592 l 1
 839 1592 l 1
 773 1356 l 1
 900 1356 l 1
431 1356 m 1
 431 1058 l 1
 57 1058 l 1
 57 1347 l 1
 159 1592 l 1
 370 1592 l 1
 304 1356 l 1
 431 1356 l 1
EndSplineSet
EndChar

StartChar: quotedblright
Encoding: 8221 8221 196
Width: 951
VWidth: 0
Flags: HW
LayerCount: 2
Fore
SplineSet
525 1294 m 1
 525 1592 l 1
 899 1592 l 1
 899 1303 l 1
 797 1058 l 1
 586 1058 l 1
 652 1294 l 1
 525 1294 l 1
52 1294 m 1
 52 1592 l 1
 426 1592 l 1
 426 1303 l 1
 324 1058 l 1
 113 1058 l 1
 179 1294 l 1
 52 1294 l 1
EndSplineSet
EndChar

StartChar: quoteleft
Encoding: 8216 8216 197
Width: 487
VWidth: 0
Flags: HW
LayerCount: 2
Fore
SplineSet
431 1356 m 1
 431 1058 l 1
 57 1058 l 1
 57 1347 l 1
 159 1592 l 1
 370 1592 l 1
 304 1356 l 1
 431 1356 l 1
EndSplineSet
EndChar

StartChar: quoteright
Encoding: 8217 8217 198
Width: 477
VWidth: 0
Flags: HW
LayerCount: 2
Fore
SplineSet
52 1294 m 1
 52 1592 l 1
 426 1592 l 1
 426 1303 l 1
 324 1058 l 1
 113 1058 l 1
 179 1294 l 1
 52 1294 l 1
EndSplineSet
EndChar

StartChar: quotesinglbase
Encoding: 8218 8218 199
Width: 495
VWidth: 0
Flags: HW
LayerCount: 2
Fore
SplineSet
60 0 m 1
 60 298 l 1
 434 298 l 1
 434 9 l 1
 332 -236 l 1
 121 -236 l 1
 187 0 l 1
 60 0 l 1
EndSplineSet
EndChar

StartChar: quotesingle
Encoding: 39 39 200
Width: 424
VWidth: 0
Flags: HW
LayerCount: 2
Fore
SplineSet
308 957 m 1
 132 957 l 1
 32 1593 l 1
 384 1593 l 1
 308 957 l 1
EndSplineSet
EndChar

StartChar: r
Encoding: 114 114 201
Width: 945
VWidth: 0
Flags: HW
LayerCount: 2
Fore
SplineSet
508 1233 m 0
 466.970065726 1233 442 1192.04351546 442 1147 c 2
 442 0 l 1
 84 0 l 1
 84 1500 l 1
 442 1500 l 1
 442 1333 l 1
 475.795921531 1449.03266392 530.112684897 1518 663 1518 c 0
 804.3373848 1518 915 1425.31588571 915 1278 c 2
 915 776 l 1
 565 776 l 1
 565 1135 l 2
 565 1185.40611992 557.983502382 1233 508 1233 c 0
EndSplineSet
EndChar

StartChar: radical
Encoding: 8730 8730 202
Width: 1367
VWidth: 0
Flags: HW
LayerCount: 2
Fore
SplineSet
522 1501 m 1
 1353 1501 l 1
 1353 1269 l 1
 829 1269 l 1
 623 0 l 1
 219 0 l 1
 0 741 l 1
 269 741 l 1
 383 338 l 1
 520 1500 l 1
 522 1501 l 1
EndSplineSet
EndChar

StartChar: registered
Encoding: 174 174 203
Width: 1410
VWidth: 0
Flags: HW
LayerCount: 2
Fore
SplineSet
705 205 m 0
 331.659732985 205 48 488.665521464 48 862 c 0
 48 1235.34026702 331.665521464 1519 705 1519 c 0
 1078.34026702 1519 1362 1235.33447854 1362 862 c 0
 1362 488.659732985 1078.33447854 205 705 205 c 0
705 1390 m 0
 416.221802899 1390 207 1152.9421477 207 862 c 0
 207 571.013634936 416.026676144 334 705 334 c 0
 993.971501548 334 1203 571.02605743 1203 862 c 0
 1203 1152.98636506 993.973323856 1390 705 1390 c 0
943 1043 m 0
 943 950.846932499 922.300345005 895.593857814 850 873 c 1
 902.666666667 863 929 822.333333333 929 751 c 2
 929 430 l 1
 745 430 l 1
 745 762 l 2
 745 812.389096766 723.413124865 818 673 818 c 1
 673 430 l 1
 483 430 l 1
 483 1282 l 1
 772 1282 l 2
 916.549435191 1282 943 1187.34034055 943 1043 c 0
674 1124 m 1
 674 965 l 1
 722 965 l 2
 746.666666667 965 759 991 759 1043 c 0
 759 1113.85471115 744.328129796 1124 674 1124 c 1
EndSplineSet
EndChar

StartChar: ring
Encoding: 730 730 204
Width: 804
VWidth: 0
Flags: HW
LayerCount: 2
Fore
SplineSet
403 607 m 0
 313.857851475 607 261 537.146008163 261 450 c 0
 261 363.43309341 314.041494404 293 403 293 c 0
 491.970317531 293 545 363.42023223 545 450 c 0
 545 536.56690659 491.958505596 607 403 607 c 0
402 112 m 0
 188.096421384 112 49 238.073498856 49 450 c 0
 49 661.400735954 188.245811904 788 402 788 c 0
 615.739599654 788 756 661.408125308 756 450 c 0
 756 238.605165666 615.719510883 112 402 112 c 0
EndSplineSet
EndChar

StartChar: s
Encoding: 115 115 205
Width: 974
VWidth: 0
Flags: HW
LayerCount: 2
Fore
SplineSet
491 1518 m 0
 778.153674335 1518 927 1372.44505355 927 1081 c 2
 927 1053 l 1
 559 1053 l 1
 557 1110 l 1
 557 1169.58137793 540.922120011 1239 481 1239 c 0
 431.217127723 1239 405 1209.03000099 405 1159 c 0
 405 1105.66666667 426.333333333 1063.33333333 469 1032 c 2
 690 870 l 1
 827.060211208 768.243176528 936 645.941150931 936 418 c 0
 936 135.015947791 765.140864477 -18 485 -18 c 0
 189 -18 41 132.666666667 41 434 c 1
 43 553 l 1
 401 553 l 1
 403 377 l 2
 403 308.569224793 426.048020554 268 491 268 c 0
 539 268 563 307 563 385 c 0
 563 514.585836706 499.606812482 565.871000013 422 625 c 2
 231 772 l 2
 111.274417543 864.690773515 47 950.708847026 47 1157 c 0
 47 1393.64899211 254.299632944 1518 491 1518 c 0
EndSplineSet
EndChar

StartChar: scaron
Encoding: 353 353 206
Width: 974
VWidth: 0
Flags: HW
LayerCount: 2
Fore
SplineSet
491 1518 m 0
 778.153674335 1518 927 1372.44505355 927 1081 c 2
 927 1053 l 1
 559 1053 l 1
 557 1110 l 1
 557 1169.58137793 540.922120011 1239 481 1239 c 0
 431.217127723 1239 405 1209.03000099 405 1159 c 0
 405 1105.66666667 426.333333333 1063.33333333 469 1032 c 2
 690 870 l 1
 827.060211208 768.243176528 936 645.941150931 936 418 c 0
 936 135.015947791 765.140864477 -18 485 -18 c 0
 189 -18 41 132.666666667 41 434 c 1
 43 553 l 1
 401 553 l 1
 403 377 l 2
 403 308.569224793 426.048020554 268 491 268 c 0
 539 268 563 307 563 385 c 0
 563 514.585836706 499.606812482 565.871000013 422 625 c 2
 231 772 l 2
 111.274417543 864.690773515 47 950.708847026 47 1157 c 0
 47 1393.64899211 254.299632944 1518 491 1518 c 0
711 1591 m 1
 303 1591 l 1
 62 1994 l 1
 421 1994 l 1
 507 1709 l 1
 593 1994 l 1
 952 1994 l 1
 711 1591 l 1
EndSplineSet
EndChar

StartChar: scommaaccent
Encoding: 537 537 207
Width: 974
VWidth: 0
Flags: HW
LayerCount: 2
Fore
SplineSet
491 1518 m 0
 778.153674335 1518 927 1372.44505355 927 1081 c 2
 927 1053 l 1
 559 1053 l 1
 557 1110 l 1
 557 1169.58137793 540.922120011 1239 481 1239 c 0
 431.217127723 1239 405 1209.03000099 405 1159 c 0
 405 1105.66666667 426.333333333 1063.33333333 469 1032 c 2
 690 870 l 1
 827.060211208 768.243176528 936 645.941150931 936 418 c 0
 936 135.015947791 765.140864477 -18 485 -18 c 0
 189 -18 41 132.666666667 41 434 c 1
 43 553 l 1
 401 553 l 1
 403 377 l 2
 403 308.569224793 426.048020554 268 491 268 c 0
 539 268 563 307 563 385 c 0
 563 514.585836706 499.606812482 565.871000013 422 625 c 2
 231 772 l 2
 111.274417543 864.690773515 47 950.708847026 47 1157 c 0
 47 1393.64899211 254.299632944 1518 491 1518 c 0
298 -438 m 1
 298 -140 l 1
 672 -140 l 1
 672 -429 l 1
 570 -674 l 1
 359 -674 l 1
 425 -438 l 1
 298 -438 l 1
EndSplineSet
EndChar

StartChar: section
Encoding: 167 167 208
Width: 954
VWidth: 0
Flags: HW
LayerCount: 2
Fore
SplineSet
483 242 m 0
 534.055591871 242 569 274.195103877 569 324 c 0
 569 400.732259193 363.805156398 459.711523358 311 488 c 1
 196.790417093 546.124519872 75 646.105154888 75 795 c 0
 75 883 121 961.666666667 213 1031 c 1
 121 1098.33333333 75 1179.66666667 75 1275 c 0
 75 1481.06341432 262.417905837 1607 481 1607 c 0
 747.105839896 1607 890 1488.43196551 890 1221 c 1
 585 1221 l 1
 582.333333333 1304.33333333 551.333333333 1346 492 1346 c 0
 438.014947585 1346 396 1315.6479674 396 1264 c 0
 396 1189.03160833 600.319690205 1128.68588025 652 1101 c 0
 766.176679394 1041.87279103 889 941.35714987 889 792 c 0
 889 704 843 625.666666667 751 557 c 1
 843.666666667 488.333333333 890 407 890 313 c 0
 890 106.936585675 702.582094163 -19 484 -19 c 0
 209.946277275 -19 55 94.7270882251 55 367 c 1
 390 367 l 1
 392.666666667 283.666666667 423.666666667 242 483 242 c 0
573 681 m 1
 600.333333333 717 614 750 614 780 c 0
 614 826 546.666666667 871.666666667 412 917 c 1
 378.666666667 877.666666667 362 843 362 813 c 0
 362 740.652853893 491.339217012 707.442539253 573 681 c 1
EndSplineSet
EndChar

StartChar: semicolon
Encoding: 59 59 209
Width: 544
VWidth: 0
Flags: HW
LayerCount: 2
Fore
SplineSet
87 236 m 1
 87 534 l 1
 461 534 l 1
 461 245 l 1
 359 0 l 1
 148 0 l 1
 214 236 l 1
 87 236 l 1
87 976 m 1
 87 1274 l 1
 445 1274 l 1
 445 976 l 1
 87 976 l 1
EndSplineSet
EndChar

StartChar: seven
Encoding: 55 55 210
Width: 920
VWidth: 0
Flags: HW
LayerCount: 2
Fore
SplineSet
260 0 m 2
 231 0 123 1 95 1 c 1
 127 492 301 866 448 1232 c 0
 481 1313 504 1380 517 1431 c 1
 20 1431 l 1
 20 1757 l 1
 908 1757 l 1
 908 1495 l 1
 886 1288 779 1129 708 946 c 0
 603 676 516 368 493 1 c 1
 260 0 l 2
EndSplineSet
EndChar

StartChar: six
Encoding: 54 54 211
Width: 1067
VWidth: 0
Flags: HW
LayerCount: 2
Fore
SplineSet
1006 533 m 0
 1006 181 891 -22 547 -22 c 0
 180 -22 72 166 72 543 c 2
 72 904 l 2
 72 1180 80 1466 248 1574 c 0
 321 1621 432 1655 557 1655 c 0
 779 1655 1008 1539 1008 1310 c 2
 1008 1120 l 1
 639 1120 l 1
 639 1127 639 1127 639 1156 c 0
 639 1244 636 1346 551 1346 c 0
 472 1346 446 1301 446 1220 c 2
 446 922 l 1
 479 984 547 1026 643 1026 c 0
 934 1026 1006 850 1006 533 c 0
534 302 m 0
 617 302 620 380 620 489 c 2
 620 571 l 2
 620 667 593 715 539 715 c 0
 477 715 446 673 446 590 c 2
 446 432 l 2
 446 345 475 302 534 302 c 0
EndSplineSet
EndChar

StartChar: slash
Encoding: 47 47 212
Width: 851
VWidth: 0
Flags: HW
LayerCount: 2
Fore
SplineSet
411 0 m 1
 48 0 l 1
 458 1767 l 1
 822 1767 l 1
 411 0 l 1
EndSplineSet
EndChar

StartChar: sterling
Encoding: 163 163 214
Width: 1006
VWidth: 0
Flags: HW
LayerCount: 2
Fore
SplineSet
59 281 m 1
 179.152853975 352.411601891 235 402.366810695 235 568 c 0
 235 612 232 647 226 673 c 1
 64 673 l 1
 64 905 l 1
 199 905 l 1
 185 964 l 2
 171.302356438 1022.7041867 144 1158.1696329 144 1224 c 0
 144 1489.33337549 299.223694352 1608 561 1608 c 0
 850.073134798 1608 950 1420.53855593 950 1125 c 1
 631 1125 l 1
 631 1212.06861872 633.626595459 1312 567 1312 c 0
 503.809854735 1312 511 1250.23734206 511 1186 c 0
 511 1178 511 1178 511 1173 c 0
 511 1142.33333333 529.666666667 1053 567 905 c 1
 851 905 l 1
 851 673 l 1
 602 673 l 1
 613 541 l 1
 606.016417656 422.279100155 546.832528157 336.499516894 471 291 c 1
 941 291 l 1
 941 0 l 1
 59 0 l 1
 59 281 l 1
EndSplineSet
EndChar

StartChar: summation
Encoding: 8721 8721 215
Width: 884
VWidth: 0
Flags: HW
LayerCount: 2
Fore
SplineSet
272 751 m 1
 62 1229 l 1
 62 1501 l 1
 826 1501 l 1
 826 1200 l 1
 434 1200 l 1
 647 751 l 1
 434 301 l 1
 826 301 l 1
 826 0 l 1
 62 0 l 1
 62 272 l 1
 272 751 l 1
EndSplineSet
EndChar

StartChar: t
Encoding: 116 116 216
Width: 569
VWidth: 0
Flags: HW
LayerCount: 2
Fore
SplineSet
322 -18 m 0
 158.798338759 -18 101 69.7311343166 101 231 c 2
 101 1169 l 1
 46 1169 l 1
 46 1442 l 1
 101 1442 l 1
 101 1761 l 1
 449 1761 l 1
 449 1442 l 1
 513 1442 l 1
 513 1169 l 1
 449 1169 l 1
 449 325 l 2
 449 286.540106095 448.604574839 248 487 248 c 0
 495.666666667 248 504.333333333 249.333333333 513 252 c 1
 513 8 l 1
 462.333333333 -9.33333333333 398.666666667 -18 322 -18 c 0
EndSplineSet
EndChar

StartChar: tcommaaccent
Encoding: 355 355 217
Width: 569
VWidth: 0
Flags: HW
LayerCount: 2
Fore
SplineSet
322 -18 m 0
 158.798338759 -18 101 69.7311343166 101 231 c 2
 101 1169 l 1
 46 1169 l 1
 46 1442 l 1
 101 1442 l 1
 101 1761 l 1
 449 1761 l 1
 449 1442 l 1
 513 1442 l 1
 513 1169 l 1
 449 1169 l 1
 449 325 l 2
 449 286.540106095 448.604574839 248 487 248 c 0
 495.666666667 248 504.333333333 249.333333333 513 252 c 1
 513 8 l 1
 462.333333333 -9.33333333333 398.666666667 -18 322 -18 c 0
135 -438 m 1
 135 -140 l 1
 509 -140 l 1
 509 -429 l 1
 407 -674 l 1
 196 -674 l 1
 262 -438 l 1
 135 -438 l 1
EndSplineSet
EndChar

StartChar: thorn
Encoding: 254 254 218
Width: 1043
VWidth: 0
Flags: HW
LayerCount: 2
Fore
SplineSet
978 391 m 2
 978 159.806120441 885.987752579 -18 662 -18 c 0
 565.333333333 -18 495 41.3333333333 451 160 c 1
 451 -185 l 1
 83 -185 l 1
 83 1769 l 1
 451 1769 l 1
 451 1427 l 1
 511 1488.33333333 577.666666667 1519 651 1519 c 0
 895.459574479 1519 978 1360.08706218 978 1114 c 2
 978 391 l 2
539 1239 m 0
 467.055383228 1239 451 1175.20641741 451 1085 c 2
 451 457 l 2
 451 348.82910265 458.221301032 263 541 263 c 0
 620.082701099 263 615 347.375035543 615 457 c 2
 615 1081 l 2
 615 1171.16953576 608.537538283 1239 539 1239 c 0
EndSplineSet
EndChar

StartChar: three
Encoding: 51 51 219
Width: 1034
VWidth: 0
Flags: HW
LayerCount: 2
Fore
SplineSet
971 530 m 0
 971 178 835 -20 494 -20 c 0
 183 -20 49 143 49 474 c 2
 49 658 l 1
 410 658 l 1
 410 473 l 2
 410 380 424 306 511 306 c 0
 606 306 602 418 602 530 c 0
 602 563 602 563 602 574 c 0
 602 695 570 801 452 801 c 0
 437 801 426 800 418 799 c 1
 418 1115 l 1
 539 1115 605 1164 605 1291 c 0
 605 1391 576 1440 519 1440 c 0
 425 1440 436 1369 424 1286 c 1
 424 1233 l 1
 60 1233 l 1
 58 1295 l 1
 60 1618 206 1763 517 1763 c 0
 817 1763 967 1609 967 1295 c 0
 967 1122 928 1007 802 962 c 1
 952 889 971 766 971 530 c 0
EndSplineSet
EndChar

StartChar: threequarters
Encoding: 190 190 220
Width: 1546
VWidth: 0
Flags: HW
LayerCount: 2
Fore
SplineSet
569 935 m 0
 569 742.713560282 492.662627811 635 301 635 c 0
 127.290162156 635 52 724.579131133 52 904 c 2
 52 1004 l 1
 254 1004 l 1
 254 903 l 2
 254 850.887226132 262.762667588 813 311 813 c 0
 362.209559612 813 362 865.281633582 362 935 c 0
 362 1010.66785814 353.738759173 1082 278 1082 c 0
 269.333333333 1082 262.666666667 1081.66666667 258 1081 c 1
 258 1254 l 1
 327.004076319 1254 363 1278.99249437 363 1349 c 0
 363 1403 347 1430 315 1430 c 0
 254.091318851 1430 265.102511505 1372.84520708 262 1317 c 1
 58 1317 l 1
 57 1351 l 1
 58.2632397277 1531.64328106 140.187025534 1606 314 1606 c 0
 482 1606 566 1521 566 1351 c 0
 566 1258.00003876 544.261868702 1194.22823059 474 1170 c 1
 558.16194758 1132.3486024 569 1065.65514402 569 935 c 0
762 0 m 1
 479 0 l 1
 969 1767 l 1
 1253 1767 l 1
 762 0 l 1
1497 324 m 1
 1497 153 l 1
 1458 153 l 1
 1458 1 l 1
 1251 1 l 1
 1251 153 l 1
 948 153 l 1
 948 302 l 1
 1135 943 l 1
 1458 943 l 1
 1458 324 l 1
 1497 324 l 1
1141 324 m 1
 1251 324 l 1
 1251 729 l 1
 1141 324 l 1
EndSplineSet
EndChar

StartChar: threesuperior
Encoding: 179 179 221
Width: 629
VWidth: 0
Flags: HW
LayerCount: 2
Fore
SplineSet
570 935 m 0
 570 742.713560282 493.662627811 635 302 635 c 0
 128.290162156 635 53 724.579131133 53 904 c 2
 53 1004 l 1
 255 1004 l 1
 255 903 l 2
 255 850.887226132 263.762667588 813 312 813 c 0
 363.209559612 813 363 865.281633582 363 935 c 0
 363 1010.66785814 354.738759173 1082 279 1082 c 0
 270.333333333 1082 263.666666667 1081.66666667 259 1081 c 1
 259 1254 l 1
 328.004076319 1254 364 1278.99249437 364 1349 c 0
 364 1403 348 1430 316 1430 c 0
 255.091318851 1430 266.102511505 1372.84520708 263 1317 c 1
 59 1317 l 1
 58 1351 l 1
 59.2632397277 1531.64328106 141.187025534 1606 315 1606 c 0
 483 1606 567 1521 567 1351 c 0
 567 1258.00003876 545.261868702 1194.22823059 475 1170 c 1
 559.16194758 1132.3486024 570 1065.65514402 570 935 c 0
EndSplineSet
EndChar

StartChar: tilde
Encoding: 732 732 222
Width: 1015
VWidth: 0
Flags: HW
LayerCount: 2
Fore
SplineSet
612 1602 m 0
 501.876295358 1602 468.757265106 1712 370 1712 c 0
 348.666666667 1712 329.333333333 1682.33333333 312 1623 c 1
 90 1729 l 1
 143.725658641 1860.77991742 214.273163816 1988 370 1988 c 0
 463.558023557 1988 523.726609408 1880 613 1880 c 0
 635 1880 654.666666667 1906.33333333 672 1959 c 1
 904 1903 l 1
 850.217334334 1756.32000273 776.696462308 1602 612 1602 c 0
EndSplineSet
EndChar

StartChar: trademark
Encoding: 8482 8482 223
Width: 1910
VWidth: 0
Flags: HW
LayerCount: 2
Fore
SplineSet
67 1593 m 1
 651 1593 l 1
 651 1361 l 1
 492 1361 l 1
 492 386 l 1
 225 386 l 1
 225 1361 l 1
 67 1361 l 1
 67 1593 l 1
1403 386 m 1
 1163 386 l 1
 1016 1257 l 1
 1016 386 l 1
 760 386 l 1
 760 1593 l 1
 1166 1593 l 1
 1279 963 l 1
 1391 1593 l 1
 1800 1593 l 1
 1800 386 l 1
 1541 386 l 1
 1541 1257 l 1
 1403 386 l 1
EndSplineSet
EndChar

StartChar: two
Encoding: 50 50 224
Width: 1029
VWidth: 0
Flags: HW
LayerCount: 2
Fore
SplineSet
979 1293 m 0
 979 823 645 645 487 332 c 1
 967 332 l 1
 967 0 l 1
 54 0 l 1
 54 84 l 2
 54 337 133 484 279 689 c 0
 318 743 398 844 517 992 c 0
 577 1067 607 1164 607 1286 c 0
 607 1369 589 1437 512 1437 c 0
 453 1437 424 1384 424 1280 c 2
 424 1065 l 1
 54 1065 l 1
 50 1173 l 1
 50 1553 148 1767 517 1767 c 0
 809 1767 979 1597 979 1293 c 0
EndSplineSet
EndChar

StartChar: twosuperior
Encoding: 178 178 225
Width: 646
VWidth: 0
Flags: HW
LayerCount: 2
Fore
SplineSet
587 1344 m 0
 587 1084.73888996 397.190750262 986.538826588 307 814 c 1
 580 814 l 1
 580 631 l 1
 61 631 l 1
 61 678 l 2
 61 889.947873344 188.786795494 1014.85018299 324 1178 c 0
 358 1218 375 1272.33333333 375 1341 c 0
 375 1396.33333333 357.333333333 1424 322 1424 c 0
 288 1424 271 1395 271 1337 c 2
 271 1218 l 1
 61 1218 l 1
 59 1278 l 1
 59 1495.50655517 113.257878604 1606 324 1606 c 0
 489.300741454 1606 587 1511.42458102 587 1344 c 0
EndSplineSet
EndChar

StartChar: u
Encoding: 117 117 226
Width: 1046
VWidth: 0
Flags: HW
LayerCount: 2
Fore
SplineSet
520 264 m 0
 602.713838842 264 604 359.958492363 604 443 c 0
 604 451 604 451 604 455 c 2
 606 1500 l 1
 962 1500 l 1
 962 0 l 1
 604 0 l 1
 604 160 l 1
 558.335580038 44.7517020018 509.089183672 -18 373 -18 c 0
 131.914904193 -18 80 142.70325798 80 383 c 2
 80 1500 l 1
 440 1500 l 1
 440 455 l 2
 440 341.941026033 431.643744952 264 520 264 c 0
EndSplineSet
EndChar

StartChar: uacute
Encoding: 250 250 227
Width: 1046
VWidth: 0
Flags: HW
LayerCount: 2
Fore
SplineSet
520 264 m 0
 602.713838842 264 604 359.958492363 604 443 c 0
 604 451 604 451 604 455 c 2
 606 1500 l 1
 962 1500 l 1
 962 0 l 1
 604 0 l 1
 604 160 l 1
 558.335580038 44.7517020018 509.089183672 -18 373 -18 c 0
 131.914904193 -18 80 142.70325798 80 383 c 2
 80 1500 l 1
 440 1500 l 1
 440 455 l 2
 440 341.941026033 431.643744952 264 520 264 c 0
257 1553 m 1
 257 1776 l 1
 732 1994 l 1
 732 1647 l 1
 257 1553 l 1
EndSplineSet
EndChar

StartChar: ucircumflex
Encoding: 251 251 228
Width: 1046
VWidth: 0
Flags: HW
LayerCount: 2
Fore
SplineSet
520 264 m 0
 602.713838842 264 604 359.958492363 604 443 c 0
 604 451 604 451 604 455 c 2
 606 1500 l 1
 962 1500 l 1
 962 0 l 1
 604 0 l 1
 604 160 l 1
 558.335580038 44.7517020018 509.089183672 -18 373 -18 c 0
 131.914904193 -18 80 142.70325798 80 383 c 2
 80 1500 l 1
 440 1500 l 1
 440 455 l 2
 440 341.941026033 431.643744952 264 520 264 c 0
725 1994 m 1
 966 1591 l 1
 607 1591 l 1
 521 1876 l 1
 435 1591 l 1
 76 1591 l 1
 317 1994 l 1
 725 1994 l 1
EndSplineSet
EndChar

StartChar: udieresis
Encoding: 252 252 229
Width: 1046
VWidth: 0
Flags: HW
LayerCount: 2
Fore
SplineSet
520 264 m 0
 602.713838842 264 604 359.958492363 604 443 c 0
 604 451 604 451 604 455 c 2
 606 1500 l 1
 962 1500 l 1
 962 0 l 1
 604 0 l 1
 604 160 l 1
 558.335580038 44.7517020018 509.089183672 -18 373 -18 c 0
 131.914904193 -18 80 142.70325798 80 383 c 2
 80 1500 l 1
 440 1500 l 1
 440 455 l 2
 440 341.941026033 431.643744952 264 520 264 c 0
100 1591 m 1
 100 1889 l 1
 458 1889 l 1
 458 1591 l 1
 100 1591 l 1
584 1591 m 1
 584 1889 l 1
 942 1889 l 1
 942 1591 l 1
 584 1591 l 1
EndSplineSet
EndChar

StartChar: ugrave
Encoding: 249 249 230
Width: 1046
VWidth: 0
Flags: HW
LayerCount: 2
Fore
SplineSet
520 264 m 0
 602.713838842 264 604 359.958492363 604 443 c 0
 604 451 604 451 604 455 c 2
 606 1500 l 1
 962 1500 l 1
 962 0 l 1
 604 0 l 1
 604 160 l 1
 558.335580038 44.7517020018 509.089183672 -18 373 -18 c 0
 131.914904193 -18 80 142.70325798 80 383 c 2
 80 1500 l 1
 440 1500 l 1
 440 455 l 2
 440 341.941026033 431.643744952 264 520 264 c 0
742 1553 m 1
 267 1647 l 1
 267 1994 l 1
 742 1776 l 1
 742 1553 l 1
EndSplineSet
EndChar

StartChar: underscore
Encoding: 95 95 231
Width: 671
VWidth: 0
Flags: HW
LayerCount: 2
Fore
SplineSet
10 -232 m 1
 10 0 l 1
 661 0 l 1
 661 -232 l 1
 10 -232 l 1
EndSplineSet
EndChar

StartChar: uni0200
Encoding: 512 512 233
Width: 947
VWidth: 0
Flags: HW
LayerCount: 2
Fore
SplineSet
750 1593 m 1
 926 0 l 1
 586 0 l 1
 561 240 l 1
 383 240 l 1
 361 0 l 1
 19 0 l 1
 199 1593 l 1
 750 1593 l 1
487 1294 m 1
 455 1294 l 1
 408 530 l 1
 534 530 l 1
 487 1294 l 1
625 1729 m 1
 377 2158 l 1
 607 2266 l 1
 791 1787 l 1
 625 1729 l 1
323 1729 m 1
 35 2158 l 1
 269 2266 l 1
 489 1787 l 1
 323 1729 l 1
EndSplineSet
EndChar

StartChar: uni0201
Encoding: 513 513 234
Width: 1004
VWidth: 0
Flags: HW
LayerCount: 2
Fore
SplineSet
345 -18 m 0
 95.0181250705 -18 41 173.80155275 41 430 c 0
 41 838.644536466 227.471677623 865.134448195 563 980 c 0
 563 981 563 981 563 983 c 0
 563 1079.10653916 581.478389376 1239 486 1239 c 0
 436.666666667 1239 412 1211.66666667 412 1157 c 2
 412 1056 l 1
 64 1056 l 1
 63.3333333333 1067.33333333 63 1083.66666667 63 1105 c 0
 63 1402.54278657 198.184426651 1518 504 1518 c 0
 743.858361572 1518 924 1387.23993912 924 1143 c 2
 924 0 l 1
 568 0 l 1
 568 156 l 1
 545.581614327 73.7992525308 448.073939163 -18 345 -18 c 0
562 774 m 1
 462.882004008 734.137327699 406 687.237826093 406 570 c 2
 406 395 l 2
 406 306.333333333 432.666666667 262 486 262 c 0
 543.766063976 262 562 321.708075853 562 379 c 2
 562 774 l 1
655 1640 m 1
 407 2069 l 1
 637 2177 l 1
 821 1698 l 1
 655 1640 l 1
353 1640 m 1
 64 2069 l 1
 298 2177 l 1
 519 1698 l 1
 353 1640 l 1
EndSplineSet
EndChar

StartChar: uni0202
Encoding: 514 514 235
Width: 947
VWidth: 0
Flags: HW
LayerCount: 2
Fore
SplineSet
750 1593 m 1
 926 0 l 1
 586 0 l 1
 561 240 l 1
 383 240 l 1
 361 0 l 1
 19 0 l 1
 199 1593 l 1
 750 1593 l 1
487 1294 m 1
 455 1294 l 1
 408 530 l 1
 534 530 l 1
 487 1294 l 1
475 1842 m 0
 401.923775787 1842 360 1804.9346696 360 1730 c 1
 44 1729 l 1
 42 1743 41 1757 41 1771 c 0
 41 1988.16364618 239.064120715 2082 473 2082 c 0
 712.871565329 2082 908 1986.80719826 908 1764 c 0
 908 1756.66666667 907.333333333 1745 906 1729 c 1
 695.333333333 1729 590 1729.33333333 590 1730 c 0
 590 1804.94274008 548.085207322 1842 475 1842 c 0
EndSplineSet
EndChar

StartChar: uni0203
Encoding: 515 515 236
Width: 1004
VWidth: 0
Flags: HW
LayerCount: 2
Fore
SplineSet
345 -18 m 0
 95.0181250705 -18 41 173.80155275 41 430 c 0
 41 838.644536466 227.471677623 865.134448195 563 980 c 0
 563 981 563 981 563 983 c 0
 563 1079.10653916 581.478389376 1239 486 1239 c 0
 436.666666667 1239 412 1211.66666667 412 1157 c 2
 412 1056 l 1
 64 1056 l 1
 63.3333333333 1067.33333333 63 1083.66666667 63 1105 c 0
 63 1402.54278657 198.184426651 1518 504 1518 c 0
 743.858361572 1518 924 1387.23993912 924 1143 c 2
 924 0 l 1
 568 0 l 1
 568 156 l 1
 545.581614327 73.7992525308 448.073939163 -18 345 -18 c 0
562 774 m 1
 462.882004008 734.137327699 406 687.237826093 406 570 c 2
 406 395 l 2
 406 306.333333333 432.666666667 262 486 262 c 0
 543.766063976 262 562 321.708075853 562 379 c 2
 562 774 l 1
505 1753 m 0
 431.923775787 1753 390 1715.9346696 390 1641 c 1
 74 1640 l 1
 71.3333333333 1654 70 1668 70 1682 c 0
 70 1899.16364618 268.064120715 1993 502 1993 c 0
 741.791129116 1993 938 1897.77260858 938 1675 c 0
 938 1667.66666667 937.333333333 1656 936 1640 c 1
 725.333333333 1640 620 1640.33333333 620 1641 c 0
 620 1715.94274008 578.085207322 1753 505 1753 c 0
EndSplineSet
EndChar

StartChar: uni0204
Encoding: 516 516 237
Width: 862
VWidth: 0
Flags: HW
LayerCount: 2
Fore
SplineSet
87 0 m 1
 87 1593 l 1
 791 1593 l 1
 791 1284 l 1
 445 1284 l 1
 445 973 l 1
 777 973 l 1
 777 674 l 1
 445 674 l 1
 445 311 l 1
 814 311 l 1
 814 0 l 1
 87 0 l 1
590 1729 m 1
 342 2158 l 1
 572 2266 l 1
 756 1787 l 1
 590 1729 l 1
288 1729 m 1
 -1 2158 l 1
 233 2266 l 1
 454 1787 l 1
 288 1729 l 1
EndSplineSet
EndChar

StartChar: uni0205
Encoding: 517 517 238
Width: 1000
VWidth: 0
Flags: HW
LayerCount: 2
Fore
SplineSet
944 494 m 2
 944 156.698523562 834.19412604 -18 494 -18 c 0
 173.235005052 -18 62 170.048886662 62 489 c 2
 62 1092 l 2
 62 1370.69324078 231.827819015 1518 512 1518 c 0
 800 1518 944 1376 944 1092 c 2
 944 983 l 2
 944 847.666666667 942.666666667 754.666666667 940 704 c 1
 420 704 l 1
 420 494 l 2
 420 481.923052404 419 439.369844814 419 427 c 0
 419 346.371918509 425.573518707 260 506 260 c 0
 591.611777606 260 590 395.268187157 590 483 c 0
 590 541.666666667 589.333333333 573.666666667 588 579 c 1
 944 579 l 1
 944 494 l 2
418 1057 m 0
 418 1033.4356763 420 954.541644887 420 931 c 1
 588 931 l 1
 588 1087 l 2
 588 1195 561.333333333 1249 508 1249 c 0
 421.139242003 1249 418 1145.8303627 418 1057 c 0
663 1640 m 1
 415 2069 l 1
 645 2177 l 1
 829 1698 l 1
 663 1640 l 1
361 1640 m 1
 72 2069 l 1
 306 2177 l 1
 527 1698 l 1
 361 1640 l 1
EndSplineSet
EndChar

StartChar: uni0206
Encoding: 518 518 239
Width: 862
VWidth: 0
Flags: HW
LayerCount: 2
Fore
SplineSet
87 0 m 1
 87 1593 l 1
 791 1593 l 1
 791 1284 l 1
 445 1284 l 1
 445 973 l 1
 777 973 l 1
 777 674 l 1
 445 674 l 1
 445 311 l 1
 814 311 l 1
 814 0 l 1
 87 0 l 1
440 1842 m 0
 366.923775787 1842 325 1804.9346696 325 1730 c 1
 9 1729 l 1
 6.33333333333 1743 5 1757 5 1771 c 0
 5 1988.16364618 203.064120715 2082 437 2082 c 0
 676.791129116 2082 873 1986.77260858 873 1764 c 0
 873 1756.66666667 872.333333333 1745 871 1729 c 1
 660.333333333 1729 555 1729.33333333 555 1730 c 0
 555 1804.94274008 513.085207322 1842 440 1842 c 0
EndSplineSet
EndChar

StartChar: uni0207
Encoding: 519 519 240
Width: 1000
VWidth: 0
Flags: HW
LayerCount: 2
Fore
SplineSet
944 494 m 2
 944 156.698523562 834.19412604 -18 494 -18 c 0
 173.235005052 -18 62 170.048886662 62 489 c 2
 62 1092 l 2
 62 1370.69324078 231.827819015 1518 512 1518 c 0
 800 1518 944 1376 944 1092 c 2
 944 983 l 2
 944 847.666666667 942.666666667 754.666666667 940 704 c 1
 420 704 l 1
 420 494 l 2
 420 481.923052404 419 439.369844814 419 427 c 0
 419 346.371918509 425.573518707 260 506 260 c 0
 591.611777606 260 590 395.268187157 590 483 c 0
 590 541.666666667 589.333333333 573.666666667 588 579 c 1
 944 579 l 1
 944 494 l 2
418 1057 m 0
 418 1033.4356763 420 954.541644887 420 931 c 1
 588 931 l 1
 588 1087 l 2
 588 1195 561.333333333 1249 508 1249 c 0
 421.139242003 1249 418 1145.8303627 418 1057 c 0
513 1753 m 0
 439.923775787 1753 398 1715.9346696 398 1641 c 1
 82 1640 l 1
 79.3333333333 1654 78 1668 78 1682 c 0
 78 1899.16364618 276.064120715 1993 510 1993 c 0
 749.791129116 1993 946 1897.77260858 946 1675 c 0
 946 1667.66666667 945.333333333 1656 944 1640 c 1
 733.333333333 1640 628 1640.33333333 628 1641 c 0
 628 1715.94274008 586.085207322 1753 513 1753 c 0
EndSplineSet
EndChar

StartChar: uni0208
Encoding: 520 520 241
Width: 513
VWidth: 0
Flags: HW
LayerCount: 2
Fore
SplineSet
87 0 m 1
 87 1593 l 1
 427 1593 l 1
 427 0 l 1
 87 0 l 1
408 1729 m 1
 160 2158 l 1
 390 2266 l 1
 574 1787 l 1
 408 1729 l 1
106 1729 m 1
 -183 2158 l 1
 51 2266 l 1
 272 1787 l 1
 106 1729 l 1
EndSplineSet
EndChar

StartChar: uni0209
Encoding: 521 521 242
Width: 526
VWidth: 0
Flags: HW
LayerCount: 2
Fore
SplineSet
84 0 m 1
 84 1500 l 1
 442 1500 l 1
 442 0 l 1
 84 0 l 1
414 1640 m 1
 166 2069 l 1
 396 2177 l 1
 580 1698 l 1
 414 1640 l 1
112 1640 m 1
 -177 2069 l 1
 57 2177 l 1
 278 1698 l 1
 112 1640 l 1
EndSplineSet
EndChar

StartChar: uni020A
Encoding: 522 522 243
Width: 514
VWidth: 0
Flags: HW
LayerCount: 2
Fore
SplineSet
87 0 m 1
 87 1593 l 1
 427 1593 l 1
 427 0 l 1
 87 0 l 1
258 1842 m 0
 184.923775787 1842 143 1804.9346696 143 1730 c 1
 -173 1729 l 1
 -175.666666667 1743 -177 1757 -177 1771 c 0
 -177 1988.16364618 21.0641207146 2082 255 2082 c 0
 494.791129116 2082 691 1986.77260858 691 1764 c 0
 691 1756.66666667 690.333333333 1745 689 1729 c 1
 478.333333333 1729 373 1729.33333333 373 1730 c 0
 373 1804.94274008 331.085207322 1842 258 1842 c 0
EndSplineSet
EndChar

StartChar: uni020B
Encoding: 523 523 244
Width: 526
VWidth: 0
Flags: HW
LayerCount: 2
Fore
SplineSet
84 0 m 1
 84 1500 l 1
 442 1500 l 1
 442 0 l 1
 84 0 l 1
263 1753 m 0
 189.923775787 1753 148 1715.9346696 148 1641 c 1
 -168 1640 l 1
 -169.333333333 1654 -170 1668 -170 1682 c 0
 -170 1899.16364618 28.0641207146 1993 262 1993 c 0
 501.952131574 1993 696 1897.84188067 696 1675 c 0
 696 1667.66666667 695.333333333 1656 694 1640 c 1
 483.333333333 1640 378 1640.33333333 378 1641 c 0
 378 1715.94274008 336.085207322 1753 263 1753 c 0
EndSplineSet
EndChar

StartChar: uni020C
Encoding: 524 524 245
Width: 1000
VWidth: 0
Flags: HW
LayerCount: 2
Fore
SplineSet
500 -18 m 0
 212.424516916 -18 66 146.151732365 66 430 c 2
 66 1189 l 2
 66 1463.98747485 218.297880356 1607 500 1607 c 0
 781.739452741 1607 934 1464.02073405 934 1189 c 2
 934 430 l 2
 934 146.151559059 787.57600645 -18 500 -18 c 0
414 477 m 0
 414 394.613893568 417.982755651 297 500 297 c 0
 577.025018014 297 580 387.595392996 580 465 c 2
 580 1113 l 2
 580 1197.98282682 586.732135966 1295 500 1295 c 0
 431.837968751 1295 414 1233.21383547 414 1165.5 c 0
 414 936 414 706.5 414 477 c 0
651 1729 m 1
 403 2158 l 1
 633 2266 l 1
 817 1787 l 1
 651 1729 l 1
349 1729 m 1
 60 2158 l 1
 294 2266 l 1
 515 1787 l 1
 349 1729 l 1
EndSplineSet
EndChar

StartChar: uni020D
Encoding: 525 525 246
Width: 1018
VWidth: 0
Flags: HW
LayerCount: 2
Fore
SplineSet
958 449 m 2
 958 143.380941179 809.693376041 -18 509 -18 c 0
 210.333333333 -18 61 137.666666667 61 449 c 2
 61 1051 l 2
 61 1332.98621431 228.923843399 1518 509 1518 c 0
 789.916752658 1518 958 1333.5036464 958 1051 c 2
 958 449 l 2
509 260 m 0
 568.533177076 260 593 308.057259226 593 375 c 2
 593 1108 l 2
 593 1195.33333333 565 1239 509 1239 c 0
 453 1239 425 1195.33333333 425 1108 c 2
 425 375 l 2
 425 308.008322919 449.430406565 260 509 260 c 0
660 1640 m 1
 412 2069 l 1
 642 2177 l 1
 826 1698 l 1
 660 1640 l 1
358 1640 m 1
 69 2069 l 1
 303 2177 l 1
 524 1698 l 1
 358 1640 l 1
EndSplineSet
EndChar

StartChar: uni020E
Encoding: 526 526 247
Width: 1000
VWidth: 0
Flags: HW
LayerCount: 2
Fore
SplineSet
500 -18 m 0
 212.424516916 -18 66 146.151732365 66 430 c 2
 66 1189 l 2
 66 1463.98747485 218.297880356 1607 500 1607 c 0
 781.739452741 1607 934 1464.02073405 934 1189 c 2
 934 430 l 2
 934 146.151559059 787.57600645 -18 500 -18 c 0
414 477 m 0
 414 394.613893568 417.982755651 297 500 297 c 0
 577.025018014 297 580 387.595392996 580 465 c 2
 580 1113 l 2
 580 1197.98282682 586.732135966 1295 500 1295 c 0
 431.837968751 1295 414 1233.21383547 414 1165.5 c 0
 414 936 414 706.5 414 477 c 0
501 1842 m 0
 427.923775787 1842 386 1804.9346696 386 1730 c 1
 70 1729 l 1
 67.3333333333 1743 66 1757 66 1771 c 0
 66 1988.16364618 264.064120715 2082 498 2082 c 0
 737.791129116 2082 934 1986.77260858 934 1764 c 0
 934 1756.66666667 933.333333333 1745 932 1729 c 1
 721.333333333 1729 616 1729.33333333 616 1730 c 0
 616 1804.94274008 574.085207322 1842 501 1842 c 0
EndSplineSet
EndChar

StartChar: uni020F
Encoding: 527 527 248
Width: 1018
VWidth: 0
Flags: HW
LayerCount: 2
Fore
SplineSet
958 449 m 2
 958 143.380941179 809.693376041 -18 509 -18 c 0
 210.333333333 -18 61 137.666666667 61 449 c 2
 61 1051 l 2
 61 1332.98621431 228.923843399 1518 509 1518 c 0
 789.916752658 1518 958 1333.5036464 958 1051 c 2
 958 449 l 2
509 260 m 0
 568.533177076 260 593 308.057259226 593 375 c 2
 593 1108 l 2
 593 1195.33333333 565 1239 509 1239 c 0
 453 1239 425 1195.33333333 425 1108 c 2
 425 375 l 2
 425 308.008322919 449.430406565 260 509 260 c 0
510 1753 m 0
 436.923775787 1753 395 1715.9346696 395 1641 c 1
 79 1640 l 1
 76.3333333333 1654 75 1668 75 1682 c 0
 75 1899.16364618 273.064120715 1993 507 1993 c 0
 746.791129116 1993 943 1897.77260858 943 1675 c 0
 943 1667.66666667 942.333333333 1656 941 1640 c 1
 730.333333333 1640 625 1640.33333333 625 1641 c 0
 625 1715.94274008 583.085207322 1753 510 1753 c 0
EndSplineSet
EndChar

StartChar: uni0210
Encoding: 528 528 249
Width: 996
VWidth: 0
Flags: HW
LayerCount: 2
Fore
SplineSet
773 829 m 1
 882.80519085 808.83169964 924 725.743236836 924 600 c 0
 924 336.666666667 922.666666667 136.666666667 920 0 c 1
 576 0 l 1
 576 621 l 2
 576 713.997198002 536.118696902 725 443 725 c 1
 443 0 l 1
 87 0 l 1
 87 1593 l 1
 627 1593 l 2
 896.897603829 1593 947 1415.98808567 947 1147 c 0
 947 973.570678465 907.427899112 870.151397687 773 829 c 1
603 1147 m 0
 603 1271.03226397 582.881617645 1298 464 1298 c 2
 445 1298 l 1
 445 1001 l 1
 533 1001 l 2
 579.666666667 1001 603 1049.66666667 603 1147 c 0
508 1729 m 1
 260 2158 l 1
 490 2266 l 1
 674 1787 l 1
 508 1729 l 1
206 1729 m 1
 -83 2158 l 1
 151 2266 l 1
 372 1787 l 1
 206 1729 l 1
EndSplineSet
EndChar

StartChar: uni0211
Encoding: 529 529 250
Width: 945
VWidth: 0
Flags: HW
LayerCount: 2
Fore
SplineSet
508 1233 m 0
 466.970065726 1233 442 1192.04351546 442 1147 c 2
 442 0 l 1
 84 0 l 1
 84 1500 l 1
 442 1500 l 1
 442 1333 l 1
 475.795921531 1449.03266392 530.112684897 1518 663 1518 c 0
 804.3373848 1518 915 1425.31588571 915 1278 c 2
 915 776 l 1
 565 776 l 1
 565 1135 l 2
 565 1185.40611992 557.983502382 1233 508 1233 c 0
651 1640 m 1
 403 2069 l 1
 633 2177 l 1
 817 1698 l 1
 651 1640 l 1
349 1640 m 1
 59 2069 l 1
 293 2177 l 1
 515 1698 l 1
 349 1640 l 1
EndSplineSet
EndChar

StartChar: uni0212
Encoding: 530 530 251
Width: 996
VWidth: 0
Flags: HW
LayerCount: 2
Fore
SplineSet
773 829 m 1
 882.80519085 808.83169964 924 725.743236836 924 600 c 0
 924 336.666666667 922.666666667 136.666666667 920 0 c 1
 576 0 l 1
 576 621 l 2
 576 713.997198002 536.118696902 725 443 725 c 1
 443 0 l 1
 87 0 l 1
 87 1593 l 1
 627 1593 l 2
 896.897603829 1593 947 1415.98808567 947 1147 c 0
 947 973.570678465 907.427899112 870.151397687 773 829 c 1
603 1147 m 0
 603 1271.03226397 582.881617645 1298 464 1298 c 2
 445 1298 l 1
 445 1001 l 1
 533 1001 l 2
 579.666666667 1001 603 1049.66666667 603 1147 c 0
358 1842 m 0
 284.923775787 1842 243 1804.9346696 243 1730 c 1
 -73 1729 l 1
 -75.6666666667 1743 -77 1757 -77 1771 c 0
 -77 1988.16364618 121.064120715 2082 355 2082 c 0
 594.791129116 2082 791 1986.77260858 791 1764 c 0
 791 1756.66666667 790.333333333 1745 789 1729 c 1
 578.333333333 1729 473 1729.33333333 473 1730 c 0
 473 1804.94274008 431.085207322 1842 358 1842 c 0
EndSplineSet
EndChar

StartChar: uni0213
Encoding: 531 531 252
Width: 945
VWidth: 0
Flags: HW
LayerCount: 2
Fore
SplineSet
508 1233 m 0
 466.970065726 1233 442 1192.04351546 442 1147 c 2
 442 0 l 1
 84 0 l 1
 84 1500 l 1
 442 1500 l 1
 442 1333 l 1
 475.795921531 1449.03266392 530.112684897 1518 663 1518 c 0
 804.3373848 1518 915 1425.31588571 915 1278 c 2
 915 776 l 1
 565 776 l 1
 565 1135 l 2
 565 1185.40611992 557.983502382 1233 508 1233 c 0
500 1753 m 0
 426.923775787 1753 385 1715.9346696 385 1641 c 1
 69 1640 l 1
 67 1654 66 1668 66 1682 c 0
 66 1899.16364618 264.064120715 1993 498 1993 c 0
 737.871565329 1993 933 1897.80719826 933 1675 c 0
 933 1667.66666667 932.333333333 1656 931 1640 c 1
 720.333333333 1640 615 1640.33333333 615 1641 c 0
 615 1715.94274008 573.085207322 1753 500 1753 c 0
EndSplineSet
EndChar

StartChar: uni0214
Encoding: 532 532 253
Width: 1020
VWidth: 0
Flags: HW
LayerCount: 2
Fore
SplineSet
510 -18 m 0
 217.469096103 -18 82 131.595372872 82 422 c 2
 82 1593 l 1
 424 1593 l 1
 424 446 l 2
 424 366.042370614 430.091488595 285 510 285 c 0
 590.795196255 285 596 365.350274505 596 446 c 2
 596 1593 l 1
 938 1593 l 1
 938 422 l 2
 938 131.603634782 802.524231863 -18 510 -18 c 0
661 1729 m 1
 413 2158 l 1
 643 2266 l 1
 827 1787 l 1
 661 1729 l 1
359 1729 m 1
 70 2158 l 1
 304 2266 l 1
 525 1787 l 1
 359 1729 l 1
EndSplineSet
EndChar

StartChar: uni0215
Encoding: 533 533 254
Width: 1046
VWidth: 0
Flags: HW
LayerCount: 2
Fore
SplineSet
520 264 m 0
 602.713838842 264 604 359.958492363 604 443 c 0
 604 451 604 451 604 455 c 2
 606 1500 l 1
 962 1500 l 1
 962 0 l 1
 604 0 l 1
 604 160 l 1
 558.335580038 44.7517020018 509.089183672 -18 373 -18 c 0
 131.914904193 -18 80 142.70325798 80 383 c 2
 80 1500 l 1
 440 1500 l 1
 440 455 l 2
 440 341.941026033 431.643744952 264 520 264 c 0
672 1640 m 1
 424 2069 l 1
 654 2177 l 1
 838 1698 l 1
 672 1640 l 1
370 1640 m 1
 81 2069 l 1
 315 2177 l 1
 536 1698 l 1
 370 1640 l 1
EndSplineSet
EndChar

StartChar: uni0216
Encoding: 534 534 255
Width: 1020
VWidth: 0
Flags: HW
LayerCount: 2
Fore
SplineSet
510 -18 m 0
 217.469096103 -18 82 131.595372872 82 422 c 2
 82 1593 l 1
 424 1593 l 1
 424 446 l 2
 424 366.042370614 430.091488595 285 510 285 c 0
 590.795196255 285 596 365.350274505 596 446 c 2
 596 1593 l 1
 938 1593 l 1
 938 422 l 2
 938 131.603634782 802.524231863 -18 510 -18 c 0
511 1842 m 0
 437.923775787 1842 396 1804.9346696 396 1730 c 1
 80 1729 l 1
 77.3333333333 1743 76 1757 76 1771 c 0
 76 1988.16364618 274.064120715 2082 508 2082 c 0
 747.791129116 2082 944 1986.77260858 944 1764 c 0
 944 1756.66666667 943.333333333 1745 942 1729 c 1
 731.333333333 1729 626 1729.33333333 626 1730 c 0
 626 1804.94274008 584.085207322 1842 511 1842 c 0
EndSplineSet
EndChar

StartChar: uni0217
Encoding: 535 535 256
Width: 1046
VWidth: 0
Flags: HW
LayerCount: 2
Fore
SplineSet
520 264 m 0
 602.713838842 264 604 359.958492363 604 443 c 0
 604 451 604 451 604 455 c 2
 606 1500 l 1
 962 1500 l 1
 962 0 l 1
 604 0 l 1
 604 160 l 1
 558.335580038 44.7517020018 509.089183672 -18 373 -18 c 0
 131.914904193 -18 80 142.70325798 80 383 c 2
 80 1500 l 1
 440 1500 l 1
 440 455 l 2
 440 341.941026033 431.643744952 264 520 264 c 0
522 1753 m 0
 448.923775787 1753 407 1715.9346696 407 1641 c 1
 91 1640 l 1
 88.3333333333 1654 87 1668 87 1682 c 0
 87 1899.16364618 285.064120715 1993 519 1993 c 0
 758.791129116 1993 955 1897.77260858 955 1675 c 0
 955 1667.66666667 954.333333333 1656 953 1640 c 1
 742.333333333 1640 637 1640.33333333 637 1641 c 0
 637 1715.94274008 595.085207322 1753 522 1753 c 0
EndSplineSet
EndChar

StartChar: uni021A
Encoding: 538 538 257
Width: 811
VWidth: 0
Flags: HW
LayerCount: 2
Fore
SplineSet
20 1593 m 1
 790 1593 l 1
 790 1286 l 1
 581 1286 l 1
 581 0 l 1
 229 0 l 1
 229 1286 l 1
 20 1286 l 1
 20 1593 l 1
218 -420 m 1
 218 -122 l 1
 592 -122 l 1
 592 -411 l 1
 490 -656 l 1
 279 -656 l 1
 345 -420 l 1
 218 -420 l 1
EndSplineSet
EndChar

StartChar: uni021B
Encoding: 539 539 258
Width: 569
VWidth: 0
Flags: HW
LayerCount: 2
Fore
SplineSet
322 -18 m 0
 158.798338759 -18 101 69.7311343166 101 231 c 2
 101 1169 l 1
 46 1169 l 1
 46 1442 l 1
 101 1442 l 1
 101 1761 l 1
 449 1761 l 1
 449 1442 l 1
 513 1442 l 1
 513 1169 l 1
 449 1169 l 1
 449 325 l 2
 449 286.540106095 448.604574839 248 487 248 c 0
 495.666666667 248 504.333333333 249.333333333 513 252 c 1
 513 8 l 1
 462.333333333 -9.33333333333 398.666666667 -18 322 -18 c 0
135 -438 m 1
 135 -140 l 1
 509 -140 l 1
 509 -429 l 1
 407 -674 l 1
 196 -674 l 1
 262 -438 l 1
 135 -438 l 1
EndSplineSet
EndChar

StartChar: uni030F
Encoding: 783 783 259
Width: 1300
VWidth: 0
Flags: HW
LayerCount: 2
Fore
SplineSet
825 1236 m 1
 577 1665 l 1
 807 1773 l 1
 991 1294 l 1
 825 1236 l 1
523 1236 m 1
 234 1665 l 1
 468 1773 l 1
 689 1294 l 1
 523 1236 l 1
EndSplineSet
EndChar

StartChar: uni2074
Encoding: 8308 8308 260
Width: 638
VWidth: 0
Flags: HW
LayerCount: 2
Fore
SplineSet
582 973 m 1
 582 802 l 1
 543 802 l 1
 543 650 l 1
 336 650 l 1
 336 802 l 1
 33 802 l 1
 33 951 l 1
 220 1592 l 1
 543 1592 l 1
 543 973 l 1
 582 973 l 1
226 973 m 1
 336 973 l 1
 336 1378 l 1
 226 973 l 1
EndSplineSet
EndChar

StartChar: uni2206
Encoding: 8710 8710 261
Width: 946
VWidth: 0
Flags: HW
LayerCount: 2
Fore
SplineSet
720 1353 m 1
 899 0 l 1
 46 0 l 1
 229 1353 l 1
 720 1353 l 1
487 1044 m 1
 455 1044 l 1
 388 230 l 1
 554 230 l 1
 487 1044 l 1
EndSplineSet
EndChar

StartChar: uniFB01
Encoding: 64257 64257 263
Width: 1112
VWidth: 0
Flags: HW
LayerCount: 2
Fore
SplineSet
500 1533 m 0
 457.517706352 1533 455 1500.22627812 455 1453 c 2
 455 1434 l 1
 533 1434 l 1
 533 1157 l 1
 462 1157 l 1
 462 0 l 1
 107 0 l 1
 107 1161 l 1
 42 1161 l 1
 42 1192.33333333 43.3333333333 1283.33333333 46 1434 c 1
 107 1434 l 1
 107 1536 l 2
 107 1697.33333333 187.666666667 1778 349 1778 c 0
 425.666666667 1778 487 1768.33333333 533 1749 c 1
 533 1528 l 1
 518.333333333 1531.33333333 507.333333333 1533 500 1533 c 0
670 0 m 1
 670 1500 l 1
 1028 1500 l 1
 1028 0 l 1
 670 0 l 1
670 1567 m 1
 670 1769 l 1
 1028 1769 l 1
 1028 1567 l 1
 670 1567 l 1
EndSplineSet
EndChar

StartChar: uniFB02
Encoding: 64258 64258 264
Width: 1125
VWidth: 0
Flags: HW
LayerCount: 2
Fore
SplineSet
500 1533 m 0
 457.517706352 1533 455 1500.22627812 455 1453 c 2
 455 1434 l 1
 533 1434 l 1
 533 1157 l 1
 462 1157 l 1
 462 0 l 1
 107 0 l 1
 107 1161 l 1
 42 1161 l 1
 42 1192.33333333 43.3333333333 1283.33333333 46 1434 c 1
 107 1434 l 1
 107 1536 l 2
 107 1697.33333333 187.666666667 1778 349 1778 c 0
 425.666666667 1778 487 1768.33333333 533 1749 c 1
 533 1528 l 1
 518.333333333 1531.33333333 507.333333333 1533 500 1533 c 0
1041 0 m 1
 677 0 l 1
 677 1767 l 1
 1041 1767 l 1
 1041 0 l 1
EndSplineSet
EndChar

StartChar: v
Encoding: 118 118 265
Width: 904
VWidth: 0
Flags: HW
LayerCount: 2
Fore
SplineSet
657 0 m 1
 243 0 l 1
 2 1500 l 1
 361 1500 l 1
 435 741 l 1
 447 498 l 1
 461 743 l 1
 544 1500 l 1
 902 1500 l 1
 657 0 l 1
EndSplineSet
EndChar

StartChar: w
Encoding: 119 119 266
Width: 1444
VWidth: 0
Flags: HW
LayerCount: 2
Fore
SplineSet
902 1500 m 1
 986 694 l 1
 1078 1500 l 1
 1435 1500 l 1
 1224 0 l 1
 808 0 l 1
 720 801 l 1
 636 0 l 1
 220 0 l 1
 9 1500 l 1
 366 1500 l 1
 455 694 l 1
 542 1500 l 1
 902 1500 l 1
EndSplineSet
EndChar

StartChar: x
Encoding: 120 120 267
Width: 982
VWidth: 0
Flags: HW
LayerCount: 2
Fore
SplineSet
488 684 m 1
 367 0 l 1
 17 0 l 1
 181 843 l 1
 53 1501 l 1
 401 1501 l 1
 489 989 l 1
 577 1501 l 1
 931 1501 l 1
 804 834 l 1
 954 0 l 1
 603 0 l 1
 488 684 l 1
EndSplineSet
EndChar

StartChar: y
Encoding: 121 121 268
Width: 905
VWidth: 0
Flags: HW
LayerCount: 2
Fore
SplineSet
143 41 m 2
 205.211611981 41 240 48.7845085002 240 103 c 0
 240 115.666666667 238.333333333 133 235 155 c 2
 4 1501 l 1
 357 1501 l 1
 423 821 l 1
 447 489 l 1
 475 821 l 1
 555 1501 l 1
 910 1501 l 1
 632 -14 l 1
 615.784415226 -127.50909342 564.424825081 -186 435 -186 c 2
 31 -186 l 1
 31 41 l 1
 143 41 l 2
EndSplineSet
EndChar

StartChar: ydieresis
Encoding: 255 255 269
Width: 905
VWidth: 0
Flags: HW
LayerCount: 2
Fore
SplineSet
143 41 m 2
 205.211611981 41 240 48.7845085002 240 103 c 0
 240 115.666666667 238.333333333 133 235 155 c 2
 4 1501 l 1
 357 1501 l 1
 423 821 l 1
 447 489 l 1
 475 821 l 1
 555 1501 l 1
 910 1501 l 1
 632 -14 l 1
 615.784415226 -127.50909342 564.424825081 -186 435 -186 c 2
 31 -186 l 1
 31 41 l 1
 143 41 l 2
33 1591 m 1
 33 1889 l 1
 391 1889 l 1
 391 1591 l 1
 33 1591 l 1
517 1591 m 1
 517 1889 l 1
 875 1889 l 1
 875 1591 l 1
 517 1591 l 1
EndSplineSet
EndChar

StartChar: yen
Encoding: 165 165 270
Width: 969
VWidth: 0
Flags: HW
LayerCount: 2
Fore
SplineSet
181 475 m 1
 181 699 l 1
 273 699 l 1
 38 1593 l 1
 387 1593 l 1
 485 1053 l 1
 583 1593 l 1
 931 1593 l 1
 697 699 l 1
 785 699 l 1
 785 475 l 1
 651 475 l 1
 651 408 l 1
 785 408 l 1
 785 176 l 1
 651 176 l 1
 651 0 l 1
 319 0 l 1
 319 176 l 1
 181 176 l 1
 181 408 l 1
 319 408 l 1
 319 475 l 1
 181 475 l 1
EndSplineSet
EndChar

StartChar: z
Encoding: 122 122 271
Width: 878
VWidth: 0
Flags: HW
LayerCount: 2
Fore
SplineSet
32 0 m 1
 32 272 l 1
 445 1194 l 1
 71 1194 l 1
 71 1500 l 1
 841 1500 l 1
 841 1194 l 1
 439 301 l 1
 816 301 l 1
 816 0 l 1
 32 0 l 1
EndSplineSet
EndChar

StartChar: zcaron
Encoding: 382 382 272
Width: 878
VWidth: 0
Flags: HW
LayerCount: 2
Fore
SplineSet
32 0 m 1
 32 272 l 1
 445 1194 l 1
 71 1194 l 1
 71 1500 l 1
 841 1500 l 1
 841 1194 l 1
 439 301 l 1
 816 301 l 1
 816 0 l 1
 32 0 l 1
641 1591 m 1
 233 1591 l 1
 -8 1994 l 1
 351 1994 l 1
 437 1709 l 1
 523 1994 l 1
 882 1994 l 1
 641 1591 l 1
EndSplineSet
EndChar

StartChar: zero
Encoding: 48 48 273
Width: 1074
VWidth: 0
Flags: HW
LayerCount: 2
Fore
SplineSet
537 -19 m 0
 239 -19 71 183 71 496 c 2
 71 1142 l 2
 71 1473 223 1655 537 1655 c 0
 851 1655 1003 1473 1003 1142 c 2
 1003 496 l 2
 1003 183 835 -19 537 -19 c 0
537 340 m 0
 591 340 624 398 624 460 c 2
 624 1186 l 2
 624 1268 617 1341 537 1341 c 0
 457 1341 450 1268 450 1186 c 2
 450 460 l 2
 450 398 483 340 537 340 c 0
EndSplineSet
EndChar
